<?xml version="1.0" encoding="utf-8"?>
<!-- Generator: Adobe Illustrator 26.0.3, SVG Export Plug-In . SVG Version: 6.00 Build 0)  -->
<svg version="1.1" id="_x2018_ëîé_x5F_1" xmlns="http://www.w3.org/2000/svg" xmlns:xlink="http://www.w3.org/1999/xlink"
	 x="0px" y="0px" width="80px" height="80px" viewBox="0 0 80 80" enable-background="new 0 0 80 80" xml:space="preserve">
<g>
	<path fill="#333333" d="M40.687,66.948c-4.132,0-4.141-0.186-4.182-1.174c-0.126-2.716-0.39-3.291-1.029-4.678
		c-0.244-0.532-0.534-1.163-0.876-2.024c-2.423-6.093-1.174-9.523,0.3-11.327c1.882-2.302,4.924-2.954,6.95-2.594
		c1.656,0.244,2.984,1.109,3.912,2.565c3.452,5.423-0.197,17.826-0.354,18.351c-0.151,0.506-0.614,0.853-1.142,0.858
		C42.818,66.938,41.642,66.948,40.687,66.948z M38.839,64.545c1.056,0.005,2.788-0.005,4.505-0.017
		c1.024-3.828,2.586-12.071,0.389-15.521c-0.543-0.852-1.285-1.337-2.271-1.483c-1.128-0.203-3.356,0.099-4.699,1.743
		c-1.528,1.87-1.503,4.953,0.072,8.916c0.323,0.813,0.597,1.407,0.827,1.908C38.32,61.525,38.665,62.363,38.839,64.545z"/>
	<path fill="#333333" d="M41.069,80c-0.025,0-0.05-0.001-0.076-0.001c-0.881-0.01-2.166-0.145-3.144-1.2
		c-1.246-1.345-1.635-3.723-1.344-8.208c0.041-0.632,0.566-1.124,1.2-1.124h6.55c0.538,0,1.011,0.358,1.157,0.876
		c0.151,0.535,1.417,5.31-0.624,7.976C44.199,79.089,43.077,80,41.069,80z M38.847,71.871c-0.11,2.846,0.147,4.624,0.767,5.293
		c0.192,0.207,0.509,0.42,1.407,0.43c1.128-0.015,1.609-0.413,1.857-0.736c0.891-1.16,0.687-3.539,0.418-4.987H38.847z"/>
	<path fill="#333333" d="M14.832,62.269c-0.953,0-2.125-0.01-3.567-0.022c-0.528-0.005-0.991-0.352-1.142-0.858
		C9.966,60.864,6.317,48.461,9.77,43.038c0.927-1.456,2.255-2.321,3.949-2.571c1.993-0.359,5.031,0.298,6.912,2.6
		c1.474,1.804,2.723,5.233,0.3,11.326c-0.342,0.861-0.632,1.492-0.876,2.024c-0.638,1.388-0.902,1.963-1.028,4.68
		C18.984,62.084,18.975,62.269,14.832,62.269z M17.776,61.053h0.012H17.776z M12.187,59.85c1.717,0.013,3.448,0.022,4.505,0.016
		c0.173-2.181,0.518-3.02,1.177-4.453c0.23-0.501,0.504-1.096,0.827-1.909c1.575-3.963,1.601-7.045,0.072-8.915
		c-1.343-1.644-3.573-1.947-4.661-1.749c-1.022,0.151-1.766,0.636-2.308,1.488C9.602,47.778,11.163,56.022,12.187,59.85z"/>
	<path fill="#333333" d="M14.463,75.322c-2.008,0-3.131-0.911-3.72-1.682c-2.042-2.666-0.776-7.441-0.625-7.976
		c0.146-0.518,0.619-0.876,1.157-0.876h6.55c0.634,0,1.159,0.492,1.2,1.124c0.291,4.486-0.098,6.864-1.345,8.209
		c-0.978,1.055-2.262,1.19-3.143,1.2C14.512,75.321,14.487,75.322,14.463,75.322z M12.235,67.193
		c-0.268,1.449-0.472,3.828,0.419,4.987c0.247,0.322,0.73,0.736,1.857,0.736c0.897-0.01,1.214-0.223,1.406-0.43
		c0.619-0.669,0.877-2.447,0.767-5.294L12.235,67.193L12.235,67.193z"/>
	<path fill="#333333" d="M47.579,36.84c-0.664,0-1.202-0.538-1.202-1.202V24.075c0-0.664,0.538-1.202,1.202-1.202h2.4l-5.668-6.421
		l-5.721,6.421h2.364c0.664,0,1.202,0.538,1.202,1.202v7.117c0,0.664-0.538,1.202-1.202,1.202s-1.202-0.538-1.202-1.202v-5.914
		h-3.844c-0.474,0-0.904-0.278-1.097-0.71c-0.194-0.432-0.116-0.938,0.2-1.292l8.407-9.436c0.229-0.257,0.56-0.411,0.901-0.403
		c0.344,0.001,0.671,0.149,0.898,0.407l8.329,9.436c0.313,0.354,0.389,0.859,0.195,1.29s-0.624,0.708-1.096,0.708h-3.863v10.36
		C48.781,36.302,48.243,36.84,47.579,36.84z"/>
	<path fill="#333333" d="M6.267,36.84c-0.664,0-1.202-0.538-1.202-1.202v-10.36H1.202c-0.473,0-0.902-0.277-1.096-0.708
		c-0.194-0.431-0.118-0.936,0.195-1.29l8.329-9.436c0.227-0.258,0.554-0.406,0.898-0.407c0.401,0.006,0.671,0.146,0.901,0.403
		l8.407,9.436c0.315,0.353,0.393,0.86,0.2,1.292c-0.194,0.432-0.624,0.71-1.097,0.71h-3.844V31.1c0,0.664-0.538,1.202-1.202,1.202
		s-1.202-0.538-1.202-1.202v-7.025c0-0.664,0.538-1.202,1.202-1.202h2.364l-5.721-6.421l-5.668,6.421h2.4
		c0.664,0,1.202,0.538,1.202,1.202v11.563C7.47,36.302,6.931,36.84,6.267,36.84z"/>
	
		<linearGradient id="SVGID_1_" gradientUnits="userSpaceOnUse" x1="17.4768" y1="63.7685" x2="36.6183" y2="63.7685" gradientTransform="matrix(1 0 0 -1 0 80)">
		<stop  offset="0" style="stop-color:#3AABDF"/>
		<stop  offset="0.9637" style="stop-color:#62BC63"/>
		<stop  offset="1" style="stop-color:#63BD5E;stop-opacity:0.9"/>
	</linearGradient>
	<path fill="url(#SVGID_1_)" d="M30.35,31.963c-0.664,0-1.202-0.538-1.202-1.202V11.139c0-0.664,0.538-1.202,1.202-1.202h2.4
		l-5.668-6.421l-5.721,6.421h2.364c0.664,0,1.202,0.538,1.202,1.202V30.76c0,0.664-0.538,1.202-1.202,1.202
		s-1.202-0.538-1.202-1.202V12.341h-3.844c-0.474,0-0.904-0.278-1.097-0.71c-0.194-0.432-0.116-0.938,0.2-1.292l8.407-9.436
		c0.229-0.258,0.586-0.377,0.901-0.403c0.344,0.001,0.671,0.149,0.898,0.407l8.329,9.436c0.313,0.354,0.389,0.859,0.195,1.29
		s-0.624,0.708-1.096,0.708h-3.863V30.76C31.552,31.425,31.014,31.963,30.35,31.963z"/>
</g>
</svg>
