<?xml version="1.0" encoding="utf-8"?>
<!-- Generator: Adobe Illustrator 26.3.1, SVG Export Plug-In . SVG Version: 6.00 Build 0)  -->
<svg version="1.1" id="_x2018_ëîé_x5F_1" xmlns="http://www.w3.org/2000/svg" xmlns:xlink="http://www.w3.org/1999/xlink"
	 x="0px" y="0px" width="90px" height="90px" viewBox="0 0 90 90" style="enable-background:new 0 0 90 90;" xml:space="preserve">
<style type="text/css">
	.st0{fill:#333333;}
	.st1{fill:url(#SVGID_1_);}
	.st2{fill:url(#SVGID_00000100379398440000502380000013230778586972512655_);}
	.st3{fill:url(#SVGID_00000000940579871953714280000006758732431177067418_);}
	.st4{fill:url(#SVGID_00000113321495801727861280000008470242366544676527_);}
	.st5{fill:url(#SVGID_00000098906139140438046730000013107697135437047961_);}
</style>
<g>
	<g>
		<path class="st0" d="M21.5,21.4c5.3,0,8.9-4.2,8.9-10.2c0-6-3.7-10.2-8.9-10.2c-5.3,0-8.9,4.2-8.9,10.2
			C12.6,17.2,16.2,21.4,21.5,21.4z M21.5,3.7c4.6,0,6.3,4.1,6.3,7.5s-1.6,7.5-6.3,7.5s-6.3-4.1-6.3-7.5S16.9,3.7,21.5,3.7z"/>
		<path class="st0" d="M34.8,39.7C34.8,39.7,34.8,39.7,34.8,39.7c0.8,0,1.3-0.6,1.3-1.3l0-3.2c0-0.7-0.6-1.3-1.3-1.3c0,0,0,0,0,0
			c-0.7,0-1.3,0.6-1.3,1.3l0,3.2C33.5,39.1,34.1,39.7,34.8,39.7z"/>
		<path class="st0" d="M34.9,59.6c-0.7,0-1.3,0.6-1.3,1.3v26.7c0,0.7,0.6,1.3,1.3,1.3c0.7,0,1.3-0.6,1.3-1.3V61
			C36.2,60.2,35.6,59.6,34.9,59.6z"/>
		<path class="st0" d="M25.5,62.3c-0.7,0-1.3,0.6-1.3,1.3v24c0,0.7,0.6,1.3,1.3,1.3s1.3-0.6,1.3-1.3v-24
			C26.8,62.9,26.2,62.3,25.5,62.3z"/>
		<path class="st0" d="M65.4,30.2c-1.2,0-2.4,0.1-3.6,0.3c0.1-0.9-0.1-1.8-0.4-2.7c-1.2-2.7-4.4-3.9-7.1-2.7l-7,3.1l-11.5-3.9
			c-1-0.4-2.1-0.5-3.2-0.4l-19.9,2c-0.1,0-0.1,0-0.2,0c-5.3,1.3-9,6.1-9,11.6v14.2c0,2.3,1,4.4,2.7,5.9c1.4,1.2,3.2,1.9,5.1,1.9
			c0.3,0,0.6,0,0.9-0.1v28.3c0,0.7,0.6,1.3,1.3,1.3s1.3-0.6,1.3-1.3V58.9l11.5-1.9c1.5-0.2,2.7-1.3,3.1-2.8l0.7-2.9
			c0.3-1.2,0-2.5-0.8-3.5c-0.8-0.9-2.1-1.4-3.3-1.3L14.8,48v-5.7c0-0.7-0.6-1.3-1.3-1.3s-1.3,0.6-1.3,1.3v6c-0.6,0.2-1,0.8-0.9,1.4
			c0.1,0.7,0.8,1.3,1.5,1.2l13.7-1.6c0.4,0,0.7,0.1,1,0.4c0.3,0.3,0.3,0.7,0.2,1l-0.7,2.9c-0.1,0.4-0.5,0.8-0.9,0.8L12,56.7
			c-1.5,0.2-3-0.2-4.1-1.2c-1.1-1-1.8-2.4-1.8-3.9V37.4c0-4.2,2.8-7.9,6.9-9l19.8-2c0.7-0.1,1.4,0,2.1,0.2l12,4.1
			c0.3,0.1,0.7,0.1,1,0l7.5-3.3c1.4-0.6,3,0,3.6,1.4c0.3,0.7,0.3,1.4,0,2.1c0,0.1,0,0.1-0.1,0.2c-3.4,1.1-6.3,3-8.7,5.5
			c-0.2-0.1-0.3-0.1-0.5-0.1L42.2,36c-0.7-0.1-1.4,0.5-1.4,1.2c-0.1,0.7,0.5,1.4,1.2,1.4l6.2,0.5c-2.5,3.4-3.9,7.7-3.9,12.2v36.4
			c0,0.6,0.5,1.1,1.1,1.1h40c0.6,0,1.1-0.5,1.1-1.1V51.3C86.5,39.7,77.1,30.2,65.4,30.2z M84.3,86.6H46.6V51.3
			c0-10.4,8.5-18.9,18.9-18.9c10.4,0,18.9,8.5,18.9,18.9V86.6z"/>
	</g>
	<g>
		<linearGradient id="SVGID_1_" gradientUnits="userSpaceOnUse" x1="55.8088" y1="53.6803" x2="75.8331" y2="53.6803">
			<stop  offset="0" style="stop-color:#3AABDF"/>
			<stop  offset="1" style="stop-color:#63BD5E;stop-opacity:0.9"/>
		</linearGradient>
		<path class="st1" d="M57.1,55h17.4c0.7,0,1.3-0.6,1.3-1.3c0-0.7-0.6-1.3-1.3-1.3H57.1c-0.7,0-1.3,0.6-1.3,1.3
			C55.8,54.4,56.4,55,57.1,55z"/>
		
			<linearGradient id="SVGID_00000083086355437814623410000009992344630726933894_" gradientUnits="userSpaceOnUse" x1="55.8088" y1="61.0683" x2="79.4152" y2="61.0683">
			<stop  offset="0" style="stop-color:#3AABDF"/>
			<stop  offset="1" style="stop-color:#63BD5E;stop-opacity:0.9"/>
		</linearGradient>
		<path style="fill:url(#SVGID_00000083086355437814623410000009992344630726933894_);" d="M77.8,59.7H57.4c-0.9,0-1.6,0.6-1.6,1.3
			c0,0.7,0.7,1.3,1.6,1.3h20.5c0.9,0,1.6-0.6,1.6-1.3C79.4,60.3,78.7,59.7,77.8,59.7z"/>
		
			<linearGradient id="SVGID_00000138568840293331671170000013409998257306677924_" gradientUnits="userSpaceOnUse" x1="55.8088" y1="68.844" x2="75.8331" y2="68.844">
			<stop  offset="0" style="stop-color:#3AABDF"/>
			<stop  offset="1" style="stop-color:#63BD5E;stop-opacity:0.9"/>
		</linearGradient>
		<path style="fill:url(#SVGID_00000138568840293331671170000013409998257306677924_);" d="M74.5,67.5H57.1c-0.7,0-1.3,0.6-1.3,1.3
			c0,0.7,0.6,1.3,1.3,1.3h17.4c0.7,0,1.3-0.6,1.3-1.3C75.8,68.1,75.2,67.5,74.5,67.5z"/>
		
			<linearGradient id="SVGID_00000086683554290796252700000005345670942739101106_" gradientUnits="userSpaceOnUse" x1="51.3554" y1="75.4114" x2="71.3797" y2="75.4114">
			<stop  offset="0" style="stop-color:#3AABDF"/>
			<stop  offset="1" style="stop-color:#63BD5E;stop-opacity:0.9"/>
		</linearGradient>
		<path style="fill:url(#SVGID_00000086683554290796252700000005345670942739101106_);" d="M70,74.1H52.7c-0.7,0-1.3,0.6-1.3,1.3
			c0,0.7,0.6,1.3,1.3,1.3H70c0.7,0,1.3-0.6,1.3-1.3C71.4,74.7,70.8,74.1,70,74.1z"/>
		
			<linearGradient id="SVGID_00000142153794495778606900000015602668696168359337_" gradientUnits="userSpaceOnUse" x1="17.6496" y1="50.2869" x2="44.0429" y2="50.2869">
			<stop  offset="0" style="stop-color:#3AABDF"/>
			<stop  offset="1" style="stop-color:#63BD5E;stop-opacity:0.9"/>
		</linearGradient>
		<path style="fill:url(#SVGID_00000142153794495778606900000015602668696168359337_);" d="M42.4,35.1l-19.1,4.8
			c-0.5,0.1-0.9,0.5-1,1l-1.5,7.3c-0.1,0.7,0.3,1.4,1,1.6c0.7,0.1,1.4-0.3,1.6-1l1.3-6.5L41,38.2l-4,20.1l-16.3,4.1l1.1-5.5
			c0.1-0.7-0.3-1.4-1-1.6c-0.7-0.1-1.4,0.3-1.6,1l-1.5,7.5c-0.1,0.4,0.1,0.9,0.4,1.2c0.3,0.2,0.6,0.4,0.9,0.4c0.1,0,0.2,0,0.3,0
			l19.1-4.8c0.5-0.1,0.9-0.5,1-1l4.6-23c0.1-0.4-0.1-0.9-0.4-1.2C43.3,35.1,42.8,35,42.4,35.1z"/>
	</g>
</g>
</svg>
