<?xml version="1.0" encoding="utf-8"?>
<!-- Generator: Adobe Illustrator 16.0.3, SVG Export Plug-In . SVG Version: 6.00 Build 0)  -->
<!DOCTYPE svg PUBLIC "-//W3C//DTD SVG 1.1//EN" "http://www.w3.org/Graphics/SVG/1.1/DTD/svg11.dtd">
<svg version="1.1" id="Layer_1" xmlns="http://www.w3.org/2000/svg" xmlns:xlink="http://www.w3.org/1999/xlink" x="0px" y="0px"
	 width="40px" height="40px" viewBox="314.334 79.187 40 40" enable-background="new 314.334 79.187 40 40" xml:space="preserve">
<linearGradient id="SVGID_1_" gradientUnits="userSpaceOnUse" x1="314.584" y1="99.1865" x2="354.084" y2="99.1865">
	<stop  offset="0" style="stop-color:#3AABDF"/>
	<stop  offset="1" style="stop-color:#63BD5E"/>
</linearGradient>
<path fill="url(#SVGID_1_)" d="M352.13,106.086h-0.422V87.961c0-1.741-1.416-3.157-3.157-3.157h-28.435
	c-1.74,0-3.156,1.416-3.156,3.157v18.125h-0.423c-1.077,0-1.953,0.876-1.953,1.953v3.576c0,1.077,0.876,1.954,1.953,1.954h35.593
	c1.077,0,1.954-0.877,1.954-1.954v-3.576C354.084,106.962,353.207,106.086,352.13,106.086z M319.46,87.961
	c0-0.356,0.301-0.657,0.656-0.657h28.435c0.356,0,0.657,0.301,0.657,0.657v18.125h-10.967c-0.66,0-1.201,0.513-1.247,1.161h-5.32
	c-0.046-0.648-0.587-1.161-1.247-1.161H319.46V87.961z M351.584,111.069h-34.5v-2.483h12.121c0.132,0.661,0.718,1.161,1.418,1.161
	h7.422c0.7,0,1.286-0.5,1.418-1.161h12.121V111.069z M333.084,92.82v-2.354c0-0.69,0.56-1.25,1.25-1.25s1.25,0.56,1.25,1.25v2.354
	c0,0.69-0.56,1.25-1.25,1.25S333.084,93.511,333.084,92.82z M329.046,93.174c-0.488-0.488-0.488-1.279,0-1.768s1.279-0.488,1.768,0
	l1.664,1.664c0.488,0.488,0.488,1.279,0,1.768c-0.244,0.244-0.563,0.366-0.884,0.366s-0.64-0.122-0.884-0.366L329.046,93.174z
	 M330.458,97.944h-2.354c-0.69,0-1.25-0.56-1.25-1.25s0.56-1.25,1.25-1.25h2.354c0.69,0,1.25,0.56,1.25,1.25
	S331.148,97.944,330.458,97.944z M330.813,101.982c-0.244,0.244-0.563,0.366-0.884,0.366s-0.64-0.122-0.884-0.366
	c-0.488-0.488-0.488-1.279,0-1.768l1.664-1.664c0.488-0.488,1.279-0.488,1.768,0s0.488,1.279,0,1.768L330.813,101.982z
	 M333.084,102.925v-2.354c0-0.69,0.56-1.25,1.25-1.25s1.25,0.56,1.25,1.25v2.354c0,0.69-0.56,1.25-1.25,1.25
	S333.084,103.615,333.084,102.925z M336.19,100.318c-0.488-0.488-0.488-1.279,0-1.768s1.279-0.488,1.768,0l1.664,1.664
	c0.488,0.488,0.488,1.279,0,1.768c-0.244,0.244-0.563,0.366-0.884,0.366s-0.64-0.122-0.884-0.366L336.19,100.318z M336.96,96.694
	c0-0.69,0.56-1.25,1.25-1.25h2.353c0.69,0,1.25,0.56,1.25,1.25s-0.56,1.25-1.25,1.25h-2.353
	C337.52,97.944,336.96,97.385,336.96,96.694z"/>
</svg>
