<?xml version="1.0" encoding="utf-8"?>
<!-- Generator: Adobe Illustrator 26.0.3, SVG Export Plug-In . SVG Version: 6.00 Build 0)  -->
<svg version="1.1" id="Layer_1" xmlns="http://www.w3.org/2000/svg" xmlns:xlink="http://www.w3.org/1999/xlink" x="0px" y="0px"
	 width="40px" height="40px" viewBox="261.957 66.603 40 40" enable-background="new 261.957 66.603 40 40" xml:space="preserve">
<linearGradient id="SVGID_1_" gradientUnits="userSpaceOnUse" x1="262.2065" y1="85.9575" x2="301.707" y2="85.9575">
	<stop  offset="0" style="stop-color:#3AABDF"/>
	<stop  offset="1" style="stop-color:#63BD5E"/>
</linearGradient>
<path fill="url(#SVGID_1_)" d="M289.516,72.723v-0.802c0-1.785-1.452-3.237-3.237-3.237s-3.237,1.452-3.236,3.21
	c-0.007,0.338-0.012,0.602-0.013,0.831c-6.95,1.497-12.178,7.685-12.178,15.077c0,8.507,6.92,15.428,15.427,15.428
	s15.428-6.921,15.428-15.428C301.707,80.406,296.473,74.215,289.516,72.723z M285.542,71.921c0-0.406,0.331-0.737,0.737-0.737
	s0.737,0.331,0.737,0.737v0.491c-0.246-0.012-0.488-0.037-0.737-0.037c-0.252,0-0.497,0.026-0.746,0.038
	C285.537,72.159,285.542,71.936,285.542,71.921z M287.529,100.667v-1.162c0-0.69-0.56-1.25-1.25-1.25s-1.25,0.56-1.25,1.25v1.162
	c-6.132-0.591-11.022-5.483-11.614-11.614h1.162c0.69,0,1.25-0.56,1.25-1.25s-0.56-1.25-1.25-1.25h-1.162
	c0.591-6.132,5.482-11.023,11.614-11.614v1.162c0,0.69,0.56,1.25,1.25,1.25s1.25-0.56,1.25-1.25v-1.162
	c6.132,0.591,11.023,5.482,11.614,11.614h-1.162c-0.69,0-1.25,0.56-1.25,1.25s0.56,1.25,1.25,1.25h1.162
	C298.552,95.184,293.661,100.076,287.529,100.667z M293.37,87.803c0,0.69-0.56,1.25-1.25,1.25h-5.841c-0.69,0-1.25-0.56-1.25-1.25
	v-8.116c0-0.69,0.56-1.25,1.25-1.25s1.25,0.56,1.25,1.25v6.866h4.591C292.811,86.553,293.37,87.112,293.37,87.803z M265.203,82.489
	c0-0.69,0.56-1.25,1.25-1.25h3.275c0.69,0,1.25,0.56,1.25,1.25s-0.56,1.25-1.25,1.25h-3.275
	C265.763,83.739,265.203,83.179,265.203,82.489z M269.081,88.733h-5.624c-0.69,0-1.25-0.56-1.25-1.25s0.56-1.25,1.25-1.25h5.624
	c0.69,0,1.25,0.56,1.25,1.25S269.771,88.733,269.081,88.733z M270.815,92.478c0,0.69-0.56,1.25-1.25,1.25h-4.111
	c-0.69,0-1.25-0.56-1.25-1.25s0.56-1.25,1.25-1.25h4.111C270.256,91.228,270.815,91.787,270.815,92.478z"/>
</svg>
