<?xml version="1.0" encoding="utf-8"?>
<!-- Generator: Adobe Illustrator 26.0.3, SVG Export Plug-In . SVG Version: 6.00 Build 0)  -->
<svg version="1.1" id="_x2018_ëîé_x5F_1" xmlns="http://www.w3.org/2000/svg" xmlns:xlink="http://www.w3.org/1999/xlink"
	 x="0px" y="0px" width="80px" height="80px" viewBox="0 0 80 80" enable-background="new 0 0 80 80" xml:space="preserve">
<g>
	<g>
		<path fill="#333333" d="M18.892,18.547c-4.61,0-7.708-3.626-7.708-9.024c0-5.397,3.098-9.023,7.708-9.023S26.6,4.126,26.6,9.523
			C26.601,14.921,23.502,18.547,18.892,18.547z M18.892,2.753c-4.022,0-5.455,3.497-5.455,6.77s1.433,6.77,5.455,6.77
			s5.455-3.498,5.455-6.77C24.347,6.251,22.914,2.753,18.892,2.753z"/>
		<g>
			<path fill="#333333" d="M31.274,79.531c-0.475,0-0.917-0.303-1.071-0.779l-8.367-25.797c-0.192-0.592,0.132-1.227,0.724-1.419
				c0.595-0.191,1.227,0.132,1.419,0.724l8.367,25.797c0.192,0.592-0.132,1.227-0.723,1.419
				C31.506,79.513,31.389,79.531,31.274,79.531z"/>
			<path fill="#333333" d="M21.849,80c-0.458,0-0.889-0.282-1.057-0.737l-9.456-25.661c-0.543-1.476-0.818-3.021-0.818-4.595v-5.413
				c0-0.622,0.505-1.127,1.127-1.127c0.622,0,1.127,0.505,1.127,1.127v5.413c0,1.307,0.229,2.591,0.68,3.816l9.456,25.661
				c0.216,0.583-0.084,1.231-0.668,1.447C22.11,79.977,21.978,80,21.849,80z"/>
			<path fill="#333333" d="M11.645,37.743c-0.622,0-1.127-0.505-1.127-1.127V31.3c0-0.622,0.505-1.127,1.127-1.127
				c0.622,0,1.127,0.505,1.127,1.127v5.316C12.772,37.238,12.267,37.743,11.645,37.743z"/>
			<path fill="#333333" d="M34.947,42.045c-0.243,0-0.482-0.08-0.68-0.228L27.38,36.61c-0.496-0.376-0.594-1.082-0.22-1.578
				c0.376-0.497,1.08-0.594,1.578-0.22l6.502,4.916l7.196-1.19c0.614-0.099,1.193,0.314,1.296,0.928
				c0.101,0.614-0.314,1.193-0.928,1.296l-7.673,1.268C35.07,42.04,35.008,42.045,34.947,42.045z"/>
			<path fill="#333333" d="M16.123,44.721H4.666c-1.547,0-2.989-0.764-3.859-2.043c-0.87-1.28-1.048-2.903-0.479-4.341l5.036-12.719
				c1.13-2.853,3.843-4.697,6.913-4.697h12.754c2.691,0,5.237,1.302,6.812,3.483l5.335,7.866l6.723-0.963
				c1.521-0.222,3.048,0.34,4.074,1.495c0.412,0.465,0.371,1.178-0.094,1.59c-0.464,0.412-1.178,0.373-1.591-0.094
				c-0.522-0.587-1.292-0.869-2.07-0.76L36.801,34.6c-0.43,0.064-0.851-0.126-1.092-0.482l-5.711-8.421
				c-1.134-1.569-2.997-2.522-4.967-2.522H12.276c-2.139,0-4.03,1.285-4.818,3.273L2.423,39.166
				c-0.299,0.755-0.209,1.573,0.248,2.245c0.456,0.672,1.184,1.056,1.995,1.056h11.457c1.298,0,2.362-1.056,2.371-2.355
				c0.004-0.638-0.241-1.238-0.692-1.69c-0.45-0.452-1.097-0.714-1.687-0.697l-6.565,0.024c-0.002,0-0.003,0-0.004,0
				c-0.62,0-1.124-0.502-1.127-1.122c-0.002-0.623,0.5-1.129,1.122-1.131l6.565-0.024c0.006,0,0.012,0,0.018,0
				c1.238,0,2.4,0.482,3.273,1.358c0.878,0.881,1.358,2.051,1.35,3.295C20.73,42.661,18.655,44.721,16.123,44.721z"/>
			<path fill="#333333" d="M27.83,68.645c-0.361,0-0.716-0.173-0.933-0.494c-0.35-0.515-0.215-1.215,0.3-1.565l6.235-4.232
				c1.572-1.066,2.016-3.166,1.013-4.78l-6.228-10.005c-0.091-0.146-0.147-0.312-0.165-0.485l-1.549-15.673
				c-0.061-0.619,0.392-1.171,1.011-1.231c0.623-0.062,1.172,0.392,1.231,1.011l1.523,15.411l6.09,9.782
				c1.646,2.644,0.916,6.086-1.661,7.835l-6.235,4.232C28.268,68.582,28.049,68.645,27.83,68.645z"/>
			<path fill="#333333" d="M13.563,78.33c-0.361,0-0.715-0.173-0.933-0.494c-0.35-0.515-0.216-1.215,0.299-1.564l6.128-4.16
				c0.514-0.351,1.215-0.217,1.564,0.299c0.35,0.515,0.216,1.215-0.299,1.564l-6.128,4.16C14.001,78.267,13.781,78.33,13.563,78.33z
				"/>
			<path fill="#333333" d="M10.14,71.874c-0.333,0-0.664-0.147-0.886-0.43c-0.385-0.489-0.3-1.197,0.189-1.582l6.553-5.154
				c0.488-0.384,1.197-0.3,1.582,0.189c0.385,0.489,0.3,1.197-0.189,1.582l-6.553,5.154C10.628,71.796,10.383,71.874,10.14,71.874z"
				/>
		</g>
	</g>
	
		<linearGradient id="SVGID_1_" gradientUnits="userSpaceOnUse" x1="37.5148" y1="20.3003" x2="67.6911" y2="20.3003" gradientTransform="matrix(1 0 0 -1 0 80)">
		<stop  offset="0" style="stop-color:#3BAADD"/>
		<stop  offset="1" style="stop-color:#66BD5E"/>
	</linearGradient>
	
		<path fill="none" stroke="url(#SVGID_1_)" stroke-width="2.7637" stroke-linecap="round" stroke-linejoin="round" stroke-miterlimit="10" d="
		M61.038,47.575h-16.87c-2.911,0-5.272,2.36-5.272,5.272v13.706c0,2.912,2.36,5.272,5.272,5.272h16.869
		c2.912,0,5.272-2.36,5.272-5.272V52.847C66.31,49.935,63.949,47.575,61.038,47.575z M54.976,64.312c0,1.31-1.062,2.372-2.372,2.372
		c-1.311,0-2.372-1.062-2.372-2.372v-4.554c-0.446-0.537-0.724-1.217-0.724-1.97c0-1.71,1.386-3.097,3.098-3.097
		c1.71,0,3.097,1.387,3.097,3.097c0,0.751-0.279,1.433-0.724,1.97L54.976,64.312L54.976,64.312z"/>
	
		<linearGradient id="SVGID_00000021803591735850747100000008077536007660615864_" gradientUnits="userSpaceOnUse" x1="42.0443" y1="42.0664" x2="63.0831" y2="42.0664" gradientTransform="matrix(1 0 0 -1 0 80)">
		<stop  offset="0" style="stop-color:#3BAADD"/>
		<stop  offset="1" style="stop-color:#66BD5E"/>
	</linearGradient>
	
		<path fill="none" stroke="url(#SVGID_00000021803591735850747100000008077536007660615864_)" stroke-width="2.7637" stroke-linecap="round" stroke-linejoin="round" stroke-miterlimit="10" d="
		M43.426,43.255c0-6.281,4.091-10.643,9.138-10.643s9.138,4.362,9.138,10.643"/>
</g>
</svg>
