<?xml version="1.0" encoding="utf-8"?>
<!-- Generator: Adobe Illustrator 26.0.3, SVG Export Plug-In . SVG Version: 6.00 Build 0)  -->
<svg version="1.1" id="_x2018_ëîé_x5F_1" xmlns="http://www.w3.org/2000/svg" xmlns:xlink="http://www.w3.org/1999/xlink"
	 x="0px" y="0px" width="80px" height="80px" viewBox="0 0 80 80" enable-background="new 0 0 80 80" xml:space="preserve">
<g>
	<g>
		<path fill="#333333" d="M62.187,45.686c-4.508,0-7.536-3.546-7.536-8.823c0-5.277,3.028-8.823,7.536-8.823
			c4.509,0,7.537,3.546,7.537,8.823C69.724,42.141,66.696,45.686,62.187,45.686z M62.187,30.244c-3.932,0-5.333,3.419-5.333,6.62
			c0,3.2,1.401,6.62,5.333,6.62c3.933,0,5.334-3.42,5.334-6.62C67.521,33.663,66.121,30.244,62.187,30.244z"/>
		<g>
			<path fill="#333333" d="M69.454,79.816H50.727c-0.609,0-1.102-0.493-1.102-1.102v-1.49c0-2.74,2.05-5.064,4.77-5.404
				l12.856-1.606v-8.942c0-0.609,0.493-1.102,1.102-1.102c0.609,0,1.102,0.493,1.102,1.102v9.915c0,0.555-0.414,1.024-0.965,1.093
				l-13.821,1.727c-1.619,0.202-2.84,1.586-2.84,3.218v0.388h17.626c2.66,0,5.508-1.96,5.508-4.878V59.069
				c0.011-1.975-0.705-3.741-2.07-5.113c-1.643-1.651-4.1-2.598-6.743-2.598H46.321c-0.609,0-1.102-0.493-1.102-1.102
				c0-0.609,0.493-1.102,1.102-1.102H66.15c3.225,0,6.253,1.183,8.305,3.248c1.788,1.798,2.725,4.105,2.711,6.673v13.659
				C77.166,76.574,73.634,79.816,69.454,79.816z"/>
			<path fill="#333333" d="M53.56,59.674h-9.316c-2.468,0-4.625-1.581-5.367-3.935l-2.891-9.727
				c-0.397-1.338-0.146-2.748,0.689-3.866c0.835-1.119,2.114-1.76,3.509-1.76c1.803,0,3.4,1.081,4.068,2.756l2.667,8.364
				c0.184,0.58-0.136,1.2-0.715,1.385c-0.584,0.184-1.2-0.137-1.385-0.715l-2.64-8.291c-0.304-0.758-1.098-1.295-1.995-1.295
				c-0.693,0-1.329,0.318-1.744,0.875c-0.414,0.556-0.539,1.255-0.341,1.92l2.885,9.71c0.445,1.415,1.758,2.378,3.26,2.378h9.316
				c0.609,0,1.102,0.493,1.102,1.102C54.661,59.181,54.168,59.674,53.56,59.674z"/>
			<path fill="#333333" d="M54.931,73.966c-0.578,0-1.063-0.451-1.098-1.035l-0.9-14.896c-0.037-0.608,0.426-1.13,1.033-1.166
				c0.612-0.027,1.13,0.426,1.166,1.033l0.9,14.897c0.037,0.608-0.426,1.13-1.033,1.166C54.976,73.965,54.954,73.966,54.931,73.966z
				"/>
		</g>
	</g>
	<g>
		<path fill="#333333" d="M8.713,50.277c-4.509,0-7.537-3.546-7.537-8.824c0-5.278,3.028-8.824,7.537-8.824
			c4.508,0,7.536,3.546,7.536,8.824C16.249,46.731,13.221,50.277,8.713,50.277z M8.713,34.833c-3.933,0-5.334,3.42-5.334,6.62
			c0,3.2,1.401,6.62,5.334,6.62c3.932,0,5.333-3.42,5.333-6.62C14.046,38.253,12.645,34.833,8.713,34.833z"/>
		<g>
			<path fill="#333333" d="M1.102,80c-0.005,0-0.012,0-0.018,0C0.476,79.99-0.01,79.489,0,78.88l0.326-19.958
				c0.056-3.394,2.863-6.169,6.257-6.186l2.584-0.008c1.967,0.008,3.552,0.55,4.681,1.672c1.333,1.324,2.003,3.366,2.044,6.234
				l5.542,10.05l8.095,0.604c2.88,0.215,5.135,2.644,5.135,5.532l0.043,1.873c0.006,0.296-0.106,0.583-0.314,0.795
				c-0.207,0.212-0.491,0.331-0.787,0.331l0,0l-17.029-0.003c-0.358,0-0.695-0.174-0.9-0.467L7.522,67.768
				c-0.351-0.498-0.231-1.186,0.266-1.535c0.5-0.349,1.185-0.231,1.535,0.266l7.825,11.114l15.331,0.003l-0.018-0.771
				c0-1.765-1.36-3.23-3.095-3.36l-8.69-0.648c-0.371-0.028-0.704-0.241-0.883-0.566l-5.965-10.818
				c-0.089-0.162-0.137-0.345-0.137-0.531c0-2.37-0.47-4.038-1.396-4.959c-0.706-0.701-1.728-1.021-3.118-1.031l-2.585,0.008
				c-2.203,0.011-4.027,1.814-4.062,4.019L2.203,78.917C2.194,79.518,1.702,80,1.102,80z"/>
			<path fill="#333333" d="M16.859,65.774c-0.586,0-1.074-0.463-1.099-1.054c-0.026-0.608,0.445-1.122,1.053-1.148l6.986-0.302
				l8.486-4.757c0.833-0.587,1.088-1.842,0.488-2.797c-0.3-0.48-0.77-0.813-1.322-0.938c-0.553-0.126-1.121-0.027-1.598,0.276
				l-6.407,4.067c-0.27,0.171-0.601,0.217-0.908,0.125l-9.699-2.92c-0.583-0.175-0.913-0.791-0.738-1.373
				c0.176-0.582,0.789-0.911,1.373-0.738l9.217,2.774l5.981-3.795c0.978-0.621,2.139-0.822,3.265-0.565
				c1.128,0.255,2.089,0.936,2.703,1.916c1.222,1.951,0.701,4.513-1.187,5.832l-8.806,4.943c-0.151,0.085-0.32,0.132-0.492,0.14
				l-7.249,0.313C16.891,65.774,16.875,65.774,16.859,65.774z"/>
		</g>
	</g>
</g>
<linearGradient id="SVGID_1_" gradientUnits="userSpaceOnUse" x1="21.6971" y1="23.6303" x2="48.8334" y2="23.6303">
	<stop  offset="0" style="stop-color:#3AABDF"/>
	<stop  offset="1" style="stop-color:#63BD5E"/>
</linearGradient>
<path fill="url(#SVGID_1_)" d="M28.532,36.664c-0.552,0-1.101-0.173-1.57-0.513c-0.829-0.603-1.238-1.606-1.064-2.616l1.048-6.109
	l-4.44-4.327c-0.734-0.716-0.994-1.766-0.677-2.742c0.316-0.975,1.144-1.673,2.159-1.821l6.134-0.891l2.744-5.559
	c0.453-0.919,1.373-1.491,2.398-1.491c1.025,0,1.945,0.571,2.398,1.491l2.743,5.559l6.134,0.891c1.016,0.148,1.843,0.845,2.159,1.82
	c0.317,0.975,0.058,2.026-0.676,2.742l-4.44,4.327l1.048,6.109c0.174,1.011-0.234,2.013-1.064,2.616
	c-0.831,0.603-1.908,0.682-2.816,0.203l-5.487-2.884l-5.487,2.885C29.384,36.562,28.957,36.664,28.532,36.664z M35.266,12.799
	c-0.11,0-0.31,0.034-0.423,0.263l-3,6.079c-0.16,0.325-0.47,0.55-0.829,0.602l-6.708,0.975c-0.252,0.037-0.346,0.217-0.38,0.321
	c-0.034,0.104-0.063,0.306,0.119,0.483l4.854,4.731c0.259,0.253,0.378,0.618,0.316,0.975l-1.146,6.68
	c-0.043,0.252,0.099,0.397,0.188,0.462c0.088,0.064,0.27,0.154,0.495,0.036l6-3.155c0.323-0.169,0.704-0.169,1.026,0l6,3.154
	c0.225,0.118,0.407,0.029,0.495-0.035c0.089-0.065,0.231-0.21,0.188-0.462l-1.146-6.68c-0.061-0.357,0.057-0.722,0.316-0.975
	l4.854-4.731c0.183-0.178,0.153-0.379,0.119-0.483c-0.034-0.104-0.129-0.284-0.381-0.321l-6.708-0.975
	c-0.359-0.052-0.669-0.278-0.829-0.603l-2.999-6.078l0,0C35.576,12.833,35.375,12.799,35.266,12.799z"/>
<g>
	
		<linearGradient id="SVGID_00000012462771851630826380000017082821224276606088_" gradientUnits="userSpaceOnUse" x1="34.1662" y1="3.5676" x2="36.3695" y2="3.5676">
		<stop  offset="0" style="stop-color:#3AABDF"/>
		<stop  offset="1" style="stop-color:#63BD5E"/>
	</linearGradient>
	<path fill="url(#SVGID_00000012462771851630826380000017082821224276606088_)" d="M35.268,6.635c-0.609,0-1.102-0.493-1.102-1.102
		V1.602c0-0.608,0.493-1.102,1.102-1.102c0.609,0,1.102,0.493,1.102,1.102v3.932C36.369,6.142,35.877,6.635,35.268,6.635z"/>
	
		<linearGradient id="SVGID_00000005968453362742640730000007524092830705543301_" gradientUnits="userSpaceOnUse" x1="43.2102" y1="8.2308" x2="47.3882" y2="8.2308">
		<stop  offset="0" style="stop-color:#3AABDF"/>
		<stop  offset="1" style="stop-color:#63BD5E"/>
	</linearGradient>
	<path fill="url(#SVGID_00000005968453362742640730000007524092830705543301_)" d="M44.311,11.037c-0.187,0-0.378-0.048-0.551-0.148
		c-0.526-0.304-0.707-0.978-0.401-1.505l1.974-3.41c0.306-0.527,0.98-0.707,1.505-0.401c0.527,0.304,0.707,0.978,0.401,1.505
		l-1.974,3.41C45.061,10.841,44.691,11.037,44.311,11.037z"/>
	
		<linearGradient id="SVGID_00000067195520397224044420000017388414615551422339_" gradientUnits="userSpaceOnUse" x1="50.3858" y1="15.4388" x2="56.2353" y2="15.4388">
		<stop  offset="0" style="stop-color:#3AABDF"/>
		<stop  offset="1" style="stop-color:#63BD5E"/>
	</linearGradient>
	<path fill="url(#SVGID_00000067195520397224044420000017388414615551422339_)" d="M51.486,16.998c-0.493,0-0.941-0.333-1.067-0.833
		c-0.148-0.59,0.21-1.188,0.799-1.337l3.646-0.917c0.591-0.146,1.189,0.209,1.337,0.8c0.148,0.59-0.21,1.188-0.799,1.337
		l-3.646,0.917C51.666,16.988,51.576,16.998,51.486,16.998z"/>
</g>
<g>
	
		<linearGradient id="SVGID_00000044139013987470773760000005196243539738219418_" gradientUnits="userSpaceOnUse" x1="23.0993" y1="8.2064" x2="27.3621" y2="8.2064">
		<stop  offset="0" style="stop-color:#3AABDF"/>
		<stop  offset="1" style="stop-color:#63BD5E"/>
	</linearGradient>
	<path fill="url(#SVGID_00000044139013987470773760000005196243539738219418_)" d="M26.261,10.989c-0.371,0-0.733-0.187-0.94-0.526
		l-2.059-3.361c-0.318-0.519-0.155-1.197,0.364-1.515c0.521-0.319,1.197-0.155,1.515,0.364l2.059,3.361
		c0.318,0.519,0.155,1.197-0.364,1.515C26.656,10.937,26.457,10.989,26.261,10.989z"/>
	
		<linearGradient id="SVGID_00000175320168690904319650000010076948668271491233_" gradientUnits="userSpaceOnUse" x1="14.0881" y1="15.2712" x2="20.1858" y2="15.2712">
		<stop  offset="0" style="stop-color:#3AABDF"/>
		<stop  offset="1" style="stop-color:#63BD5E"/>
	</linearGradient>
	<path fill="url(#SVGID_00000175320168690904319650000010076948668271491233_)" d="M19.084,16.95c-0.103,0-0.209-0.015-0.313-0.046
		l-3.893-1.154c-0.583-0.173-0.917-0.786-0.743-1.37c0.173-0.583,0.786-0.913,1.37-0.743l3.893,1.154
		c0.583,0.173,0.917,0.786,0.743,1.37C19.998,16.64,19.559,16.95,19.084,16.95z"/>
</g>
<path fill="#333333" d="M50.727,79.816H33.101c-0.609,0-1.102-0.493-1.102-1.102c0-0.609,0.493-1.102,1.102-1.102h17.626
	c0.609,0,1.102,0.493,1.102,1.102C51.829,79.323,51.336,79.816,50.727,79.816z"/>
</svg>
