<?xml version="1.0" encoding="utf-8"?>
<!-- Generator: Adobe Illustrator 16.0.3, SVG Export Plug-In . SVG Version: 6.00 Build 0)  -->
<!DOCTYPE svg PUBLIC "-//W3C//DTD SVG 1.1//EN" "http://www.w3.org/Graphics/SVG/1.1/DTD/svg11.dtd">
<svg version="1.1" id="Layer_1" xmlns="http://www.w3.org/2000/svg" xmlns:xlink="http://www.w3.org/1999/xlink" x="0px" y="0px"
	 width="40px" height="40px" viewBox="314.334 79.187 40 40" enable-background="new 314.334 79.187 40 40" xml:space="preserve">
<linearGradient id="SVGID_1_" gradientUnits="userSpaceOnUse" x1="314.7178" y1="99.1865" x2="353.9502" y2="99.1865">
	<stop  offset="0" style="stop-color:#3AABDF"/>
	<stop  offset="1" style="stop-color:#63BD5E"/>
</linearGradient>
<path fill="url(#SVGID_1_)" d="M351.619,108.875h-5.401c-1.286,0-2.332,1.045-2.332,2.33v5.4c0,1.285,1.046,2.331,2.332,2.331h5.401
	c1.285,0,2.331-1.046,2.331-2.331v-5.4C353.95,109.92,352.904,108.875,351.619,108.875z M351.45,116.437h-5.064v-5.062h5.064
	V116.437z M337.033,108.875h-5.402c-1.283,0-2.328,1.045-2.328,2.33v5.4c0,1.285,1.045,2.331,2.328,2.331h5.402
	c1.285,0,2.331-1.046,2.331-2.331v-5.4C339.364,109.92,338.318,108.875,337.033,108.875z M336.864,116.437h-5.062v-5.062h5.062
	V116.437z M329.721,94.854h9.226c1.708,0,3.098-1.389,3.098-3.096v-9.226c0-1.707-1.39-3.096-3.098-3.096h-9.226
	c-1.707,0-3.097,1.389-3.097,3.096v9.226C326.624,93.465,328.014,94.854,329.721,94.854z M329.124,82.532
	c0-0.329,0.268-0.596,0.597-0.596h9.226c0.329,0,0.598,0.267,0.598,0.596v9.226c0,0.328-0.269,0.596-0.598,0.596h-9.226
	c-0.329,0-0.597-0.268-0.597-0.596V82.532z M322.449,108.875h-5.402c-1.284,0-2.329,1.045-2.329,2.33v5.4
	c0,1.285,1.045,2.331,2.329,2.331h5.402c1.285,0,2.331-1.046,2.331-2.331v-5.4C324.78,109.92,323.734,108.875,322.449,108.875z
	 M322.28,116.437h-5.063v-5.062h5.063V116.437z M318.499,106.883v-5.132c0-0.69,0.56-1.25,1.25-1.25h13.335v-3.072
	c0-0.69,0.56-1.25,1.25-1.25s1.25,0.56,1.25,1.25v3.072h13.333c0.69,0,1.25,0.56,1.25,1.25v5.132c0,0.69-0.56,1.25-1.25,1.25
	s-1.25-0.56-1.25-1.25v-3.882h-12.083v3.882c0,0.69-0.56,1.25-1.25,1.25s-1.25-0.56-1.25-1.25v-3.882h-12.085v3.882
	c0,0.69-0.56,1.25-1.25,1.25S318.499,107.573,318.499,106.883z"/>
</svg>
