<?xml version="1.0" encoding="utf-8"?>
<!-- Generator: Adobe Illustrator 26.0.3, SVG Export Plug-In . SVG Version: 6.00 Build 0)  -->
<svg version="1.1" id="Layer_1" xmlns="http://www.w3.org/2000/svg" xmlns:xlink="http://www.w3.org/1999/xlink" x="0px" y="0px"
	 width="40px" height="40px" viewBox="312.772 66.603 40 40" enable-background="new 312.772 66.603 40 40" xml:space="preserve">
<linearGradient id="SVGID_1_" gradientUnits="userSpaceOnUse" x1="313.0217" y1="86.6032" x2="352.5214" y2="86.6032">
	<stop  offset="0" style="stop-color:#3AABDF"/>
	<stop  offset="1" style="stop-color:#63BD5E"/>
</linearGradient>
<path fill="url(#SVGID_1_)" d="M352.521,86.603c0,0.32-0.122,0.64-0.366,0.884l-9.645,9.645c-0.244,0.244-0.564,0.366-0.884,0.366
	s-0.64-0.122-0.884-0.366c-0.488-0.488-0.488-1.279,0-1.768l8.761-8.761l-8.761-8.761c-0.488-0.488-0.488-1.279,0-1.768
	s1.279-0.488,1.768,0l9.645,9.645C352.399,85.963,352.521,86.283,352.521,86.603z M324.801,76.074c-0.488-0.488-1.279-0.488-1.768,0
	l-9.645,9.645c-0.244,0.244-0.366,0.564-0.366,0.884c0,0.32,0.122,0.64,0.366,0.884l9.645,9.645
	c0.244,0.244,0.564,0.366,0.884,0.366s0.64-0.122,0.884-0.366c0.488-0.488,0.488-1.279,0-1.768l-8.761-8.761l8.761-8.761
	C325.289,77.353,325.289,76.562,324.801,76.074z M337.687,69.587c-0.663-0.174-1.352,0.217-1.531,0.884l-8.471,31.616
	c-0.179,0.667,0.217,1.352,0.884,1.53c0.108,0.029,0.217,0.043,0.325,0.043c0.552,0,1.057-0.368,1.207-0.927l8.471-31.615
	C338.749,70.452,338.353,69.766,337.687,69.587z"/>
</svg>
