<?xml version="1.0" encoding="utf-8"?>
<!-- Generator: Adobe Illustrator 26.0.3, SVG Export Plug-In . SVG Version: 6.00 Build 0)  -->
<svg version="1.1" id="Layer_1" xmlns="http://www.w3.org/2000/svg" xmlns:xlink="http://www.w3.org/1999/xlink" x="0px" y="0px"
	 width="40px" height="40px" viewBox="312.772 66.603 40 40" enable-background="new 312.772 66.603 40 40" xml:space="preserve">
<g>
	<linearGradient id="SVGID_1_" gradientUnits="userSpaceOnUse" x1="322.7129" y1="86.6861" x2="346.3743" y2="86.6861">
		<stop  offset="0" style="stop-color:#3AABDF"/>
		<stop  offset="1" style="stop-color:#63BD5E"/>
	</linearGradient>
	<path fill="url(#SVGID_1_)" d="M343.237,92.699c-0.289,0-0.564,0.052-0.83,0.126c-0.433-1.215-1.583-2.092-2.945-2.092
		c-0.711,0-1.361,0.247-1.887,0.647c-0.527-0.4-1.176-0.647-1.887-0.647c-0.217,0-0.429,0.022-0.634,0.065v-0.616
		c2.195-0.57,5.335-1.99,7.342-5.535c1.503-2.655,1.983-5.73,1.352-8.66c-0.637-2.962-2.26-5.392-4.691-7.09
		c-0.169-1.052-1.076-1.861-2.176-1.861c-1.219,0-2.211,0.992-2.211,2.211s0.992,2.211,2.211,2.211c0.391,0,0.753-0.111,1.072-0.289
		c1.744,1.322,2.87,3.115,3.35,5.344c0.502,2.331,0.117,4.782-1.083,6.903c-1.362,2.407-3.371,3.586-5.167,4.163v-1.521
		c2.692-1.211,4.46-3.869,4.46-6.876c0-4.17-3.392-7.562-7.562-7.562c-4.17,0-7.562,3.393-7.562,7.562
		c0,2.969,1.741,5.615,4.389,6.843v10.626l-0.356-0.509c-0.48-0.686-1.2-1.144-2.025-1.289c-0.827-0.146-1.658,0.039-2.344,0.52
		c-0.686,0.48-1.145,1.2-1.29,2.025c-0.146,0.825,0.039,1.658,0.509,2.33l4.111,6.061c0.242,0.356,0.635,0.549,1.036,0.549
		c0.242,0,0.486-0.069,0.701-0.216c0.571-0.387,0.72-1.164,0.333-1.736l-4.122-6.076c-0.098-0.14-0.135-0.31-0.106-0.477
		c0.03-0.168,0.123-0.313,0.263-0.412c0.189-0.132,0.379-0.122,0.476-0.105c0.168,0.029,0.314,0.123,0.412,0.262l2.625,3.749
		c0.028,0.04,0.07,0.061,0.101,0.096c0.04,0.045,0.082,0.082,0.127,0.121c0.081,0.069,0.163,0.128,0.257,0.173
		c0.048,0.024,0.097,0.039,0.148,0.057c0.105,0.035,0.207,0.058,0.318,0.064c0.027,0.002,0.05,0.016,0.078,0.016
		c0.033,0,0.061-0.016,0.093-0.019c0.1-0.008,0.195-0.027,0.293-0.059c0.07-0.023,0.134-0.052,0.199-0.087
		c0.041-0.022,0.088-0.028,0.127-0.055c0.033-0.023,0.05-0.059,0.081-0.085c0.065-0.054,0.119-0.114,0.171-0.18
		c0.047-0.06,0.09-0.119,0.125-0.186c0.041-0.077,0.068-0.156,0.093-0.241c0.02-0.071,0.036-0.138,0.043-0.211
		c0.005-0.044,0.026-0.082,0.026-0.127V84.228c0-0.352,0.286-0.638,0.638-0.638c0.352,0,0.638,0.286,0.638,0.638v9.608
		c0,0.012-0.003,0.022-0.003,0.034v4.576c0,0.006,0.003,0.011,0.003,0.017v2.139c0,0.69,0.56,1.25,1.25,1.25s1.25-0.56,1.25-1.25
		v-6.749c0.009-0.343,0.289-0.621,0.634-0.621c0.351,0,0.636,0.285,0.637,0.636c0,0.001,0,0.001,0,0.002v4.576
		c0,0.69,0.56,1.25,1.25,1.25h0h0c0.69,0,1.25-0.56,1.25-1.25V93.87c0-0.001,0-0.001,0-0.002c0.001-0.351,0.286-0.636,0.638-0.636
		c0.352,0,0.637,0.286,0.637,0.638v4.576c0,0.69,0.56,1.25,1.25,1.25s1.25-0.56,1.25-1.25v-0.981c0-0.001,0-0.002,0-0.002v-1.627
		c0-0.352,0.286-0.637,0.637-0.637c0.352,0,0.638,0.285,0.638,0.637v8.51c0,0.69,0.56,1.25,1.25,1.25s1.25-0.56,1.25-1.25v-8.51
		C346.374,94.106,344.967,92.699,343.237,92.699z M336.598,69.261c0-0.006-0.006-0.009-0.006-0.015c0-0.081,0.034-0.153,0.087-0.205
		C336.646,69.114,336.616,69.186,336.598,69.261z M334.896,83.298c-0.399-1.274-1.577-2.207-2.981-2.207
		c-1.388,0-2.555,0.913-2.968,2.165c-1.27-0.937-2.059-2.435-2.059-4.074c0-2.792,2.271-5.062,5.062-5.062
		c2.791,0,5.062,2.271,5.062,5.062C337.013,80.852,336.201,82.366,334.896,83.298z"/>
	
		<linearGradient id="SVGID_00000111161240082260762310000013305314530248362128_" gradientUnits="userSpaceOnUse" x1="319.8873" y1="78.6158" x2="333.2197" y2="78.6158">
		<stop  offset="0" style="stop-color:#3AABDF"/>
		<stop  offset="1" style="stop-color:#63BD5E"/>
	</linearGradient>
	<path fill="url(#SVGID_00000111161240082260762310000013305314530248362128_)" d="M323.351,87.413
		c0.188,0.186,0.385,0.364,0.587,0.538c-0.001,0.027-0.008,0.052-0.008,0.079c0,1.22,0.992,2.212,2.212,2.212
		c1.219,0,2.211-0.992,2.211-2.212c0-1.219-0.992-2.211-2.211-2.211c-0.241,0-0.468,0.048-0.686,0.12
		c-0.877-0.787-1.521-1.643-1.974-2.502c-0.039-0.075-0.075-0.152-0.112-0.228c-0.073-0.148-0.142-0.296-0.204-0.444
		c-0.221-0.535-0.401-1.099-0.529-1.697c-0.501-2.331-0.117-4.782,1.084-6.903c2.643-4.67,7.712-4.675,8.168-4.675
		c0.012,0,0.038,0,0.045,0c0.034,0.001,0.062-0.014,0.095-0.016c0.307-0.01,0.59-0.12,0.8-0.32c0.066-0.062,0.108-0.145,0.159-0.22
		c0.038-0.057,0.089-0.103,0.118-0.166c0.044-0.097,0.057-0.209,0.076-0.318c0.01-0.056,0.037-0.104,0.039-0.162
		c0-0.001-0.001-0.002,0-0.003c0-0.002,0.001-0.003,0.001-0.004c0.003-0.095-0.028-0.18-0.046-0.27
		c-0.014-0.072-0.011-0.149-0.036-0.216c-0.033-0.086-0.093-0.154-0.143-0.23c-0.038-0.058-0.064-0.126-0.111-0.176
		c-0.064-0.069-0.148-0.113-0.226-0.166c-0.055-0.037-0.1-0.088-0.16-0.116c-0.086-0.04-0.185-0.048-0.28-0.068
		c-0.068-0.014-0.128-0.046-0.199-0.048c-0.001,0-0.005,0-0.006,0c-0.001,0-0.001,0-0.002,0c-0.002,0-0.013,0-0.019,0
		c-0.315-0.01-3.636-0.05-6.782,2.011c-2.263,1.446-4.412,3.929-5.21,8.201c-0.035,0.2-0.536,3.329,0.917,6.662
		c0.006,0.015,0.013,0.029,0.02,0.043c0.131,0.298,0.278,0.596,0.443,0.895c0.059,0.107,0.121,0.212,0.183,0.317
		c0.114,0.191,0.231,0.381,0.36,0.571c0.124,0.185,0.257,0.364,0.392,0.541c0.083,0.108,0.165,0.216,0.254,0.322
		c0.206,0.25,0.424,0.489,0.652,0.722C323.264,87.322,323.305,87.368,323.351,87.413z"/>
</g>
</svg>
