<?xml version="1.0" encoding="utf-8"?>
<!-- Generator: Adobe Illustrator 26.0.3, SVG Export Plug-In . SVG Version: 6.00 Build 0)  -->
<svg version="1.1" id="Layer_1" xmlns="http://www.w3.org/2000/svg" xmlns:xlink="http://www.w3.org/1999/xlink" x="0px" y="0px"
	 width="40px" height="40px" viewBox="261.957 66.603 40 40" enable-background="new 261.957 66.603 40 40" xml:space="preserve">
<linearGradient id="SVGID_1_" gradientUnits="userSpaceOnUse" x1="267.5122" y1="86.6025" x2="296.4004" y2="86.6025">
	<stop  offset="0" style="stop-color:#3AABDF"/>
	<stop  offset="1" style="stop-color:#63BD5E"/>
</linearGradient>
<path fill="url(#SVGID_1_)" d="M289.959,78.333h-16.006c-3.552,0-6.441,2.889-6.441,6.441v14.887c0,3.552,2.889,6.441,6.441,6.441
	h16.006c3.552,0,6.441-2.89,6.441-6.441V84.774C296.4,81.222,293.511,78.333,289.959,78.333z M293.9,99.661
	c0,2.173-1.768,3.941-3.941,3.941h-16.006c-2.173,0-3.941-1.769-3.941-3.941V84.774c0-2.173,1.768-3.941,3.941-3.941h16.006
	c2.173,0,3.941,1.768,3.941,3.941V99.661z M272.587,75.341v-1.798c0-3.552,2.889-6.441,6.441-6.441h5.857
	c3.552,0,6.441,2.889,6.441,6.441v1.798c0,0.69-0.56,1.25-1.25,1.25s-1.25-0.56-1.25-1.25v-1.798c0-2.173-1.768-3.941-3.941-3.941
	h-5.857c-2.173,0-3.941,1.768-3.941,3.941v1.798c0,0.69-0.56,1.25-1.25,1.25S272.587,76.032,272.587,75.341z M281.957,83.287
	c-3.048,0-5.528,2.479-5.528,5.527c0,1.999,1.048,3.786,2.728,4.766v4.706c0,1.578,1.284,2.862,2.862,2.862s2.862-1.284,2.862-2.862
	v-4.782c1.604-0.999,2.604-2.759,2.604-4.69C287.484,85.767,285.004,83.287,281.957,83.287z M283.147,91.599
	c-0.155,0.065-0.292,0.161-0.407,0.279c-0.046,0.046-0.07,0.106-0.107,0.159c-0.056,0.078-0.12,0.151-0.157,0.242
	c-0.045,0.11-0.058,0.229-0.07,0.348c-0.004,0.043-0.025,0.081-0.025,0.125v5.535c0,0.2-0.163,0.362-0.362,0.362
	s-0.362-0.162-0.362-0.362v-5.483c0-0.006-0.003-0.011-0.004-0.017c-0.002-0.105-0.034-0.204-0.061-0.304
	c-0.016-0.057-0.016-0.12-0.039-0.174c-0.03-0.069-0.083-0.123-0.125-0.186c-0.047-0.071-0.084-0.148-0.144-0.208
	c-0.038-0.038-0.092-0.058-0.135-0.091c-0.087-0.066-0.171-0.134-0.274-0.175c-0.006-0.002-0.009-0.007-0.015-0.009
	c-1.172-0.456-1.93-1.563-1.93-2.823c0-1.669,1.358-3.027,3.028-3.027s3.028,1.358,3.028,3.027
	C284.984,90.029,284.264,91.121,283.147,91.599z"/>
</svg>
