<?xml version="1.0" encoding="utf-8"?>
<!-- Generator: Adobe Illustrator 26.0.3, SVG Export Plug-In . SVG Version: 6.00 Build 0)  -->
<svg version="1.1" id="Layer_1" xmlns="http://www.w3.org/2000/svg" xmlns:xlink="http://www.w3.org/1999/xlink" x="0px" y="0px"
	 width="40px" height="40px" viewBox="312.772 66.603 40 40" enable-background="new 312.772 66.603 40 40" xml:space="preserve">
<linearGradient id="SVGID_1_" gradientUnits="userSpaceOnUse" x1="313.0217" y1="86.6049" x2="352.5222" y2="86.6049">
	<stop  offset="0" style="stop-color:#3AABDF"/>
	<stop  offset="1" style="stop-color:#63BD5E"/>
</linearGradient>
<path fill="url(#SVGID_1_)" d="M351.393,99.773l-8.665-8.664c-1.148-1.149-2.964-1.377-4.396-0.714l-1.663-1.664
	c1.988-2.391,3.072-5.371,3.072-8.52c0-3.568-1.39-6.923-3.913-9.446c-5.209-5.209-13.684-5.208-18.893,0
	c-2.523,2.523-3.913,5.878-3.913,9.446c0,3.569,1.39,6.924,3.913,9.446c2.523,2.523,5.878,3.913,9.447,3.913
	c3.148,0,6.128-1.085,8.519-3.072l1.653,1.654c-0.698,1.437-0.467,3.215,0.724,4.406l8.665,8.665
	c0.751,0.751,1.738,1.127,2.725,1.127s1.974-0.376,2.725-1.127c0.728-0.728,1.129-1.695,1.129-2.725
	C352.522,101.469,352.121,100.501,351.393,99.773z M318.702,87.891c-2.051-2.051-3.181-4.778-3.181-7.679
	c0-2.9,1.13-5.627,3.181-7.679c2.117-2.117,4.898-3.175,7.679-3.175c2.781,0,5.562,1.058,7.679,3.175
	c2.051,2.051,3.181,4.778,3.181,7.679c0,2.901-1.13,5.628-3.181,7.679c-2.051,2.051-4.778,3.181-7.679,3.181
	C323.481,91.071,320.754,89.941,318.702,87.891z M349.625,103.456c-0.528,0.527-1.387,0.527-1.915,0l-8.665-8.665
	c-0.527-0.527-0.527-1.387,0-1.914c0.255-0.256,0.596-0.397,0.957-0.397s0.702,0.142,0.957,0.397c0,0,0,0,0,0l8.665,8.664
	c0.256,0.256,0.396,0.596,0.396,0.958C350.022,102.86,349.881,103.2,349.625,103.456z"/>
</svg>
