<?xml version="1.0" encoding="utf-8"?>
<!-- Generator: Adobe Illustrator 16.0.3, SVG Export Plug-In . SVG Version: 6.00 Build 0)  -->
<!DOCTYPE svg PUBLIC "-//W3C//DTD SVG 1.1//EN" "http://www.w3.org/Graphics/SVG/1.1/DTD/svg11.dtd">
<svg version="1.1" id="Layer_1" xmlns="http://www.w3.org/2000/svg" xmlns:xlink="http://www.w3.org/1999/xlink" x="0px" y="0px"
	 width="40px" height="40px" viewBox="314.334 79.187 40 40" enable-background="new 314.334 79.187 40 40" xml:space="preserve">
<linearGradient id="SVGID_1_" gradientUnits="userSpaceOnUse" x1="314.584" y1="99.1865" x2="354.084" y2="99.1865">
	<stop  offset="0" style="stop-color:#3AABDF"/>
	<stop  offset="1" style="stop-color:#63BD5E"/>
</linearGradient>
<path fill="url(#SVGID_1_)" d="M324.792,95.8c-1.222,0-2.215,0.993-2.215,2.214v2.344c0,1.222,0.993,2.216,2.215,2.216
	c0.329,0,0.469,0.219,0.522,0.35c0.055,0.13,0.109,0.382-0.122,0.613c-0.419,0.418-0.649,0.976-0.648,1.569
	c0.001,0.593,0.231,1.149,0.647,1.564l1.656,1.657c0.838,0.837,2.301,0.836,3.135,0c0.113-0.113,0.24-0.169,0.387-0.169
	c0.223,0,0.578,0.154,0.578,0.568c0,1.223,0.994,2.218,2.215,2.218h2.344c1.222,0,2.216-0.995,2.216-2.218
	c0-0.414,0.354-0.568,0.577-0.568c0.146,0,0.273,0.056,0.387,0.169c0.834,0.836,2.3,0.836,3.134,0l1.653-1.654
	c0.42-0.417,0.65-0.974,0.65-1.567c0.001-0.595-0.23-1.152-0.648-1.568c-0.231-0.231-0.176-0.484-0.121-0.615
	c0.053-0.13,0.193-0.349,0.521-0.349c1.222,0,2.216-0.994,2.216-2.216v-2.344c0-1.221-0.994-2.214-2.216-2.214
	c-0.328,0-0.468-0.219-0.521-0.35c-0.055-0.131-0.11-0.384,0.12-0.614c0.419-0.418,0.65-0.976,0.649-1.57
	c0-0.594-0.23-1.15-0.648-1.564l-1.654-1.655c-0.836-0.838-2.301-0.837-3.135-0.001c-0.228,0.229-0.579,0.209-0.797,0.006
	c-0.112-0.105-0.167-0.238-0.167-0.406c0-1.222-0.994-2.216-2.216-2.216h-2.344c-1.221,0-2.215,0.994-2.215,2.216
	c0,0.414-0.355,0.568-0.579,0.568c-0.146,0-0.272-0.055-0.386-0.168c-0.834-0.835-2.297-0.836-3.135,0l-1.654,1.654
	c-0.418,0.417-0.648,0.974-0.649,1.566c-0.001,0.594,0.229,1.151,0.648,1.569c0.231,0.231,0.177,0.484,0.122,0.615
	C325.261,95.581,325.121,95.8,324.792,95.8z M327.625,96.406c0.439-1.062,0.25-2.26-0.473-3.13l1.271-1.272
	c0.55,0.459,1.23,0.709,1.944,0.709c1.602,0,2.921-1.225,3.065-2.784h1.801c0.066,0.751,0.397,1.435,0.948,1.949
	c1.091,1.019,2.911,1.086,4.061,0.127l1.272,1.271c-0.724,0.87-0.912,2.069-0.473,3.131s1.421,1.776,2.548,1.88v1.799
	c-1.127,0.104-2.108,0.818-2.548,1.88c-0.439,1.061-0.251,2.258,0.473,3.129l-1.272,1.272c-0.55-0.459-1.229-0.709-1.944-0.709
	c-1.602,0-2.921,1.226-3.064,2.786h-1.8c-0.144-1.561-1.464-2.786-3.065-2.786c-0.715,0-1.395,0.25-1.945,0.71l-1.271-1.273
	c0.723-0.87,0.912-2.067,0.473-3.128c-0.439-1.062-1.42-1.776-2.548-1.881v-1.799C326.204,98.183,327.186,97.468,327.625,96.406z
	 M334.334,105.631c3.555,0,6.445-2.891,6.445-6.444c0-3.555-2.891-6.446-6.445-6.446s-6.446,2.892-6.446,6.446
	C327.888,102.74,330.779,105.631,334.334,105.631z M334.334,95.24c2.176,0,3.945,1.771,3.945,3.946c0,2.175-1.77,3.944-3.945,3.944
	s-3.946-1.77-3.946-3.944C330.388,97.011,332.158,95.24,334.334,95.24z M346.295,83.221c0,0.69-0.561,1.25-1.25,1.25h-21.422
	c-0.689,0-1.25-0.56-1.25-1.25s0.561-1.25,1.25-1.25h21.422C345.734,81.971,346.295,82.531,346.295,83.221z M352.138,79.437h-3.476
	c-1.074,0-1.947,0.874-1.947,1.949v3.496c0,1.075,0.873,1.95,1.947,1.95h3.476c1.073,0,1.946-0.875,1.946-1.95v-3.496
	C354.084,80.311,353.211,79.437,352.138,79.437z M351.584,84.331h-2.369v-2.394h2.369V84.331z M320.006,79.437h-3.477
	c-1.072,0-1.945,0.873-1.945,1.945v3.476c0,1.073,0.873,1.946,1.945,1.946h3.477c1.074,0,1.947-0.873,1.947-1.946v-3.476
	C321.953,80.309,321.08,79.437,320.006,79.437z M319.453,84.304h-2.369v-2.368h2.369V84.304z M352.138,111.543h-3.476
	c-1.074,0-1.947,0.874-1.947,1.948v3.495c0,1.075,0.873,1.95,1.947,1.95h3.476c1.073,0,1.946-0.875,1.946-1.95v-3.495
	C354.084,112.417,353.211,111.543,352.138,111.543z M351.584,116.437h-2.369v-2.394h2.369V116.437z M320.006,111.557h-3.477
	c-1.072,0-1.945,0.872-1.945,1.944v3.477c0,1.072,0.873,1.945,1.945,1.945h3.477c1.074,0,1.947-0.873,1.947-1.945v-3.477
	C321.953,112.429,321.08,111.557,320.006,111.557z M319.453,116.423h-2.369v-2.366h2.369V116.423z M346.295,113.979
	c0,0.69-0.561,1.25-1.25,1.25h-21.422c-0.689,0-1.25-0.56-1.25-1.25s0.561-1.25,1.25-1.25h21.422
	C345.734,112.729,346.295,113.289,346.295,113.979z M350.4,111.141c-0.691,0-1.25-0.56-1.25-1.25V88.47c0-0.69,0.559-1.25,1.25-1.25
	c0.689,0,1.25,0.56,1.25,1.25v21.421C351.65,110.581,351.09,111.141,350.4,111.141z M318.268,111.141c-0.689,0-1.25-0.56-1.25-1.25
	V88.47c0-0.69,0.561-1.25,1.25-1.25c0.691,0,1.25,0.56,1.25,1.25v21.421C319.518,110.581,318.959,111.141,318.268,111.141z"/>
</svg>
