<?xml version="1.0" encoding="utf-8"?>
<!-- Generator: Adobe Illustrator 16.0.3, SVG Export Plug-In . SVG Version: 6.00 Build 0)  -->
<!DOCTYPE svg PUBLIC "-//W3C//DTD SVG 1.1//EN" "http://www.w3.org/Graphics/SVG/1.1/DTD/svg11.dtd">
<svg version="1.1" id="Layer_1" xmlns="http://www.w3.org/2000/svg" xmlns:xlink="http://www.w3.org/1999/xlink" x="0px" y="0px"
	 width="40px" height="40px" viewBox="314.334 79.187 40 40" enable-background="new 314.334 79.187 40 40" xml:space="preserve">
<linearGradient id="SVGID_1_" gradientUnits="userSpaceOnUse" x1="314.584" y1="99.1865" x2="354.084" y2="99.1865">
	<stop  offset="0" style="stop-color:#3AABDF"/>
	<stop  offset="1" style="stop-color:#63BD5E"/>
</linearGradient>
<path fill="url(#SVGID_1_)" d="M354.084,99.187c0,10.891-8.859,19.75-19.75,19.75s-19.75-8.859-19.75-19.75s8.859-19.75,19.75-19.75
	c4.154,0,8.16,1.311,11.498,3.707l-0.064-1.661c-0.027-0.69,0.51-1.271,1.199-1.298c0.713-0.022,1.271,0.51,1.299,1.2l0.176,4.485
	c0.027,0.69-0.51,1.271-1.199,1.298l-4.188,0.166c-0.016,0.001-0.033,0.002-0.05,0.002c-0.667,0-1.222-0.528-1.248-1.201
	c-0.027-0.689,0.51-1.271,1.2-1.298l0.868-0.035c-2.802-1.851-6.087-2.864-9.491-2.864c-9.512,0-17.25,7.738-17.25,17.25
	s7.738,17.25,17.25,17.25s17.25-7.738,17.25-17.25c0-2.351-0.464-4.628-1.378-6.769c-0.271-0.635,0.023-1.369,0.659-1.641
	c0.633-0.271,1.369,0.023,1.64,0.658C353.553,93.889,354.084,96.497,354.084,99.187z M342.123,89.174
	c1.227,0,2.225,0.997,2.225,2.224v15.578c0,1.227-0.998,2.224-2.225,2.224h-15.578c-1.227,0-2.225-0.997-2.225-2.224V91.397
	c0-1.227,0.998-2.224,2.225-2.224H342.123z M326.82,91.674v9.69l3.191-3.155c0.482-0.479,1.263-0.482,1.75-0.007l4.419,4.304
	l2.534-2.868c0.237-0.269,0.578-0.422,0.937-0.422s0.699,0.153,0.937,0.422l1.26,1.425v-9.389H326.82z M341.848,106.699v-1.86
	l-2.196-2.485l-2.466,2.791c-0.227,0.256-0.549,0.408-0.891,0.421c-0.346,0.02-0.674-0.115-0.918-0.354l-4.48-4.363l-4.076,4.031
	v1.819H341.848z M338.473,96.752c0.94,0,1.703-0.764,1.703-1.703c0-0.941-0.763-1.704-1.703-1.704c-0.941,0-1.705,0.763-1.705,1.704
	C336.768,95.988,337.531,96.752,338.473,96.752z"/>
</svg>
