<?xml version="1.0" encoding="utf-8"?>
<!-- Generator: Adobe Illustrator 26.0.3, SVG Export Plug-In . SVG Version: 6.00 Build 0)  -->
<svg version="1.1" id="_x2018_ëîé_x5F_1" xmlns="http://www.w3.org/2000/svg" xmlns:xlink="http://www.w3.org/1999/xlink"
	 x="0px" y="0px" width="80px" height="80px" viewBox="0 0 80 80" enable-background="new 0 0 80 80" xml:space="preserve">
<path fill="#333333" d="M17.847,20.123c-4.788,0-8.005-3.767-8.005-9.373s3.217-9.373,8.005-9.373c4.79,0,8.007,3.767,8.007,9.373
	S22.637,20.123,17.847,20.123z M17.847,3.717c-4.177,0-5.665,3.633-5.665,7.033s1.488,7.033,5.665,7.033
	c4.178,0,5.666-3.633,5.666-7.033S22.026,3.717,17.847,3.717z"/>
<path fill="#20201D" d="M37.506,78.623c-0.094,0-0.188-0.011-0.282-0.034c-0.627-0.155-1.01-0.79-0.855-1.417l2.219-8.98
	c0.154-0.627,0.79-1.007,1.417-0.855c0.627,0.155,1.01,0.79,0.855,1.417l-2.219,8.98C38.509,78.267,38.032,78.623,37.506,78.623z"/>
<path fill="#333333" d="M41.846,61.067c-0.094,0-0.187-0.011-0.282-0.034c-0.627-0.155-1.01-0.79-0.855-1.417l0.87-3.515
	c0.261-1.056,0.047-2.169-0.586-3.054c-0.633-0.886-1.618-1.447-2.703-1.54l-21.217-1.188c-0.646-0.035-1.139-0.589-1.103-1.233
	c0.035-0.645,0.593-1.15,1.233-1.103l21.253,1.191c1.802,0.154,3.408,1.07,4.441,2.512c1.032,1.442,1.379,3.256,0.954,4.978
	l-0.87,3.515C42.85,60.71,42.372,61.067,41.846,61.067z"/>
<path fill="#333333" d="M6.174,44.228c-1.898,0-3.65-0.889-4.786-2.458c-1.276-1.764-1.492-3.999-0.578-5.975l4.626-10
	c1.082-2.339,3.438-3.799,6.023-3.744l10.78,0.27c2.414,0.062,4.691,1.271,6.093,3.234l3.828,5.36
	c0.376,0.526,0.254,1.257-0.272,1.632c-0.525,0.377-1.256,0.254-1.632-0.272l-3.828-5.36c-0.978-1.368-2.566-2.211-4.249-2.254
	l-10.78-0.27c-0.034-0.001-0.07-0.002-0.105-0.002c-1.601,0-3.058,0.929-3.735,2.388l-4.626,10
	c-0.553,1.198-0.423,2.551,0.351,3.619c0.774,1.067,2.015,1.609,3.329,1.465l7.895-0.939c1.055-0.126,1.833-1.054,1.772-2.114
	c-0.033-0.581-0.303-1.099-0.758-1.461s-1.017-0.51-1.594-0.408L8.759,37.83c-0.635,0.106-1.242-0.318-1.352-0.954
	c-0.11-0.637,0.318-1.242,0.954-1.352l5.169-0.891c1.224-0.208,2.479,0.111,3.448,0.881c0.97,0.77,1.567,1.922,1.638,3.159
	c0.133,2.293-1.551,4.302-3.832,4.574l-7.898,0.939C6.647,44.215,6.409,44.228,6.174,44.228z"/>
<path fill="#333333" d="M23.122,50.32c-0.033,0-0.067-0.001-0.102-0.005c-0.643-0.055-1.121-0.622-1.065-1.266l1.207-14.007
	c0.039-0.454,0.337-0.843,0.765-0.999c0.43-0.155,0.907-0.05,1.228,0.272l4.767,4.767c0.923,0.922,2.399,0.954,3.359,0.07
	l9.099-8.227c1.011-0.914,1.096-2.486,0.187-3.503c-0.445-0.498-1.057-0.793-1.723-0.829c-0.665-0.034-1.307,0.192-1.803,0.641
	l-7.085,6.468c-0.475,0.437-1.216,0.405-1.652-0.075c-0.437-0.477-0.402-1.217,0.075-1.652l7.089-6.472
	c0.963-0.874,2.212-1.308,3.5-1.247c1.295,0.07,2.483,0.64,3.346,1.607c1.762,1.972,1.6,5.023-0.363,6.799l-9.092,8.22
	c-1.88,1.728-4.777,1.667-6.591-0.145l-2.99-2.988L24.286,49.25C24.233,49.859,23.723,50.32,23.122,50.32z"/>
<path fill="#333333" d="M10.154,37.575c-0.07,0-0.141-0.006-0.213-0.019c-0.635-0.117-1.056-0.727-0.939-1.362l0.534-2.908
	c0.117-0.635,0.72-1.062,1.362-0.939c0.635,0.117,1.056,0.727,0.939,1.362l-0.534,2.908C11.201,37.181,10.708,37.575,10.154,37.575z
	"/>
<linearGradient id="SVGID_1_" gradientUnits="userSpaceOnUse" x1="0.594" y1="20.1" x2="24.73" y2="20.1" gradientTransform="matrix(1 0 0 -1 0 80)">
	<stop  offset="0" style="stop-color:#3AABDF"/>
	<stop  offset="1" style="stop-color:#63BD5E"/>
</linearGradient>
<path fill="url(#SVGID_1_)" d="M23.559,61.07H1.764c-0.647,0-1.17-0.523-1.17-1.17s0.523-1.17,1.17-1.17H23.56
	c0.647,0,1.17,0.523,1.17,1.17C24.729,60.547,24.206,61.07,23.559,61.07z"/>
<linearGradient id="SVGID_00000110432190789455365830000010836952719194246276_" gradientUnits="userSpaceOnUse" x1="31.02" y1="26.0502" x2="79.75" y2="26.0502" gradientTransform="matrix(1 0 0 -1 0 80)">
	<stop  offset="0" style="stop-color:#3AABDF"/>
	<stop  offset="1" style="stop-color:#63BD5E"/>
</linearGradient>
<path fill="url(#SVGID_00000110432190789455365830000010836952719194246276_)" d="M47.403,69.262H32.19
	c-0.647,0-1.17-0.523-1.17-1.17c0-0.647,0.523-1.17,1.17-1.17h14.421l5.356-13.353c0.177-0.443,0.608-0.735,1.086-0.735h12.53
	c0.647,0,1.17,0.523,1.17,1.17v3.311l9.9-7.57l-9.9-7.57v3.311c0,0.647-0.523,1.17-1.17,1.17H49.587L43.8,60.355
	c-0.183,0.434-0.607,0.715-1.078,0.715h-8.97c-0.647,0-1.17-0.523-1.17-1.17s0.523-1.17,1.17-1.17h8.194l5.787-13.699
	c0.183-0.434,0.607-0.715,1.078-0.715h15.602v-4.508c0-0.446,0.253-0.851,0.651-1.049c0.4-0.197,0.877-0.152,1.23,0.12l12.997,9.938
	c0.289,0.221,0.459,0.565,0.459,0.929c0,0.365-0.17,0.709-0.459,0.929l-12.997,9.938c-0.353,0.273-0.83,0.318-1.23,0.12
	c-0.399-0.198-0.651-0.603-0.651-1.049v-4.508H53.845l-5.356,13.353C48.311,68.97,47.881,69.262,47.403,69.262z"/>
<linearGradient id="SVGID_00000102508388247596241760000017069954197170234016_" gradientUnits="userSpaceOnUse" x1="15.969" y1="11.908" x2="23.092" y2="11.908" gradientTransform="matrix(1 0 0 -1 0 80)">
	<stop  offset="0" style="stop-color:#3AABDF"/>
	<stop  offset="1" style="stop-color:#63BD5E"/>
</linearGradient>
<path fill="url(#SVGID_00000102508388247596241760000017069954197170234016_)" d="M21.922,69.262h-4.783
	c-0.647,0-1.17-0.523-1.17-1.17c0-0.647,0.523-1.17,1.17-1.17h4.783c0.647,0,1.17,0.523,1.17,1.17
	C23.092,68.738,22.568,69.262,21.922,69.262z"/>
<linearGradient id="SVGID_00000111907357707671145280000014519836041267729037_" gradientUnits="userSpaceOnUse" x1="6.445" y1="11.908" x2="13.372" y2="11.908" gradientTransform="matrix(1 0 0 -1 0 80)">
	<stop  offset="0" style="stop-color:#3AABDF"/>
	<stop  offset="1" style="stop-color:#63BD5E"/>
</linearGradient>
<path fill="url(#SVGID_00000111907357707671145280000014519836041267729037_)" d="M12.202,69.262H7.615
	c-0.647,0-1.17-0.523-1.17-1.17c0-0.647,0.523-1.17,1.17-1.17h4.587c0.647,0,1.17,0.523,1.17,1.17
	C13.372,68.738,12.849,69.262,12.202,69.262z"/>
<path fill="#333333" d="M21.22,78.623c-0.051,0-0.103-0.003-0.155-0.01c-0.641-0.086-1.091-0.674-1.006-1.314l2.163-16.229H11.603
	c-3.731,0-6.768-3.036-6.768-6.768V43.054c0-0.647,0.523-1.17,1.17-1.17s1.17,0.523,1.17,1.17v11.249
	c0,2.441,1.986,4.427,4.427,4.427h11.956c0.337,0,0.658,0.145,0.88,0.399c0.223,0.255,0.325,0.592,0.28,0.926l-2.34,17.554
	C22.3,78.196,21.798,78.623,21.22,78.623z"/>
<path fill="#333333" d="M29.412,78.623c-0.094,0-0.187-0.011-0.282-0.034c-0.627-0.155-1.01-0.79-0.855-1.417l5.21-21.072
	c0.262-1.056,0.048-2.169-0.585-3.054c-0.633-0.885-1.619-1.447-2.704-1.54l-12.65-1.192c-0.643-0.061-1.117-0.631-1.055-1.274
	c0.059-0.642,0.624-1.13,1.274-1.055l12.641,1.191c1.759,0.151,3.364,1.066,4.398,2.51c1.032,1.441,1.379,3.256,0.953,4.977
	l-5.21,21.072C30.415,78.267,29.937,78.623,29.412,78.623z"/>
</svg>
