<?xml version="1.0" encoding="utf-8"?>
<!-- Generator: Adobe Illustrator 26.0.3, SVG Export Plug-In . SVG Version: 6.00 Build 0)  -->
<svg version="1.1" id="Layer_1" xmlns="http://www.w3.org/2000/svg" xmlns:xlink="http://www.w3.org/1999/xlink" x="0px" y="0px"
	 width="40px" height="40px" viewBox="312.772 66.603 40 40" enable-background="new 312.772 66.603 40 40" xml:space="preserve">
<g>
	<linearGradient id="SVGID_1_" gradientUnits="userSpaceOnUse" x1="317.8901" y1="86.6025" x2="347.6533" y2="86.6025">
		<stop  offset="0" style="stop-color:#3AABDF"/>
		<stop  offset="1" style="stop-color:#63BD5E"/>
	</linearGradient>
	<path fill="url(#SVGID_1_)" d="M342.629,66.853h-19.715c-2.77,0-5.024,2.254-5.024,5.024v29.452c0,2.771,2.254,5.024,5.024,5.024
		h19.715c2.77,0,5.024-2.254,5.024-5.024V71.876C347.653,69.106,345.399,66.853,342.629,66.853z M345.153,101.328
		c0,1.392-1.132,2.524-2.524,2.524h-19.715c-1.392,0-2.524-1.133-2.524-2.524V71.876c0-1.392,1.132-2.524,2.524-2.524h19.715
		c1.392,0,2.524,1.132,2.524,2.524V101.328z"/>
	
		<linearGradient id="SVGID_00000024711149363032423280000009512517044879355818_" gradientUnits="userSpaceOnUse" x1="323.8701" y1="76.8867" x2="341.6738" y2="76.8867">
		<stop  offset="0" style="stop-color:#3AABDF"/>
		<stop  offset="1" style="stop-color:#63BD5E"/>
	</linearGradient>
	<path fill="url(#SVGID_00000024711149363032423280000009512517044879355818_)" d="M340.424,75.637H325.12
		c-0.69,0-1.25,0.56-1.25,1.25s0.56,1.25,1.25,1.25h15.304c0.69,0,1.25-0.56,1.25-1.25S341.114,75.637,340.424,75.637z"/>
	
		<linearGradient id="SVGID_00000077323434306478282280000008958175382010954678_" gradientUnits="userSpaceOnUse" x1="323.8701" y1="83.3637" x2="341.6738" y2="83.3637">
		<stop  offset="0" style="stop-color:#3AABDF"/>
		<stop  offset="1" style="stop-color:#63BD5E"/>
	</linearGradient>
	<path fill="url(#SVGID_00000077323434306478282280000008958175382010954678_)" d="M340.424,82.114H325.12
		c-0.69,0-1.25,0.56-1.25,1.25c0,0.69,0.56,1.25,1.25,1.25h15.304c0.69,0,1.25-0.56,1.25-1.25
		C341.674,82.673,341.114,82.114,340.424,82.114z"/>
	
		<linearGradient id="SVGID_00000158003019675028872780000011631660952960265117_" gradientUnits="userSpaceOnUse" x1="323.8701" y1="89.8408" x2="341.6738" y2="89.8408">
		<stop  offset="0" style="stop-color:#3AABDF"/>
		<stop  offset="1" style="stop-color:#63BD5E"/>
	</linearGradient>
	<path fill="url(#SVGID_00000158003019675028872780000011631660952960265117_)" d="M340.424,88.591H325.12
		c-0.69,0-1.25,0.56-1.25,1.25c0,0.69,0.56,1.25,1.25,1.25h15.304c0.69,0,1.25-0.56,1.25-1.25
		C341.674,89.15,341.114,88.591,340.424,88.591z"/>
	
		<linearGradient id="SVGID_00000132771862588746019880000009343737402259407529_" gradientUnits="userSpaceOnUse" x1="323.8701" y1="96.3183" x2="336.8051" y2="96.3183">
		<stop  offset="0" style="stop-color:#3AABDF"/>
		<stop  offset="1" style="stop-color:#63BD5E"/>
	</linearGradient>
	<path fill="url(#SVGID_00000132771862588746019880000009343737402259407529_)" d="M335.555,95.068H325.12
		c-0.69,0-1.25,0.56-1.25,1.25c0,0.691,0.56,1.25,1.25,1.25h10.435c0.691,0,1.25-0.559,1.25-1.25
		C336.805,95.628,336.246,95.068,335.555,95.068z"/>
</g>
</svg>
