<?xml version="1.0" encoding="utf-8"?>
<!-- Generator: Adobe Illustrator 26.3.1, SVG Export Plug-In . SVG Version: 6.00 Build 0)  -->
<svg version="1.1" id="_x2018_ëîé_x5F_1" xmlns="http://www.w3.org/2000/svg" xmlns:xlink="http://www.w3.org/1999/xlink"
	 x="0px" y="0px" width="90px" height="90px" viewBox="0 0 90 90" style="enable-background:new 0 0 90 90;" xml:space="preserve">
<style type="text/css">
	.st0{fill:#333333;}
	.st1{fill:url(#SVGID_1_);}
	.st2{fill:url(#SVGID_00000106856568711205020290000013035679652524660100_);}
</style>
<g>
	<g>
		<path class="st0" d="M69,64.3c-0.7,0-1.3,0.6-1.3,1.3v13.8c0,0.7,0.6,1.3,1.3,1.3c0.7,0,1.3-0.6,1.3-1.3V65.5
			C70.2,64.8,69.7,64.3,69,64.3z"/>
		<path class="st0" d="M61,34.6c4.7,0,8-3.7,8-9.1c0-5.4-3.3-9.1-8-9.1c-4.7,0-8,3.7-8,9.1C53,30.8,56.3,34.6,61,34.6z M61,18.8
			c4.1,0,5.6,3.6,5.6,6.7s-1.5,6.7-5.6,6.7c-4.1,0-5.6-3.6-5.6-6.7S56.9,18.8,61,18.8z"/>
		<path class="st0" d="M77,43.9c-2.4-4.1-6.9-6.7-11.5-6.7H52.9c-5.2,0-10.4,3.8-12.3,8.9l-1.4,3.6l-2.3-9.2
			c-1.4-6.4-6.2-11.5-12.5-13.4l-1.9-0.5c-5.4-1.5-11.1,1.1-13.3,6.2l-4.1,8.9c-1.6,3.7-2.6,7.6-3,11.6l-1.1,11
			C1,64.4,1,64.6,1,64.7v13.8c0,0.7,0.6,1.3,1.3,1.3s1.3-0.6,1.3-1.3V64.7c0-0.1,0-0.2,0-0.3l1.1-11c0.4-3.7,1.3-7.4,2.8-10.8
			l4.1-8.9c1.8-4,6.3-6.2,10.5-4.9l1.9,0.5c5.5,1.6,9.6,6,10.8,11.6l4.8,19.1c0.1,0.5,0.5,0.8,1,0.9l2.7,0.3c1.7,0.2,3,1.4,3.5,2.9
			h-0.5H35.6l-6.5-18.8l0.5-1c0.3-0.6,0.1-1.3-0.5-1.6c-0.6-0.3-1.3-0.1-1.6,0.5l-3.2,6.3L23,43.9c-0.1-0.6-0.8-1-1.4-0.9
			c-0.6,0.1-1,0.8-0.9,1.4L24.1,60c0.1,0.5,0.5,0.9,1,0.9l2.7,0.3c1.7,0.2,3,1.4,3.5,2.9h-11l-7.2-21.7c-0.2-0.6-0.9-1-1.5-0.8
			c-0.6,0.2-1,0.9-0.8,1.5l7.5,22.5c0.2,0.5,0.6,0.8,1.1,0.8h2.1v12.8c0,0.7,0.6,1.3,1.3,1.3c0.7,0,1.3-0.6,1.3-1.3V66.5h8.7
			c0.4,0,0.8-0.2,1-0.6c0.2,0.4,0.6,0.6,1,0.6h11.4h1.8v13.5c0,0.7,0.6,1.3,1.3,1.3c0.7,0,1.3-0.6,1.3-1.3V66.5h5.8v12.8
			c0,0.7,0.6,1.3,1.3,1.3c0.7,0,1.3-0.6,1.3-1.3V66.5h0.9c0.7,0,1.2-0.5,1.2-1.2v-4.5c0-2.7-2.2-5-5-5h-6.9l2.6-3.7
			c0.4-0.5,0.2-1.3-0.3-1.7c-0.5-0.4-1.3-0.2-1.7,0.3l-3.9,5.5c-0.3,0.4-0.3,0.8-0.1,1.2c0.2,0.4,0.6,0.6,1.1,0.6h9.2
			c1.4,0,2.6,1.2,2.6,2.6v3.3h-9.4c-0.5-2.8-2.8-5-5.7-5.3l-1.9-0.2l-1.3-5l2.6-6.7c1.6-4.2,6-7.4,10.1-7.4h12.5
			c3.8,0,7.5,2.2,9.5,5.6c0.3,0.6,1.1,0.8,1.6,0.4C77.1,45.2,77.3,44.5,77,43.9z M28.1,58.9l-1.9-0.2l-1.2-5.5l2.5-4.9l4.3,12.3
			C30.8,59.7,29.6,59.1,28.1,58.9z"/>
		<path class="st0" d="M14.4,62.5c-0.6-0.3-1.4-0.1-1.7,0.5l-1,1.7c-0.1,0.2-0.2,0.4-0.2,0.6l-0.1,2.4c0,0.1,0,0.1,0,0.2v0.3l0,0.2
			c0,0,0,0.1,0,0.1v13.1c0,0.7,0.6,1.3,1.3,1.3s1.3-0.6,1.3-1.3V67.8c0,0,0-0.1,0-0.1l0.1-2.1l0.8-1.4C15.2,63.6,15,62.8,14.4,62.5z
			"/>
	</g>
	<g>
		<linearGradient id="SVGID_1_" gradientUnits="userSpaceOnUse" x1="55.3979" y1="55.0741" x2="89" y2="55.0741">
			<stop  offset="0" style="stop-color:#3AABDF"/>
			<stop  offset="1" style="stop-color:#63BD5E;stop-opacity:0.9"/>
		</linearGradient>
		<path class="st1" d="M88.5,44.7c-0.5-0.7-1.3-1.1-2.2-1.1H64.2c-1.5,0-2.9,1-3.3,2.4l-3.5,11.3c-0.2,0.6,0.2,1.3,0.8,1.5
			c0.6,0.2,1.3-0.2,1.5-0.8l3.5-11.3c0.1-0.5,0.6-0.8,1-0.8h22.1c0.2,0,0.3,0.1,0.3,0.1c0,0.1,0.1,0.2,0.1,0.3l-5.2,16.6
			c-0.2,0.6-0.7,1.1-1.3,1.1l-23.5,0c-0.7,0-1.2,0.5-1.2,1.2c0,0.7,0.5,1.2,1.2,1.2c0,0,0,0,0,0l23.5-0.1c1.6,0,3.1-1.1,3.6-2.6
			l5.2-16.6C89.1,46.3,89,45.5,88.5,44.7z"/>
		
			<linearGradient id="SVGID_00000183946691507546734900000012870084035072546944_" gradientUnits="userSpaceOnUse" x1="23.1071" y1="16.6253" x2="40.0981" y2="16.6253">
			<stop  offset="0" style="stop-color:#3AABDF"/>
			<stop  offset="1" style="stop-color:#63BD5E;stop-opacity:0.9"/>
		</linearGradient>
		<path style="fill:url(#SVGID_00000183946691507546734900000012870084035072546944_);" d="M35.2,7.8c-2.4-1-4.7-0.9-6.8,0.3
			c-1.9,1.1-3.4,2.9-4.4,5.4c-1,2.4-1.2,4.8-0.7,6.9c0.6,2.3,2.2,4.1,4.6,5c1.1,0.4,2.1,0.7,3.1,0.7c1.3,0,2.5-0.3,3.6-1
			c1.9-1.1,3.4-2.9,4.4-5.4C41.3,14.5,39.7,9.7,35.2,7.8z M36.9,18.8c-0.8,1.9-2,3.4-3.4,4.2c-1.4,0.8-3,0.9-4.7,0.2
			c-1.7-0.7-2.7-1.9-3.2-3.5c-0.4-1.5-0.2-3.4,0.6-5.3c0.8-1.9,2-3.4,3.4-4.2c0.8-0.4,1.6-0.7,2.5-0.7c0.7,0,1.5,0.2,2.2,0.5
			c1.7,0.7,2.7,1.9,3.2,3.5C37.9,15,37.7,16.9,36.9,18.8z"/>
	</g>
</g>
</svg>
