<?xml version="1.0" encoding="utf-8"?>
<!-- Generator: Adobe Illustrator 16.0.0, SVG Export Plug-In . SVG Version: 6.00 Build 0)  -->
<!DOCTYPE svg PUBLIC "-//W3C//DTD SVG 1.1//EN" "http://www.w3.org/Graphics/SVG/1.1/DTD/svg11.dtd">
<svg version="1.1" id="_x2018_ëîé_x5F_1" xmlns="http://www.w3.org/2000/svg" xmlns:xlink="http://www.w3.org/1999/xlink"
	 x="0px" y="0px" width="90.914px" height="90px" viewBox="0 0 90.914 90" enable-background="new 0 0 90.914 90"
	 xml:space="preserve">
<linearGradient id="SVGID_1_" gradientUnits="userSpaceOnUse" x1="47.999" y1="25.9448" x2="89.457" y2="25.9448">
	<stop  offset="0" style="stop-color:#3AABDF"/>
	<stop  offset="1" style="stop-color:#63BD5E;stop-opacity:0.9"/>
</linearGradient>
<path fill="url(#SVGID_1_)" d="M69.479,22.422c0.491,0.496,0.491,1.3,0,1.795l-0.981,0.99c-0.245,0.249-0.567,0.372-0.888,0.372
	c-0.322,0-0.643-0.124-0.889-0.372c-0.491-0.496-0.491-1.299,0-1.794l0.98-0.991C68.193,21.926,68.988,21.926,69.479,22.422z
	 M57.008,27.237c0.322,0,0.644-0.124,0.889-0.372L75.565,9.012c0.237-0.24,0.37-0.564,0.368-0.904
	c-0.002-0.339-0.137-0.663-0.376-0.899l-1.011-1.002l6.97-0.469l-0.467,7.075l-1.028-1.038c-0.236-0.238-0.555-0.372-0.889-0.372
	c-0.001,0-0.003,0-0.005,0c-0.335,0.001-0.656,0.138-0.891,0.379l-6.927,7.12c-0.486,0.5-0.479,1.304,0.015,1.796
	c0.495,0.491,1.291,0.482,1.778-0.016l6.038-6.207l2.091,2.112c0.348,0.352,0.871,0.466,1.33,0.29
	c0.462-0.175,0.78-0.607,0.812-1.104l0.747-11.315c0.025-0.366-0.108-0.724-0.365-0.982c-0.255-0.257-0.61-0.39-0.973-0.369
	l-11.2,0.754c-0.494,0.033-0.923,0.356-1.095,0.826c-0.172,0.468-0.056,0.996,0.297,1.346l2.106,2.089L56.12,25.071
	c-0.491,0.496-0.491,1.299,0,1.794C56.365,27.114,56.687,27.237,57.008,27.237z M89.083,22.927
	c-0.257-0.258-0.612-0.384-0.974-0.364l-11.284,0.822c-0.492,0.036-0.918,0.359-1.089,0.826c-0.171,0.467-0.056,0.993,0.295,1.343
	l2.125,2.124l-8.316,8.351l-5.171-5.19c-0.492-0.493-1.287-0.491-1.776,0.004L48.366,45.572c-0.49,0.497-0.489,1.301,0.002,1.796
	c0.246,0.246,0.566,0.37,0.888,0.37c0.322,0,0.645-0.125,0.891-0.374l13.643-13.831l5.167,5.185c0.49,0.492,1.28,0.491,1.772,0
	l10.101-10.142c0.237-0.239,0.371-0.564,0.371-0.902c0-0.339-0.135-0.664-0.373-0.902l-1.057-1.057l7.089-0.516l-0.435,7.166
	l-1.051-1.05c0,0,0,0,0-0.001s-0.001,0-0.001,0l-0.762-0.762c-0.493-0.493-1.288-0.488-1.777,0.01
	c-0.438,0.447-0.457,1.129-0.104,1.623L69.882,45.121l-5.161-5.157c-0.246-0.245-0.574-0.382-0.928-0.366
	c-0.345,0.013-0.671,0.168-0.9,0.43l-1.931,2.22c-0.458,0.527-0.407,1.329,0.115,1.792s1.316,0.412,1.773-0.116l1.051-1.208
	l5.101,5.096c0.245,0.245,0.564,0.367,0.884,0.367c0.321,0,0.642-0.123,0.888-0.371L84.484,34l2.14,2.139
	c0.35,0.35,0.872,0.463,1.333,0.283c0.46-0.176,0.775-0.61,0.806-1.108l0.692-11.407C89.477,23.542,89.341,23.185,89.083,22.927z
	 M58.358,45.173l-1.419,1.448c-0.489,0.498-0.485,1.302,0.008,1.795c0.245,0.246,0.564,0.368,0.884,0.368
	c0.323,0,0.647-0.125,0.893-0.377l1.42-1.448c0.489-0.498,0.485-1.302-0.008-1.796C59.642,44.669,58.846,44.673,58.358,45.173z"/>
<path fill="#333333" d="M24.079,21.314c5.263,0,8.798-4.082,8.798-10.157C32.877,5.082,29.342,1,24.079,1
	c-5.262,0-8.797,4.082-8.797,10.157C15.282,17.233,18.817,21.314,24.079,21.314z M24.079,3.539c4.639,0,6.285,4.104,6.285,7.618
	c0,3.515-1.646,7.618-6.285,7.618c-4.638,0-6.284-4.103-6.284-7.618C17.795,7.643,19.441,3.539,24.079,3.539z M25.414,71.225V87.73
	c0,0.701-0.563,1.27-1.257,1.27c-0.694,0-1.257-0.569-1.257-1.27V71.225c0-0.701,0.563-1.27,1.257-1.27
	C24.852,69.955,25.414,70.524,25.414,71.225z M51.015,74.79l-7.096-29.809c-0.012-0.05-0.044-0.086-0.062-0.133L42.161,32.15
	c-0.969-4.807-5.024-8.297-9.643-8.297h-0.897c-0.495,0-0.943,0.293-1.146,0.749l-5.138,11.664v-9.874
	c0.694,0,1.257-0.568,1.257-1.269s-0.563-1.27-1.257-1.27h-2.514c-0.694,0-1.257,0.569-1.257,1.27s0.563,1.269,1.257,1.269v9.732
	l-5.139-11.522c-0.203-0.456-0.651-0.749-1.146-0.749h-1.541c-4.992,0-9.975,3.8-10.886,8.327L1.5,46.901
	c-0.167,1.149,0.16,2.272,0.92,3.161C3.383,51.188,5,51.888,6.642,51.888l4.869-0.001v35.448c0,0.701,0.563,1.27,1.257,1.27
	c0.693,0,1.256-0.568,1.256-1.27V51.885l4.85-0.001l7.229-0.599c0.055-0.004,0.109-0.012,0.162-0.023
	c1.135,0.347,2.479,0.626,3.384,0.626h4.485v35.446c0,0.701,0.563,1.27,1.257,1.27s1.257-0.568,1.257-1.27v-7.075
	c1.741-2.597,4.236-2.104,7.798-1.045c2.121,0.63,4.123,1.227,5.512,0.064c1.255-1.053,1.221-2.968,1.086-4.319
	C51.037,74.902,51.028,74.846,51.015,74.79z M18.772,49.349H6.642c-0.903,0-1.836-0.381-2.32-0.947
	c-0.287-0.336-0.396-0.707-0.341-1.093l2.6-14.652c0.672-3.337,4.605-6.265,8.417-6.265h0.729l6.018,13.489
	c-1.03,0.068-1.801,0.148-2.152,0.188l-4.942-0.936c-0.682-0.256-1.326-0.188-1.889,0.048l0.356-1.641
	c0.149-0.685-0.281-1.362-0.958-1.512c-0.68-0.149-1.348,0.283-1.497,0.969l-1.387,6.391c-0.086,0.397,0.021,0.812,0.289,1.116
	c0.267,0.303,0.657,0.458,1.063,0.419c3.897-0.38,8.9,2.337,11.704,4.128L18.772,49.349z M25.908,48.436
	c-0.924-0.694-7.189-5.252-13.019-5.98l0.392-0.549c0.165-0.231,0.427-0.428,0.517-0.384c0.086,0.038,0.177,0.066,0.27,0.084
	l5.25,0.995c0.127,0.024,0.259,0.028,0.387,0.011c0.101-0.013,10.054-1.234,14.704,1.294c0.408,0.223,0.905,0.199,1.292-0.061
	c0.387-0.26,0.6-0.714,0.554-1.181l-0.574-5.866c-0.067-0.698-0.68-1.209-1.374-1.139c-0.691,0.069-1.195,0.691-1.127,1.388
	l0.369,3.769c-2.177-0.691-4.743-0.958-7.091-1.027l5.975-13.396h0.085c3.429,0,6.448,2.635,7.166,6.181l1.97,14.759
	c0.024,0.124,0.098,0.499-0.285,0.97c-0.501,0.617-1.48,1.047-2.38,1.047h-9.34C28.792,49.349,26.824,48.864,25.908,48.436z
	 M48.352,77.324c-0.353,0.3-2.133-0.23-3.196-0.545c-2.417-0.72-5.772-1.709-8.508-0.013V51.888h2.341
	c1.33,0,2.683-0.509,3.672-1.332l5.89,24.743C48.709,77.003,48.355,77.321,48.352,77.324z M61.477,2.851l-0.775,11.313
	c-0.034,0.5-0.355,0.932-0.82,1.104c-0.466,0.173-0.987,0.054-1.333-0.304l-2.056-2.126l-9.321,9.514
	c-0.246,0.251-0.569,0.377-0.894,0.377c-0.32,0-0.639-0.122-0.884-0.367c-0.494-0.494-0.497-1.298-0.01-1.796l10.222-10.432
	c0.236-0.241,0.558-0.376,0.894-0.376c0.001,0,0.003,0,0.004,0c0.337,0.001,0.66,0.139,0.895,0.382l0.989,1.023l0.482-7.038
	l-7.005,0.453l1.026,1.042c0.481,0.488,0.488,1.276,0.016,1.774l-4.65,4.905c-0.479,0.507-1.275,0.524-1.777,0.039
	c-0.5-0.485-0.518-1.289-0.038-1.795l3.802-4.01L48.13,4.384c-0.348-0.353-0.459-0.879-0.284-1.345
	c0.174-0.466,0.603-0.786,1.095-0.817l11.202-0.726c0.375-0.021,0.716,0.112,0.972,0.372C61.37,2.127,61.502,2.485,61.477,2.851z"/>
</svg>
