<?xml version="1.0" encoding="utf-8"?>
<!-- Generator: Adobe Illustrator 26.3.1, SVG Export Plug-In . SVG Version: 6.00 Build 0)  -->
<svg version="1.1" id="_x2018_ëîé_x5F_1" xmlns="http://www.w3.org/2000/svg" xmlns:xlink="http://www.w3.org/1999/xlink"
	 x="0px" y="0px" width="90px" height="90px" viewBox="0 0 90 90" style="enable-background:new 0 0 90 90;" xml:space="preserve">
<style type="text/css">
	.st0{fill:#20201D;}
	.st1{fill:#DF3219;}
	.st2{fill:url(#SVGID_1_);}
	.st3{fill:url(#SVGID_00000020399495816469545380000016892733362364916665_);}
	.st4{fill:url(#SVGID_00000098222312710255392730000011374947697183597453_);}
</style>
<g>
	<g>
		<path class="st0" d="M24.8,33.6c5,0,8.4-4,8.4-9.9c0-5.9-3.4-9.9-8.4-9.9c-5,0-8.4,4-8.4,9.9C16.4,29.7,19.8,33.6,24.8,33.6z
			 M24.8,16.4c4.4,0,6,3.8,6,7.4c0,3.6-1.6,7.4-6,7.4c-4.4,0-6-3.8-6-7.4C18.9,20.2,20.5,16.4,24.8,16.4z"/>
		<path class="st0" d="M55.8,28.5c-0.6-1.5-1.8-2.7-3.3-3.3c-2.1-0.7-4.3-0.2-5.8,1.3c-0.4-1.8-1.8-3.3-3.7-3.7
			c-2.3-0.5-4.5,0.8-5.3,3l-4,10.5l-11.2-0.1c-2.4,0-4.8,0.9-6.5,2.6c-1.7,1.7-2.7,4-2.7,6.5c0,0.1,0,0.1,0,0.2l1.1,8.2
			c0.3,2.5,0.3,5,0,7.4l-0.8,6.1c0,0.1,0,0.1,0,0.2l0.1,20.2c0,0.7,0.6,1.2,1.2,1.2c0,0,0,0,0,0c0.7,0,1.2-0.6,1.2-1.2l-0.1-20.1
			l0.7-6c0.3-2.7,0.3-5.4,0-8.1l-1.1-8.2c0-1.8,0.7-3.4,2-4.6c1.3-1.3,2.9-2,4.7-1.9l18.3,0.2c0.4,0,0.8-0.2,1-0.6l6.3-9.6
			c0.8-1.2,2.3-1.7,3.6-1.2c0.9,0.3,1.5,1,1.8,1.8c0.3,0.8,0.3,1.8-0.2,2.6l-6.5,11.8c-0.7,1.3-1.9,2.2-3.4,2.3l-11.9,1.3
			c-0.7,0.1-1.2,0.7-1.1,1.4c0.1,0.7,0.7,1.2,1.4,1.1l1.5-0.2L36,67.6l0.5,20.2c0,0.7,0.6,1.2,1.2,1.2c0,0,0,0,0,0
			c0.7,0,1.2-0.6,1.2-1.3l-0.5-20.3c0-0.1,0-0.1,0-0.2l-2.6-17.9l7.9-0.9c2.3-0.3,4.3-1.6,5.3-3.6l6.4-11.7
			C56.3,31.8,56.4,30.1,55.8,28.5z M40.1,36.5l-3.8,0l3.7-9.7c0.4-1,1.5-1.6,2.6-1.4c1.2,0.2,2,1.4,1.8,2.6l-0.5,2.8L40.1,36.5z"/>
		<path class="st0" d="M24.7,72.7c-0.3-0.6-1.1-0.8-1.7-0.5c-0.6,0.3-0.8,1.1-0.5,1.7l1.1,2v11.8c0,0.7,0.6,1.2,1.2,1.2
			s1.2-0.6,1.2-1.2V75.6c0-0.2-0.1-0.4-0.2-0.6L24.7,72.7z"/>
	</g>
	<g>
		<linearGradient id="SVGID_1_" gradientUnits="userSpaceOnUse" x1="38.7931" y1="13.0841" x2="49.3119" y2="13.0841">
			<stop  offset="0" style="stop-color:#3AABDF"/>
			<stop  offset="1" style="stop-color:#63BD5E;stop-opacity:0.9"/>
		</linearGradient>
		<path class="st2" d="M49,5.5c-0.4-0.5-1.2-0.6-1.7-0.2L39.2,12c-0.3,0.2-0.4,0.6-0.4,0.9c0,0.4,0.2,0.7,0.4,0.9l8.1,6.9
			c0.2,0.2,0.5,0.3,0.8,0.3c0.3,0,0.7-0.1,0.9-0.4c0.4-0.5,0.4-1.3-0.1-1.7l-6.9-6l6.9-5.7C49.4,6.8,49.5,6,49,5.5z"/>
		
			<linearGradient id="SVGID_00000142153507613416062040000004906453238428634505_" gradientUnits="userSpaceOnUse" x1="58.155" y1="13.0841" x2="68.6739" y2="13.0841">
			<stop  offset="0" style="stop-color:#3AABDF"/>
			<stop  offset="1" style="stop-color:#63BD5E;stop-opacity:0.9"/>
		</linearGradient>
		<path style="fill:url(#SVGID_00000142153507613416062040000004906453238428634505_);" d="M68.2,12.3l-8.1-6.9
			c-0.5-0.4-1.3-0.4-1.7,0.1C58,6,58.1,6.8,58.6,7.2l6.9,6l-6.9,5.7c-0.5,0.4-0.6,1.2-0.2,1.7c0.2,0.3,0.6,0.4,1,0.4
			c0.3,0,0.6-0.1,0.8-0.3l8.1-6.6c0.3-0.2,0.4-0.6,0.4-0.9S68.5,12.5,68.2,12.3z"/>
		
			<linearGradient id="SVGID_00000001632888421476583790000010112534046929034926_" gradientUnits="userSpaceOnUse" x1="51.096" y1="12.5385" x2="56.4312" y2="12.5385">
			<stop  offset="0" style="stop-color:#3AABDF"/>
			<stop  offset="1" style="stop-color:#63BD5E;stop-opacity:0.9"/>
		</linearGradient>
		<path style="fill:url(#SVGID_00000001632888421476583790000010112534046929034926_);" d="M55.4,1c-0.7-0.1-1.3,0.4-1.4,1
			l-2.9,20.6c-0.1,0.7,0.4,1.3,1,1.4c0.1,0,0.1,0,0.2,0c0.6,0,1.1-0.4,1.2-1.1l2.9-20.6C56.5,1.7,56,1.1,55.4,1z"/>
	</g>
</g>
</svg>
