<?xml version="1.0" encoding="utf-8"?>
<!-- Generator: Adobe Illustrator 26.0.3, SVG Export Plug-In . SVG Version: 6.00 Build 0)  -->
<svg version="1.1" id="_x2018_ëîé_x5F_1" xmlns="http://www.w3.org/2000/svg" xmlns:xlink="http://www.w3.org/1999/xlink"
	 x="0px" y="0px" width="80px" height="80px" viewBox="0 0 80 80" enable-background="new 0 0 80 80" xml:space="preserve">
<linearGradient id="SVGID_1_" gradientUnits="userSpaceOnUse" x1="13.7318" y1="77.8311" x2="44.6561" y2="77.8311" gradientTransform="matrix(1 0 0 -1 0 100)">
	<stop  offset="0" style="stop-color:#3AABDF"/>
	<stop  offset="1" style="stop-color:#63BD5E"/>
</linearGradient>
<path fill="url(#SVGID_1_)" d="M27.734,37.603c-0.005,0-0.009,0-0.014,0c-0.319-0.004-0.624-0.134-0.848-0.362L14.074,24.143
	c-0.464-0.476-0.455-1.238,0.02-1.702L29.811,7.082c0.229-0.224,0.508-0.375,0.856-0.343c0.319,0.004,0.624,0.134,0.847,0.362
	l12.799,13.098c0.223,0.23,0.346,0.536,0.343,0.856c-0.004,0.319-0.134,0.624-0.363,0.847L28.575,37.261
	C28.35,37.48,28.048,37.603,27.734,37.603z M16.638,23.322l11.116,11.375L41.749,21.02L30.633,9.646L16.638,23.322z"/>
<linearGradient id="SVGID_00000159466852717610222280000011330517464501399738_" gradientUnits="userSpaceOnUse" x1="-1.274651e-04" y1="72.0932" x2="25.0982" y2="72.0932" gradientTransform="matrix(1 0 0 -1 0 100)">
	<stop  offset="0" style="stop-color:#3AABDF"/>
	<stop  offset="1" style="stop-color:#63BD5E"/>
</linearGradient>
<path fill="url(#SVGID_00000159466852717610222280000011330517464501399738_)" d="M14.004,43.34c-0.111,0-0.225-0.015-0.335-0.047
	c-0.416-0.121-0.736-0.456-0.837-0.878l-2.303-9.686l-9.63-2.526c-0.419-0.11-0.747-0.437-0.859-0.858
	c-0.111-0.419,0.012-0.867,0.323-1.169l15.718-15.359c0.476-0.466,1.237-0.456,1.702,0.019l3.84,3.929
	c0.464,0.476,0.455,1.238-0.02,1.702c-0.474,0.467-1.236,0.457-1.702-0.019l-2.998-3.069L3.566,28.412l8.273,2.17
	c0.429,0.111,0.762,0.452,0.866,0.885l1.979,8.32l8.37-8.179c0.476-0.465,1.237-0.456,1.702,0.019
	c0.464,0.476,0.455,1.238-0.02,1.702l-9.891,9.666C14.617,43.22,14.314,43.34,14.004,43.34z"/>
<linearGradient id="SVGID_00000134936172770550690760000017183457117737247644_" gradientUnits="userSpaceOnUse" x1="38.6801" y1="72.1145" x2="46.84" y2="72.1145" gradientTransform="matrix(1 0 0 -1 0 100)">
	<stop  offset="0" style="stop-color:#3AABDF"/>
	<stop  offset="1" style="stop-color:#63BD5E"/>
</linearGradient>
<path fill="url(#SVGID_00000134936172770550690760000017183457117737247644_)" d="M45.637,32.026c-0.312,0-0.624-0.121-0.861-0.362
	l-5.752-5.874c-0.466-0.475-0.457-1.237,0.018-1.702c0.475-0.464,1.236-0.457,1.702,0.019l5.752,5.874
	c0.466,0.475,0.457,1.237-0.018,1.702C46.245,31.912,45.941,32.026,45.637,32.026z"/>
<linearGradient id="SVGID_00000106838381950066693390000014037488579768616626_" gradientUnits="userSpaceOnUse" x1="22.9108" y1="82.686" x2="52.9342" y2="82.686" gradientTransform="matrix(1 0 0 -1 0 100)">
	<stop  offset="0" style="stop-color:#3AABDF"/>
	<stop  offset="1" style="stop-color:#63BD5E"/>
</linearGradient>
<path fill="url(#SVGID_00000106838381950066693390000014037488579768616626_)" d="M51.733,30.721c-0.313,0-0.625-0.121-0.862-0.362
	L27.804,6.752c-0.27-0.276-0.632-0.431-1.019-0.436c-0.415-0.002-0.752,0.142-1.029,0.412c-0.277,0.27-0.432,0.633-0.436,1.02
	c-0.005,0.387,0.142,0.752,0.412,1.029l1.934,1.975c0.465,0.475,0.457,1.238-0.018,1.702c-0.475,0.467-1.238,0.456-1.702-0.017
	l-1.936-1.976c-0.72-0.738-1.11-1.712-1.099-2.742c0.012-1.03,0.424-1.994,1.161-2.714s1.754-1.096,2.739-1.098
	c1.03,0.012,1.994,0.424,2.714,1.161l23.067,23.607c0.464,0.476,0.455,1.238-0.02,1.702C52.341,30.607,52.037,30.721,51.733,30.721z
	"/>
<linearGradient id="SVGID_00000157273546324075750500000007414655462505138879_" gradientUnits="userSpaceOnUse" x1="70.0414" y1="43.1866" x2="79.4993" y2="43.1866" gradientTransform="matrix(1 0 0 -1 0 100)">
	<stop  offset="0" style="stop-color:#3AABDF"/>
	<stop  offset="1" style="stop-color:#63BD5E"/>
</linearGradient>
<path fill="url(#SVGID_00000157273546324075750500000007414655462505138879_)" d="M75.643,61.633c-0.016,0-0.031,0-0.047,0
	c-1.03-0.012-1.994-0.424-2.714-1.161l-2.498-2.556c-0.464-0.476-0.456-1.238,0.02-1.702c0.477-0.464,1.237-0.455,1.703,0.019
	l2.498,2.556c0.27,0.277,0.632,0.431,1.02,0.436c0.342-0.006,0.752-0.142,1.029-0.411c0.277-0.27,0.432-0.633,0.436-1.02
	c0.005-0.387-0.142-0.752-0.412-1.029l-2.566-2.746c-0.454-0.486-0.428-1.247,0.057-1.701c0.487-0.454,1.249-0.428,1.702,0.058
	l2.548,2.726c0.702,0.717,1.092,1.689,1.08,2.721c-0.012,1.03-0.424,1.994-1.161,2.714C77.611,61.244,76.657,61.633,75.643,61.633z"
	/>
<path fill="#333333" d="M47.102,74.052c-0.308,0-0.616-0.117-0.852-0.353c-0.47-0.47-0.47-1.232,0-1.702l7.116-7.116l8.198-0.982
	l6.95-6.951c0.47-0.47,1.232-0.47,1.702,0s0.47,1.232,0,1.702l-7.539,7.541l-8.198,0.983L47.952,73.7
	C47.718,73.934,47.41,74.052,47.102,74.052z"/>
<path fill="#333333" d="M32.08,59.548c-0.308,0-0.616-0.117-0.852-0.353c-0.47-0.47-0.47-1.232,0-1.702l6.468-6.469l-0.015-10.026
	c-0.002-1.599,0.59-3.128,1.67-4.307l6.301-6.882c0.053-0.058,0.111-0.11,0.175-0.156c2.586-1.9,6.223-1.6,8.461,0.7L65.411,41.77
	c0.469,0.482,0.715,1.143,0.677,1.815c-0.039,0.672-0.36,1.299-0.881,1.722l-0.608,0.495c-2.736,2.227-6.72,2.066-9.267-0.378
	l-4.542-3.615c-0.52-0.415-0.605-1.173-0.191-1.692c0.415-0.521,1.174-0.603,1.692-0.192l4.625,3.689
	c1.754,1.674,4.368,1.782,6.164,0.32l0.609-0.495L52.564,32.033c-1.379-1.417-3.604-1.623-5.219-0.503l-6.216,6.787
	c-0.671,0.732-1.039,1.683-1.038,2.678l0.015,10.526c0.001,0.32-0.126,0.627-0.353,0.853l-6.821,6.822
	C32.697,59.431,32.388,59.548,32.08,59.548z"/>
<path fill="#333333" d="M69.318,58.679c-0.953,0-1.905-0.366-2.627-1.093l-1.758-1.773c-1.437-1.45-1.427-3.798,0.022-5.235
	l6.383-6.329c1.448-1.438,3.797-1.426,5.233,0.021l1.76,1.774c0.696,0.701,1.076,1.632,1.072,2.62
	c-0.004,0.989-0.394,1.917-1.095,2.613l-6.383,6.329C71.204,58.322,70.261,58.679,69.318,58.679z M73.945,45.585
	c-0.33,0-0.66,0.124-0.911,0.374l-6.383,6.329c-0.506,0.502-0.51,1.323-0.008,1.829l1.758,1.773
	c0.502,0.506,1.322,0.509,1.828,0.007l6.383-6.329c0.245-0.243,0.381-0.567,0.383-0.913c0.001-0.345-0.132-0.67-0.375-0.915
	l-1.759-1.774C74.61,45.711,74.277,45.585,73.945,45.585z"/>
<path fill="#333333" d="M64.045,53.359c-0.952,0-1.905-0.365-2.627-1.092l-2.462-2.483c-1.1-1.109-1.384-2.799-0.709-4.206
	l2.17,1.041c-0.236,0.492-0.136,1.081,0.248,1.47l2.462,2.483c0.502,0.506,1.324,0.508,1.828,0.007l7.447-7.383
	c0.506-0.502,0.51-1.323,0.008-1.829l-2.462-2.482c-0.243-0.245-0.568-0.381-0.913-0.384c-0.002,0-0.004,0-0.006,0
	c-0.343,0-0.666,0.133-0.91,0.375l-3.08,3.055l-1.695-1.709l3.08-3.055c0.698-0.693,1.623-1.073,2.605-1.073
	c0.006,0,0.011,0,0.017,0c0.988,0.005,1.916,0.394,2.612,1.096l2.461,2.482c1.437,1.449,1.427,3.796-0.022,5.234l-7.448,7.382
	C65.931,53.002,64.988,53.359,64.045,53.359z"/>
<path fill="#333333" d="M64.382,42.59l-1.696-1.709l4.803-4.77c0.507-0.502,0.51-1.323,0.008-1.829L65.036,31.8
	c-0.502-0.505-1.322-0.509-1.829-0.007l-4.486,4.574l-1.719-1.686l4.498-4.587c1.462-1.449,3.809-1.438,5.246,0.011l2.461,2.482
	c0.696,0.702,1.077,1.633,1.073,2.621c-0.004,0.989-0.394,1.917-1.095,2.613L64.382,42.59z"/>
<path fill="#333333" d="M58.4,36.621l-1.709-1.695l3.748-3.781c0.514-0.509,0.518-1.33,0.015-1.836l-2.461-2.482
	c-0.243-0.245-0.567-0.381-0.913-0.384c-0.372,0.004-0.67,0.132-0.916,0.375l-3.689,3.702l-1.706-1.7l3.694-3.706
	c0.704-0.698,1.628-1.078,2.611-1.078c0.006,0,0.011,0,0.017,0c0.988,0.005,1.916,0.394,2.612,1.096l2.461,2.482
	c0.696,0.702,1.077,1.633,1.073,2.621c-0.004,0.989-0.394,1.917-1.095,2.613L58.4,36.621z"/>
<path fill="#333333" d="M51.908,58.084c-0.263,0-0.529-0.085-0.75-0.263c-0.52-0.413-0.605-1.173-0.191-1.692
	c3.118-3.907,0.361-12.837-0.965-15.949c-0.26-0.611,0.024-1.318,0.635-1.579c0.612-0.261,1.319,0.024,1.58,0.636
	c0.218,0.51,5.276,12.575,0.633,18.395C52.612,57.929,52.262,58.084,51.908,58.084z"/>
<path fill="#333333" d="M28.83,78.348c-0.307,0-0.614-0.116-0.85-0.351c-0.471-0.469-0.473-1.232-0.004-1.703l11.087-11.135
	c0.469-0.469,1.231-0.473,1.702-0.004s0.473,1.232,0.004,1.703L29.684,77.995C29.448,78.229,29.139,78.348,28.83,78.348z"/>
<path fill="#333333" d="M36.062,80c-0.305,0-0.611-0.115-0.846-0.347c-0.473-0.467-0.479-1.228-0.012-1.702l4.628-4.694
	c0.467-0.473,1.23-0.48,1.703-0.012c0.473,0.467,0.479,1.228,0.012,1.702l-4.628,4.694C36.684,79.881,36.373,80,36.062,80z"/>
<path fill="#333333" d="M33.212,65.203c-0.308,0-0.616-0.117-0.852-0.353c-0.47-0.47-0.47-1.232,0-1.702l1.46-1.461
	c0.47-0.47,1.232-0.47,1.702,0s0.47,1.232,0,1.702l-1.461,1.461C33.828,65.086,33.52,65.203,33.212,65.203z"/>
<path fill="#333333" d="M27.37,71.045c-0.308,0-0.616-0.117-0.852-0.353c-0.47-0.47-0.47-1.232,0-1.702l2.922-2.921
	c0.47-0.47,1.232-0.47,1.702,0s0.47,1.232,0,1.702l-2.922,2.921C27.986,70.928,27.678,71.045,27.37,71.045z"/>
</svg>
