<?xml version="1.0" encoding="utf-8"?>
<!-- Generator: Adobe Illustrator 26.0.3, SVG Export Plug-In . SVG Version: 6.00 Build 0)  -->
<svg version="1.1" id="_x2018_ëîé_x5F_1" xmlns="http://www.w3.org/2000/svg" xmlns:xlink="http://www.w3.org/1999/xlink"
	 x="0px" y="0px" width="80px" height="80px" viewBox="0 0 80 80" enable-background="new 0 0 80 80" xml:space="preserve">
<g>
	<g>
		<g>
			<g>
				<linearGradient id="SVGID_1_" gradientUnits="userSpaceOnUse" x1="60.1593" y1="41.151" x2="66.5923" y2="41.151">
					<stop  offset="0" style="stop-color:#3AABDF"/>
					<stop  offset="1" style="stop-color:#63BD5E"/>
				</linearGradient>
				<path fill="url(#SVGID_1_)" d="M61.237,42.247c-0.591,0-1.073-0.477-1.078-1.068c-0.005-0.596,0.473-1.082,1.068-1.087
					l4.277-0.037c0.003,0,0.006,0,0.009,0c0.591,0,1.073,0.477,1.078,1.068c0.005,0.596-0.473,1.082-1.068,1.087l-4.277,0.037
					C61.243,42.247,61.24,42.247,61.237,42.247z"/>
			</g>
			<g>
				<g>
					
						<linearGradient id="SVGID_00000097468943880160499190000006613879864094993814_" gradientUnits="userSpaceOnUse" x1="35.0964" y1="4.5095" x2="37.2519" y2="4.5095">
						<stop  offset="0" style="stop-color:#3AABDF"/>
						<stop  offset="1" style="stop-color:#63BD5E"/>
					</linearGradient>
					<path fill="url(#SVGID_00000097468943880160499190000006613879864094993814_)" d="M36.174,8.519
						c-0.595,0-1.078-0.482-1.078-1.078V1.578c0-0.596,0.483-1.078,1.078-1.078c0.595,0,1.078,0.482,1.078,1.078v5.863
						C37.252,8.037,36.769,8.519,36.174,8.519z"/>
				</g>
			</g>
		</g>
		<g>
			<g>
				
					<linearGradient id="SVGID_00000121269539126374054090000008060043467328394912_" gradientUnits="userSpaceOnUse" x1="51.3098" y1="10.7914" x2="56.0643" y2="10.7914">
					<stop  offset="0" style="stop-color:#3AABDF"/>
					<stop  offset="1" style="stop-color:#63BD5E"/>
				</linearGradient>
				<path fill="url(#SVGID_00000121269539126374054090000008060043467328394912_)" d="M52.387,14.087
					c-0.185,0-0.373-0.047-0.544-0.147c-0.514-0.301-0.686-0.962-0.385-1.476l2.599-4.435c0.301-0.514,0.961-0.684,1.475-0.385
					c0.514,0.301,0.686,0.962,0.385,1.476l-2.599,4.435C53.117,13.896,52.757,14.087,52.387,14.087z"/>
			</g>
			<g>
				<g>
					
						<linearGradient id="SVGID_00000080208177003140303380000013007548134921001124_" gradientUnits="userSpaceOnUse" x1="59.3803" y1="56.2092" x2="65.1057" y2="56.2092">
						<stop  offset="0" style="stop-color:#3AABDF"/>
						<stop  offset="1" style="stop-color:#63BD5E"/>
					</linearGradient>
					<path fill="url(#SVGID_00000080208177003140303380000013007548134921001124_)" d="M64.027,58.308
						c-0.182,0-0.365-0.045-0.534-0.142l-3.57-2.042c-0.517-0.296-0.696-0.955-0.4-1.47c0.295-0.518,0.953-0.697,1.471-0.401
						l3.57,2.042c0.517,0.296,0.696,0.955,0.4,1.47C64.765,58.113,64.401,58.308,64.027,58.308z"/>
				</g>
			</g>
		</g>
		<g>
			<g>
				
					<linearGradient id="SVGID_00000142133640813916505560000005589717703747303101_" gradientUnits="userSpaceOnUse" x1="60.6535" y1="25.1261" x2="67.078" y2="25.1261">
					<stop  offset="0" style="stop-color:#3AABDF"/>
					<stop  offset="1" style="stop-color:#63BD5E"/>
				</linearGradient>
				<path fill="url(#SVGID_00000142133640813916505560000005589717703747303101_)" d="M61.732,27.469
					c-0.368,0-0.727-0.188-0.928-0.528c-0.303-0.512-0.134-1.174,0.378-1.477l4.269-2.53c0.512-0.303,1.173-0.135,1.477,0.378
					c0.303,0.512,0.134,1.174-0.378,1.477l-4.269,2.53C62.109,27.421,61.919,27.469,61.732,27.469z"/>
			</g>
			<g>
				<g>
					
						<linearGradient id="SVGID_00000107561673679796501770000009833196921221463997_" gradientUnits="userSpaceOnUse" x1="15.9366" y1="10.3583" x2="20.5833" y2="10.3583">
						<stop  offset="0" style="stop-color:#3AABDF"/>
						<stop  offset="1" style="stop-color:#63BD5E"/>
					</linearGradient>
					<path fill="url(#SVGID_00000107561673679796501770000009833196921221463997_)" d="M19.506,13.385
						c-0.356,0-0.704-0.176-0.909-0.498l-2.491-3.897c-0.32-0.501-0.174-1.167,0.328-1.488c0.504-0.32,1.169-0.173,1.489,0.328
						l2.491,3.897c0.32,0.501,0.174,1.167-0.328,1.488C19.906,13.33,19.705,13.385,19.506,13.385z"/>
				</g>
			</g>
		</g>
	</g>
	<path fill="#333333" d="M64.682,74.644H7.103c-0.595,0-1.078-0.482-1.078-1.078c0-0.596,0.483-1.078,1.078-1.078h57.579
		c0.595,0,1.078,0.482,1.078,1.078C65.76,74.162,65.277,74.644,64.682,74.644z"/>
	<path fill="#333333" d="M70.708,80H1.078C0.483,80,0,79.518,0,78.922c0-0.596,0.483-1.078,1.078-1.078h69.63
		c0.595,0,1.078,0.482,1.078,1.078C71.786,79.518,71.303,80,70.708,80z"/>
	<path fill="#333333" d="M55.232,61.661H25.26c-0.595,0-1.078-0.482-1.078-1.078V53.09c0-0.596,0.483-1.078,1.078-1.078h29.972
		c0.595,0,1.078,0.482,1.078,1.078v7.494C56.309,61.179,55.827,61.661,55.232,61.661z M26.338,59.506h27.816v-5.338H26.338V59.506z"
		/>
	<path fill="#333333" d="M55.232,46.675H40.927c-0.595,0-1.078-0.482-1.078-1.078v-7.493c0-0.596,0.483-1.078,1.078-1.078h14.305
		c0.595,0,1.078,0.482,1.078,1.078v7.493C56.309,46.193,55.827,46.675,55.232,46.675z M42.004,44.519h12.149v-5.337H42.004V44.519z"
		/>
	<path fill="#333333" d="M55.232,39.182H48.42c-0.595,0-1.078-0.482-1.078-1.078v-7.493c0-0.596,0.483-1.078,1.078-1.078h6.131
		c0.595,0,1.078,0.482,1.078,1.078c0,0.596-0.483,1.078-1.078,1.078h-5.053v5.337h5.734c0.595,0,1.078,0.482,1.078,1.078
		C56.309,38.7,55.827,39.182,55.232,39.182z"/>
	<path fill="#333333" d="M55.232,54.168H32.753c-0.595,0-1.078-0.482-1.078-1.078v-7.493c0-0.596,0.483-1.078,1.078-1.078h22.479
		c0.595,0,1.078,0.482,1.078,1.078v7.493C56.309,53.686,55.827,54.168,55.232,54.168z M33.83,52.012h20.324v-5.337H33.83V52.012z"/>
	<path fill="#333333" d="M18.163,66.999v-5.337h35.99v5.337h2.156v-6.415c0-0.596-0.483-1.078-1.078-1.078H17.086
		c-0.595,0-1.078,0.482-1.078,1.078v7.493"/>
	
		<linearGradient id="SVGID_00000134238228766390567770000003584158739334454940_" gradientUnits="userSpaceOnUse" x1="12.0515" y1="41.2367" x2="59.7342" y2="41.2367">
		<stop  offset="0" style="stop-color:#3AABDF"/>
		<stop  offset="1" style="stop-color:#63BD5E"/>
	</linearGradient>
	<path fill="url(#SVGID_00000134238228766390567770000003584158739334454940_)" d="M58.656,67.132h-2.347V33.336
		c0-11.111-9.04-20.15-20.151-20.15s-20.15,9.039-20.15,20.15v33.797h-2.879c-0.595,0-1.078,0.482-1.078,1.078
		c0,0.596,0.483,1.078,1.078,1.078h45.527c0.595,0,1.078-0.482,1.078-1.078C59.734,67.614,59.252,67.132,58.656,67.132z
		 M18.163,33.336c0-9.922,8.073-17.994,17.995-17.994c9.923,0,17.995,8.073,17.995,17.994v33.663h-35.99V33.336z"/>
</g>
</svg>
