<?xml version="1.0" encoding="utf-8"?>
<!-- Generator: Adobe Illustrator 26.3.1, SVG Export Plug-In . SVG Version: 6.00 Build 0)  -->
<svg version="1.1" id="Layer_1" xmlns="http://www.w3.org/2000/svg" xmlns:xlink="http://www.w3.org/1999/xlink" x="0px" y="0px"
	 width="40px" height="40px" viewBox="0 0 40 40" enable-background="new 0 0 40 40" xml:space="preserve">
<g>
	<linearGradient id="SVGID_1_" gradientUnits="userSpaceOnUse" x1="12.7831" y1="11.5563" x2="27.1446" y2="11.5563">
		<stop  offset="0" style="stop-color:#3AABDE"/>
		<stop  offset="1" style="stop-color:#65BD5F;stop-opacity:0.9"/>
	</linearGradient>
	<path fill="url(#SVGID_1_)" d="M14.371,13.145h11.185c0.877,0,1.588-0.711,1.588-1.588c0-0.877-0.711-1.588-1.588-1.588H14.371
		c-0.877,0-1.588,0.711-1.588,1.588C12.783,12.434,13.494,13.145,14.371,13.145z"/>
	
		<linearGradient id="SVGID_00000082339090007579312510000004271253497688283541_" gradientUnits="userSpaceOnUse" x1="12.7831" y1="18.19" x2="27.1446" y2="18.19">
		<stop  offset="0" style="stop-color:#3AABDE"/>
		<stop  offset="1" style="stop-color:#65BD5F;stop-opacity:0.9"/>
	</linearGradient>
	<path fill="url(#SVGID_00000082339090007579312510000004271253497688283541_)" d="M14.371,19.778h11.185
		c0.877,0,1.588-0.711,1.588-1.588s-0.711-1.588-1.588-1.588H14.371c-0.877,0-1.588,0.711-1.588,1.588S13.494,19.778,14.371,19.778z
		"/>
	
		<linearGradient id="SVGID_00000026852821060213378480000016352068060601439904_" gradientUnits="userSpaceOnUse" x1="12.7831" y1="25.0608" x2="27.1446" y2="25.0608">
		<stop  offset="0" style="stop-color:#3AABDE"/>
		<stop  offset="1" style="stop-color:#65BD5F;stop-opacity:0.9"/>
	</linearGradient>
	<path fill="url(#SVGID_00000026852821060213378480000016352068060601439904_)" d="M14.371,26.649h11.185
		c0.877,0,1.588-0.711,1.588-1.588s-0.711-1.588-1.588-1.588H14.371c-0.877,0-1.588,0.711-1.588,1.588S13.494,26.649,14.371,26.649z
		"/>
	
		<linearGradient id="SVGID_00000181783832759847186230000003915799397286051712_" gradientUnits="userSpaceOnUse" x1="5.8142" y1="19.9843" x2="34.1135" y2="19.9843">
		<stop  offset="0" style="stop-color:#3AABDE"/>
		<stop  offset="1" style="stop-color:#65BD5F;stop-opacity:0.9"/>
	</linearGradient>
	<path fill="url(#SVGID_00000181783832759847186230000003915799397286051712_)" d="M32.525,0.484c-0.061,0-0.12,0.011-0.179,0.018
		c-0.06-0.007-0.118-0.018-0.179-0.018H7.402c-0.877,0-1.588,0.711-1.588,1.588v35.823c0,0.088,0.012,0.173,0.026,0.258
		c0.003,0.02,0.002,0.042,0.006,0.062c0.04,0.197,0.119,0.38,0.225,0.543c0.005,0.008,0.008,0.017,0.014,0.025
		c0.035,0.052,0.079,0.097,0.12,0.145c0.026,0.03,0.047,0.063,0.074,0.09c0.028,0.028,0.061,0.049,0.09,0.074
		c0.047,0.041,0.093,0.085,0.145,0.12c0.008,0.005,0.017,0.008,0.025,0.014c0.163,0.106,0.345,0.185,0.543,0.225
		c0.02,0.004,0.042,0.003,0.062,0.006c0.085,0.014,0.17,0.026,0.258,0.026h24.765c0.061,0,0.119-0.011,0.179-0.018
		c0.059,0.007,0.118,0.018,0.179,0.018c0.877,0,1.588-0.711,1.588-1.588V2.073C34.113,1.196,33.402,0.484,32.525,0.484z
		 M30.937,36.308H8.991V3.661h21.946V36.308z"/>
</g>
</svg>
