<?xml version="1.0" encoding="utf-8"?>
<!-- Generator: Adobe Illustrator 26.3.1, SVG Export Plug-In . SVG Version: 6.00 Build 0)  -->
<svg version="1.1" id="Layer_1" xmlns="http://www.w3.org/2000/svg" xmlns:xlink="http://www.w3.org/1999/xlink" x="0px" y="0px"
	 width="40px" height="40px" viewBox="0 0 40 40" enable-background="new 0 0 40 40" xml:space="preserve">
<g>
	<linearGradient id="SVGID_1_" gradientUnits="userSpaceOnUse" x1="0.2425" y1="20" x2="39.7575" y2="20">
		<stop  offset="0" style="stop-color:#3AABDE"/>
		<stop  offset="1" style="stop-color:#65BD5F;stop-opacity:0.9"/>
	</linearGradient>
	<path fill="url(#SVGID_1_)" d="M32.536,4.726L32.536,4.726L32.536,4.726c-0.001-0.001-0.003-0.003-0.005-0.004l-0.682-0.561
		l-0.032,0.026c-1.536-1.149-3.218-2.067-5.026-2.728l-0.014-0.025L26.384,1.3c-0.001,0-0.003-0.001-0.005-0.002v0
		c-4.118-1.405-8.64-1.405-12.758,0v0C13.62,1.299,13.618,1.3,13.616,1.3l-0.393,0.134L13.209,1.46
		c-1.808,0.661-3.49,1.579-5.026,2.728L8.152,4.161L7.469,4.723C7.468,4.724,7.466,4.725,7.464,4.726v0l0,0
		c-4.59,3.771-7.222,9.338-7.222,15.271c0,5.933,2.632,11.499,7.221,15.271l0,0l0,0c0,0,0.001,0,0.001,0.001l0.686,0.564
		l0.032-0.026c1.535,1.149,3.218,2.066,5.026,2.728l0.014,0.026l0.398,0.136c2.059,0.703,4.205,1.059,6.379,1.059
		s4.32-0.356,6.379-1.059l0.398-0.136l0.014-0.026c1.808-0.661,3.491-1.579,5.026-2.728l0.032,0.026l0.686-0.564
		c0,0,0,0,0.001-0.001l0,0v0c4.59-3.772,7.222-9.338,7.222-15.271C39.758,14.064,37.125,8.498,32.536,4.726z M37.556,18.915H30.81
		c-0.075-3.673-0.524-7.243-1.323-10.433l0.011-0.005l-0.006-0.021c0.808-0.443,1.585-0.943,2.323-1.493
		C35.23,10.058,37.276,14.328,37.556,18.915z M28.866,33.678c0.403,0.235,0.795,0.488,1.178,0.754
		c-0.588,0.41-1.202,0.777-1.835,1.111C28.443,34.95,28.66,34.323,28.866,33.678z M27.484,30.583
		c-2.373-0.976-4.883-1.474-7.484-1.474s-5.111,0.498-7.484,1.474c-0.695-2.918-1.089-6.16-1.16-9.503h17.289
		C28.573,24.423,28.179,27.665,27.484,30.583z M11.134,6.317c-0.403-0.236-0.796-0.488-1.178-0.754
		c0.588-0.41,1.202-0.777,1.835-1.111C11.557,5.045,11.34,5.671,11.134,6.317z M11.134,33.678c0.207,0.645,0.423,1.272,0.657,1.865
		c-0.633-0.334-1.247-0.701-1.835-1.111C10.338,34.166,10.731,33.913,11.134,33.678z M11.356,18.915
		c0.071-3.343,0.465-6.585,1.16-9.503C14.89,10.388,17.4,10.885,20,10.885c2.6,0,5.11-0.498,7.484-1.474
		c0.695,2.918,1.089,6.161,1.16,9.503H11.356z M28.866,6.317c-0.207-0.645-0.423-1.272-0.657-1.865
		c0.633,0.334,1.247,0.701,1.835,1.111C29.662,5.829,29.269,6.081,28.866,6.317z M25.279,3.216c0.618,1.193,1.167,2.564,1.635,4.091
		C24.729,8.245,22.407,8.721,20,8.721s-4.728-0.475-6.915-1.413c0.469-1.527,1.017-2.898,1.635-4.091
		C18.141,2.14,21.859,2.14,25.279,3.216z M8.185,6.964c0.737,0.55,1.514,1.05,2.323,1.493l-0.006,0.021l0.011,0.005
		c-0.799,3.19-1.248,6.759-1.323,10.433H2.444C2.724,14.328,4.77,10.058,8.185,6.964z M2.444,21.08H9.19
		c0.075,3.673,0.524,7.243,1.323,10.432l-0.011,0.005l0.006,0.02C9.7,31.981,8.923,32.48,8.185,33.031
		C4.77,29.936,2.724,25.667,2.444,21.08z M14.721,36.778c-0.619-1.193-1.167-2.564-1.635-4.091c2.185-0.938,4.507-1.413,6.915-1.413
		c2.408,0,4.73,0.475,6.915,1.413c-0.469,1.527-1.017,2.898-1.635,4.091C21.859,37.855,18.141,37.855,14.721,36.778z M31.815,33.031
		c-0.738-0.551-1.515-1.05-2.323-1.493l0.006-0.02l-0.011-0.005c0.799-3.189,1.248-6.759,1.323-10.432h6.745
		C37.276,25.667,35.23,29.936,31.815,33.031z"/>
</g>
</svg>
