<?xml version="1.0" encoding="utf-8"?>
<!-- Generator: Adobe Illustrator 26.3.1, SVG Export Plug-In . SVG Version: 6.00 Build 0)  -->
<svg version="1.1" id="Layer_1" xmlns="http://www.w3.org/2000/svg" xmlns:xlink="http://www.w3.org/1999/xlink" x="0px" y="0px"
	 width="40px" height="40px" viewBox="0 0 40 40" enable-background="new 0 0 40 40" xml:space="preserve">
<g>
	<linearGradient id="SVGID_1_" gradientUnits="userSpaceOnUse" x1="0.5001" y1="20.7122" x2="14.2293" y2="20.7122">
		<stop  offset="0" style="stop-color:#3AABDE"/>
		<stop  offset="1" style="stop-color:#65BD5F;stop-opacity:0.9"/>
	</linearGradient>
	<path fill="url(#SVGID_1_)" d="M4.602,20.559l9.043-7.458c0.684-0.565,0.782-1.578,0.217-2.262
		c-0.565-0.684-1.578-0.782-2.262-0.217L1.084,19.295c-0.366,0.302-0.58,0.75-0.584,1.224c-0.005,0.474,0.2,0.926,0.56,1.235
		l10.515,9.029c0.303,0.26,0.676,0.388,1.046,0.388c0.453,0,0.902-0.19,1.22-0.56c0.578-0.673,0.501-1.688-0.172-2.266L4.602,20.559
		z"/>
	
		<linearGradient id="SVGID_00000178185611579353914380000003331633610715581350_" gradientUnits="userSpaceOnUse" x1="25.771" y1="20.7124" x2="39.5001" y2="20.7124">
		<stop  offset="0" style="stop-color:#3AABDE"/>
		<stop  offset="1" style="stop-color:#65BD5F;stop-opacity:0.9"/>
	</linearGradient>
	<path fill="url(#SVGID_00000178185611579353914380000003331633610715581350_)" d="M38.94,19.671l-10.515-9.029
		c-0.674-0.578-1.688-0.501-2.266,0.172c-0.578,0.673-0.501,1.688,0.173,2.266l9.067,7.785l-9.043,7.459
		c-0.684,0.565-0.781,1.577-0.217,2.262c0.317,0.385,0.777,0.585,1.24,0.585c0.36,0,0.722-0.121,1.022-0.368l10.515-8.673
		c0.366-0.302,0.58-0.749,0.584-1.224C39.505,20.432,39.3,19.98,38.94,19.671z"/>
	
		<linearGradient id="SVGID_00000181765923986135699940000005131147133934321558_" gradientUnits="userSpaceOnUse" x1="16.5576" y1="20" x2="23.521" y2="20">
		<stop  offset="0" style="stop-color:#3AABDE"/>
		<stop  offset="1" style="stop-color:#65BD5F;stop-opacity:0.9"/>
	</linearGradient>
	<path fill="url(#SVGID_00000181765923986135699940000005131147133934321558_)" d="M22.136,4.956
		c-0.88-0.123-1.691,0.491-1.813,1.37l-3.749,26.906c-0.123,0.879,0.491,1.691,1.37,1.813c0.075,0.01,0.15,0.016,0.224,0.016
		c0.789,0,1.477-0.582,1.589-1.385l3.749-26.905C23.628,5.89,23.015,5.078,22.136,4.956z"/>
</g>
</svg>
