<?xml version="1.0" encoding="utf-8"?>
<!-- Generator: Adobe Illustrator 26.3.1, SVG Export Plug-In . SVG Version: 6.00 Build 0)  -->
<svg version="1.1" id="Layer_1" xmlns="http://www.w3.org/2000/svg" xmlns:xlink="http://www.w3.org/1999/xlink" x="0px" y="0px"
	 width="40px" height="40px" viewBox="0 0 40 40" enable-background="new 0 0 40 40" xml:space="preserve">
<g>
	<linearGradient id="SVGID_1_" gradientUnits="userSpaceOnUse" x1="15.3968" y1="28.1572" x2="23.8781" y2="28.1572">
		<stop  offset="0" style="stop-color:#3AABDE"/>
		<stop  offset="1" style="stop-color:#65BD5F;stop-opacity:0.9"/>
	</linearGradient>
	<path fill="url(#SVGID_1_)" d="M19.638,21.237c-2.338,0-4.241,1.902-4.241,4.24c0,0.798,0.235,1.586,0.67,2.266v3.764
		c0,1.969,1.602,3.571,3.571,3.571c1.969,0,3.571-1.602,3.571-3.571v-3.764c0.435-0.68,0.67-1.468,0.67-2.266
		C23.878,23.139,21.976,21.237,19.638,21.237z M20.77,26.416c-0.206,0.248-0.318,0.559-0.318,0.881v4.21
		c0,0.449-0.365,0.815-0.815,0.815s-0.815-0.365-0.815-0.815v-4.21c0-0.322-0.113-0.633-0.318-0.881
		c-0.16-0.193-0.352-0.513-0.352-0.939c0-0.819,0.666-1.484,1.485-1.484s1.484,0.666,1.484,1.484
		C21.122,25.904,20.931,26.223,20.77,26.416z"/>
	
		<linearGradient id="SVGID_00000114791486048850060520000002954923434590511282_" gradientUnits="userSpaceOnUse" x1="5.5906" y1="27.2438" x2="33.6843" y2="27.2438">
		<stop  offset="0" style="stop-color:#3AABDE"/>
		<stop  offset="1" style="stop-color:#65BD5F;stop-opacity:0.9"/>
	</linearGradient>
	<path fill="url(#SVGID_00000114791486048850060520000002954923434590511282_)" d="M27.434,14.659H11.841
		c-3.446,0-6.251,2.804-6.251,6.25v12.669c0,3.447,2.804,6.251,6.251,6.251h15.592c3.447,0,6.251-2.804,6.251-6.251V20.909
		C33.684,17.463,30.88,14.659,27.434,14.659z M30.928,33.578c0,1.927-1.568,3.495-3.495,3.495H11.841
		c-1.927,0-3.495-1.568-3.495-3.495V20.909c0-1.927,1.568-3.494,3.495-3.494h15.592c1.927,0,3.495,1.567,3.495,3.494V33.578z"/>
	
		<linearGradient id="SVGID_00000170984729897481314860000004759292680709358761_" gradientUnits="userSpaceOnUse" x1="9.7766" y1="7.1254" x2="29.4247" y2="7.1254">
		<stop  offset="0" style="stop-color:#3AABDE"/>
		<stop  offset="1" style="stop-color:#65BD5F;stop-opacity:0.9"/>
	</linearGradient>
	<path fill="url(#SVGID_00000170984729897481314860000004759292680709358761_)" d="M11.155,13.422c0.761,0,1.378-0.617,1.378-1.378
		c0-4.823,3.038-8.459,7.068-8.459c4.03,0,7.068,3.637,7.068,8.459c0,0.761,0.617,1.378,1.378,1.378s1.378-0.617,1.378-1.378
		c0-6.394-4.224-11.216-9.824-11.216c-5.6,0-9.824,4.822-9.824,11.216C9.777,12.805,10.394,13.422,11.155,13.422z"/>
</g>
</svg>
