<?xml version="1.0" encoding="utf-8"?>
<!-- Generator: Adobe Illustrator 25.0.1, SVG Export Plug-In . SVG Version: 6.00 Build 0)  -->
<svg version="1.1" id="Capa_1" xmlns="http://www.w3.org/2000/svg" xmlns:xlink="http://www.w3.org/1999/xlink" x="0px" y="0px"
	 viewBox="0 0 60 60" style="enable-background:new 0 0 60 60;" xml:space="preserve">
<style type="text/css">
	.st0{fill:#03ABE8;}
</style>
<g>
	<g>
		<path class="st0" d="M6.8,32.1c-0.4-3.2-0.1-6.2,0.8-9.1C10.4,13.6,19,6.7,29.3,6.6V0.4c0-0.3,0.4-0.5,0.7-0.3l12.7,9.3
			c0.2,0.2,0.2,0.5,0,0.6L30,19.3c-0.3,0.2-0.7,0-0.7-0.3v-6.1c-6.8,0.1-12.5,4.3-15,10.2c-0.9,2.2-1.4,4.7-1.3,7.3
			c0.2,3.5,1.5,6.8,3.6,9.4c1.1,1.4,0.9,3.5-0.6,4.5c-1.4,1-3.3,0.7-4.4-0.6C9.1,40.4,7.3,36.4,6.8,32.1z M43.4,20.3
			c2.1,2.6,3.4,5.9,3.6,9.4c0.1,2.6-0.4,5-1.3,7.3c-2.5,5.9-8.2,10.1-15,10.2V41c0-0.3-0.4-0.5-0.7-0.3L17.4,50
			c-0.2,0.2-0.2,0.5,0,0.6L30,59.9c0.3,0.2,0.7,0,0.7-0.3v-6.2c10.3-0.1,18.9-7,21.7-16.5c0.8-2.8,1.1-5.9,0.8-9.1
			c-0.5-4.3-2.2-8.3-4.8-11.5c-1.1-1.3-3-1.6-4.4-0.6C42.5,16.8,42.3,18.9,43.4,20.3z"/>
	</g>
</g>
</svg>
