<?xml version="1.0" encoding="utf-8"?>
<!-- Generator: Adobe Illustrator 26.0.3, SVG Export Plug-In . SVG Version: 6.00 Build 0)  -->
<svg version="1.1" id="Layer_1" xmlns="http://www.w3.org/2000/svg" xmlns:xlink="http://www.w3.org/1999/xlink" x="0px" y="0px"
	 width="24px" height="24px" viewBox="320.772 74.603 24 24" enable-background="new 320.772 74.603 24 24" xml:space="preserve">
<linearGradient id="SVGID_1_" gradientUnits="userSpaceOnUse" x1="321.0215" y1="86.6025" x2="344.5215" y2="86.6025">
	<stop  offset="0" style="stop-color:#3AABDF"/>
	<stop  offset="1" style="stop-color:#63BD5E"/>
</linearGradient>
<path fill="url(#SVGID_1_)" d="M344.522,86.603c0,0.496-0.031,0.999-0.094,1.495c-0.744,5.847-5.756,10.255-11.656,10.255
	c-6.478,0-11.75-5.271-11.75-11.75c0-6.479,5.272-11.75,11.75-11.75c1.569,0,3.095,0.305,4.532,0.906
	c0.383,0.16,0.562,0.599,0.403,0.981c-0.161,0.382-0.6,0.562-0.981,0.402c-1.254-0.524-2.584-0.79-3.954-0.79
	c-5.652,0-10.25,4.598-10.25,10.25c0,5.652,4.598,10.25,10.25,10.25c5.147,0,9.518-3.845,10.168-8.943
	c0.055-0.433,0.082-0.872,0.082-1.307c0-0.414,0.336-0.75,0.75-0.75C344.186,85.853,344.522,86.188,344.522,86.603z M328.049,91.836
	c0,0.99,0.803,1.794,1.793,1.794c0.99,0,1.793-0.804,1.793-1.794c0-0.991-0.803-1.793-1.793-1.793
	C328.852,90.043,328.049,90.845,328.049,91.836z M334.386,91.836c0,0.99,0.803,1.794,1.793,1.794s1.794-0.804,1.794-1.794
	c0-0.991-0.804-1.793-1.794-1.793S334.386,90.845,334.386,91.836z M327.836,81.186l-1.184,6.733
	c-0.039,0.219,0.022,0.442,0.164,0.612c0.143,0.17,0.353,0.268,0.574,0.268h11.617c0.327,0,0.616-0.212,0.715-0.523l3.329-10.512
	c0.125-0.395-0.094-0.816-0.488-0.941c-0.394-0.125-0.816,0.094-0.941,0.488l-3.163,9.988h-10.175l0.92-5.233h9.249
	c0.414,0,0.75-0.336,0.75-0.75c0-0.414-0.336-0.75-0.75-0.75h-9.879C328.21,80.565,327.898,80.827,327.836,81.186z"/>
</svg>
