<?xml version="1.0" encoding="utf-8"?>
<!-- Generator: Adobe Illustrator 26.3.1, SVG Export Plug-In . SVG Version: 6.00 Build 0)  -->
<svg version="1.1" id="Layer_1" xmlns="http://www.w3.org/2000/svg" xmlns:xlink="http://www.w3.org/1999/xlink" x="0px" y="0px"
	 width="20px" height="20px" viewBox="0 0 20 20" enable-background="new 0 0 20 20" xml:space="preserve">
<path fill="#666666" d="M8.467,19.75v-6.854h-2.49v-0.001V10.06h2.49V7.899V7.898c0-2.458,1.465-3.816,3.705-3.816
	c1.073,0,2.195,0.191,2.195,0.191v2.414v0.001h-1.236c-0.609,0-1.009,0.189-1.257,0.475c-0.247,0.286-0.342,0.669-0.342,1.057v1.84
	h2.72l-0.434,2.836h-2.286v6.854c4.69-0.736,8.277-4.794,8.277-9.69c0-5.417-4.392-9.81-9.81-9.81S0.19,4.643,0.19,10.06
	C0.19,14.956,3.778,19.014,8.467,19.75z"/>
</svg>
