<?xml version="1.0" encoding="utf-8"?>
<!-- Generator: Adobe Illustrator 26.0.3, SVG Export Plug-In . SVG Version: 6.00 Build 0)  -->
<svg version="1.1" id="Layer_1" xmlns="http://www.w3.org/2000/svg" xmlns:xlink="http://www.w3.org/1999/xlink" x="0px" y="0px"
	 width="20px" height="20px" viewBox="0 0 20 20" style="enable-background:new 0 0 20 20;" xml:space="preserve">
<style type="text/css">
	.st0{fill-rule:evenodd;clip-rule:evenodd;fill:#666666;}
</style>
<g>
	<path class="st0" d="M10,0.5c-5.4,0-9.7,4.4-9.7,9.8c0,4.3,2.8,8,6.7,9.3c0.5,0.1,0.7-0.2,0.7-0.5c0-0.2,0-0.8,0-1.7
		c-2.7,0.6-3.3-1.3-3.3-1.3c-0.4-1.1-1.1-1.4-1.1-1.4C2.3,14,3.3,14,3.3,14c1,0.1,1.5,1,1.5,1c0.9,1.5,2.3,1.1,2.8,0.8
		c0.1-0.6,0.3-1.1,0.6-1.3c-2.2-0.2-4.4-1.1-4.4-4.8c0-1.1,0.4-1.9,1-2.6C4.7,6.9,4.3,5.9,4.9,4.5c0,0,0.8-0.3,2.7,1
		C8.3,5.3,9.2,5.2,10,5.2c0.8,0,1.7,0.1,2.4,0.3c1.9-1.3,2.7-1,2.7-1c0.5,1.3,0.2,2.3,0.1,2.6c0.6,0.7,1,1.6,1,2.6
		c0,3.7-2.3,4.6-4.5,4.8c0.4,0.3,0.7,0.9,0.7,1.8c0,1.3,0,2.4,0,2.7c0,0.3,0.2,0.6,0.7,0.5c3.9-1.3,6.7-4.9,6.7-9.3
		C19.8,4.9,15.4,0.5,10,0.5z"/>
</g>
</svg>
