<?xml version="1.0" encoding="utf-8"?>
<!-- Generator: Adobe Illustrator 16.0.3, SVG Export Plug-In . SVG Version: 6.00 Build 0)  -->
<!DOCTYPE svg PUBLIC "-//W3C//DTD SVG 1.1//EN" "http://www.w3.org/Graphics/SVG/1.1/DTD/svg11.dtd">
<svg version="1.1" id="Layer_1" xmlns="http://www.w3.org/2000/svg" xmlns:xlink="http://www.w3.org/1999/xlink" x="0px" y="0px"
	 width="24px" height="24px" viewBox="289 74.603 24 24" enable-background="new 289 74.603 24 24" xml:space="preserve">
<g>
	<g>
		<path fill="#FFFFFF" d="M302.226,98.353h-2.453c-0.97,0-1.76-0.791-1.76-1.763c0-0.723-0.592-1.154-1.164-1.154
			c-0.209,0-0.518,0.059-0.799,0.34c-0.656,0.664-1.827,0.667-2.492,0.001l-1.735-1.734c-0.683-0.685-0.684-1.8-0.002-2.487
			c0.343-0.343,0.437-0.812,0.253-1.256c-0.184-0.443-0.581-0.709-1.061-0.709c-0.972,0-1.763-0.79-1.763-1.762v-2.451
			c0-0.971,0.791-1.762,1.763-1.762c0.48,0,0.877-0.265,1.061-0.709c0.185-0.444,0.091-0.913-0.249-1.253
			c-0.685-0.689-0.686-1.806-0.002-2.491l1.736-1.736c0.665-0.664,1.827-0.664,2.491,0c0.283,0.284,0.591,0.343,0.8,0.343
			c0.572,0,1.163-0.432,1.163-1.154c0-0.971,0.79-1.762,1.76-1.762h2.453c0.971,0,1.76,0.791,1.76,1.762
			c0,0.417,0.191,0.683,0.353,0.833c0.219,0.204,0.515,0.321,0.813,0.321c0.21,0,0.519-0.059,0.8-0.341
			c0.657-0.662,1.826-0.666,2.49-0.002l1.734,1.736c0.686,0.687,0.686,1.804,0.001,2.491c-0.341,0.341-0.435,0.81-0.25,1.254
			c0.184,0.443,0.581,0.708,1.062,0.708c0.972,0,1.763,0.791,1.763,1.762v2.451c0,0.972-0.791,1.762-1.763,1.762
			c-0.481,0-0.878,0.265-1.062,0.709c-0.185,0.444-0.091,0.913,0.249,1.253c0.687,0.689,0.686,1.807-0.001,2.491l-1.732,1.734
			c-0.662,0.663-1.828,0.666-2.492-0.001c-0.281-0.281-0.59-0.341-0.8-0.341c-0.572,0-1.164,0.432-1.164,1.154
			C303.985,97.562,303.196,98.353,302.226,98.353z M296.849,93.936c1.469,0,2.664,1.19,2.664,2.654c0,0.143,0.119,0.263,0.26,0.263
			h2.453c0.141,0,0.26-0.12,0.26-0.263c0-1.464,1.195-2.654,2.664-2.654c0.697,0,1.358,0.277,1.861,0.781
			c0.134,0.134,0.239,0.13,0.369,0.001l1.734-1.736c0.101-0.1,0.1-0.27-0.001-0.37c-0.771-0.771-0.991-1.878-0.573-2.887
			c0.417-1.009,1.355-1.635,2.447-1.635c0.143,0,0.263-0.12,0.263-0.262v-2.451c0-0.142-0.12-0.262-0.263-0.262
			c-1.092,0-2.029-0.626-2.447-1.634c-0.418-1.009-0.198-2.116,0.574-2.889c0.1-0.1,0.1-0.27-0.001-0.371l-1.732-1.735
			c-0.129-0.128-0.235-0.131-0.371,0c-0.982,0.988-2.691,0.993-3.695,0.057c-0.534-0.499-0.829-1.185-0.829-1.93
			c0-0.142-0.119-0.262-0.26-0.262h-2.453c-0.141,0-0.26,0.12-0.26,0.262c0,1.463-1.195,2.654-2.663,2.654
			c-0.696,0-1.357-0.277-1.86-0.779c-0.116-0.117-0.225-0.147-0.371-0.002l-1.735,1.735c-0.099,0.1-0.099,0.271,0.003,0.373
			c0.77,0.77,0.991,1.876,0.573,2.886c-0.417,1.009-1.355,1.635-2.447,1.635c-0.143,0-0.263,0.12-0.263,0.262v2.451
			c0,0.142,0.12,0.262,0.263,0.262c1.092,0,2.029,0.627,2.447,1.636s0.198,2.115-0.574,2.887c-0.1,0.101-0.101,0.271-0.001,0.37
			l1.735,1.734c0.133,0.133,0.238,0.132,0.37,0.001C295.491,94.213,296.151,93.936,296.849,93.936z"/>
	</g>
	<g>
		<path fill="#FFFFFF" d="M301,92.853c-3.446,0-6.25-2.804-6.25-6.249c0-3.447,2.804-6.251,6.25-6.251s6.25,2.804,6.25,6.251
			C307.25,90.049,304.446,92.853,301,92.853z M301,81.853c-2.619,0-4.75,2.131-4.75,4.751c0,2.618,2.131,4.749,4.75,4.749
			s4.75-2.131,4.75-4.749C305.75,83.984,303.619,81.853,301,81.853z"/>
	</g>
	<g>
		<path fill="#FFFFFF" d="M300.162,88.799L300.162,88.799c-0.199,0-0.39-0.079-0.53-0.22l-1.216-1.217
			c-0.293-0.293-0.293-0.768,0-1.06c0.293-0.293,0.768-0.293,1.061,0l0.686,0.686l2.361-2.361c0.293-0.293,0.768-0.293,1.061,0
			s0.293,0.768,0,1.061l-2.892,2.892C300.552,88.72,300.361,88.799,300.162,88.799z"/>
	</g>
</g>
</svg>
