<?xml version="1.0" encoding="utf-8"?>
<!-- Generator: Adobe Illustrator 16.0.3, SVG Export Plug-In . SVG Version: 6.00 Build 0)  -->
<!DOCTYPE svg PUBLIC "-//W3C//DTD SVG 1.1//EN" "http://www.w3.org/Graphics/SVG/1.1/DTD/svg11.dtd">
<svg version="1.1" id="Layer_1" xmlns="http://www.w3.org/2000/svg" xmlns:xlink="http://www.w3.org/1999/xlink" x="0px" y="0px"
	 width="24px" height="24px" viewBox="320.771 74.603 24 24" enable-background="new 320.771 74.603 24 24" xml:space="preserve">
<linearGradient id="SVGID_1_" gradientUnits="userSpaceOnUse" x1="321.0215" y1="86.6025" x2="344.5215" y2="86.6025">
	<stop  offset="0" style="stop-color:#3AABDF"/>
	<stop  offset="1" style="stop-color:#63BD5E"/>
</linearGradient>
<path fill="url(#SVGID_1_)" d="M343.771,74.853h-10.965c-6.498,0-11.785,5.288-11.785,11.787c0,6.459,5.287,11.713,11.785,11.713
	c6.46,0,11.715-5.254,11.715-11.713V75.603C344.521,75.188,344.186,74.853,343.771,74.853z M343.021,86.64
	c0,5.632-4.582,10.213-10.215,10.213c-5.672,0-10.285-4.581-10.285-10.213c0-5.672,4.613-10.287,10.285-10.287h10.215V86.64z
	 M332.135,94.698v-7.348h-7.636C324.925,91.29,328.135,94.396,332.135,94.698z M330.635,92.884
	c-1.956-0.638-3.521-2.126-4.246-4.033h4.246V92.884z M341.046,87.351h-7.637v7.348C337.41,94.396,340.62,91.29,341.046,87.351z
	 M334.909,92.884v-4.033h4.247C338.432,90.758,336.866,92.246,334.909,92.884z M341.046,78.427h-7.637v7.584h7.637V78.427z
	 M339.546,84.511h-4.637v-4.584h4.637V84.511z"/>
</svg>
