<?xml version="1.0" encoding="utf-8"?>
<!-- Generator: Adobe Illustrator 16.0.3, SVG Export Plug-In . SVG Version: 6.00 Build 0)  -->
<!DOCTYPE svg PUBLIC "-//W3C//DTD SVG 1.1//EN" "http://www.w3.org/Graphics/SVG/1.1/DTD/svg11.dtd">
<svg version="1.1" id="Layer_1" xmlns="http://www.w3.org/2000/svg" xmlns:xlink="http://www.w3.org/1999/xlink" x="0px" y="0px"
	 width="24px" height="24px" viewBox="289 74.603 24 24" enable-background="new 289 74.603 24 24" xml:space="preserve">
<path fill="#FFFFFF" d="M312,74.853h-10.965c-6.499,0-11.785,5.288-11.785,11.787c0,6.459,5.287,11.713,11.785,11.713
	c6.46,0,11.715-5.254,11.715-11.713V75.603C312.75,75.188,312.414,74.853,312,74.853z M311.25,86.64
	c0,5.632-4.582,10.213-10.215,10.213c-5.671,0-10.285-4.581-10.285-10.213c0-5.672,4.614-10.287,10.285-10.287h10.215V86.64z
	 M300.363,94.698v-7.348h-7.636C293.153,91.29,296.363,94.396,300.363,94.698z M298.863,92.884
	c-1.956-0.638-3.522-2.126-4.247-4.033h4.247V92.884z M309.274,87.351h-7.637v7.348C305.639,94.396,308.849,91.29,309.274,87.351z
	 M303.138,92.884v-4.033h4.247C306.66,90.758,305.095,92.246,303.138,92.884z M309.274,78.427h-7.637v7.584h7.637V78.427z
	 M307.774,84.511h-4.637v-4.584h4.637V84.511z"/>
</svg>
