<?xml version="1.0" encoding="utf-8"?>
<!-- Generator: Adobe Illustrator 16.0.3, SVG Export Plug-In . SVG Version: 6.00 Build 0)  -->
<!DOCTYPE svg PUBLIC "-//W3C//DTD SVG 1.1//EN" "http://www.w3.org/Graphics/SVG/1.1/DTD/svg11.dtd">
<svg version="1.1" id="Layer_1" xmlns="http://www.w3.org/2000/svg" xmlns:xlink="http://www.w3.org/1999/xlink" x="0px" y="0px"
	 width="24px" height="24px" viewBox="320.771 74.603 24 24" enable-background="new 320.771 74.603 24 24" xml:space="preserve">
<linearGradient id="SVGID_1_" gradientUnits="userSpaceOnUse" x1="321.0215" y1="86.6025" x2="344.5215" y2="86.6025">
	<stop  offset="0" style="stop-color:#3AABDF"/>
	<stop  offset="1" style="stop-color:#63BD5E"/>
</linearGradient>
<path fill="url(#SVGID_1_)" d="M343.629,86.738c0.811-0.791,1.096-1.95,0.746-3.025c-0.35-1.075-1.262-1.844-2.38-2.006
	l-3.792-0.554c-0.472-0.067-0.881-0.363-1.092-0.791l-1.694-3.435c-0.501-1.015-1.515-1.646-2.646-1.646
	c-1.132,0-2.145,0.631-2.645,1.646l-1.697,3.435c-0.211,0.427-0.618,0.723-1.092,0.791l-3.79,0.554
	c-1.118,0.163-2.029,0.931-2.38,2.006c-0.35,1.076-0.064,2.235,0.746,3.026l2.742,2.673c0.342,0.332,0.498,0.813,0.418,1.283
	l-0.648,3.773c-0.149,0.873,0.079,1.723,0.645,2.395c0.88,1.043,2.409,1.359,3.637,0.717l3.389-1.783
	c0.415-0.219,0.935-0.221,1.349,0l3.393,1.783c0.434,0.229,0.895,0.344,1.371,0.344c0.87,0,1.695-0.387,2.265-1.063
	c0.564-0.67,0.793-1.52,0.644-2.393l-0.647-3.773c-0.08-0.471,0.076-0.951,0.418-1.283L343.629,86.738z M339.84,88.338
	c-0.695,0.678-1.014,1.652-0.85,2.611l0.647,3.773c0.074,0.43-0.037,0.846-0.313,1.172c-0.431,0.512-1.183,0.678-1.79,0.357
	l-3.391-1.783c-0.421-0.223-0.896-0.34-1.374-0.34c-0.477,0-0.951,0.117-1.374,0.34l-3.388,1.783
	c-0.608,0.32-1.359,0.156-1.792-0.357c-0.275-0.326-0.386-0.742-0.313-1.172l0.648-3.775c0.163-0.959-0.155-1.934-0.85-2.609
	l-2.741-2.673c-0.405-0.395-0.542-0.951-0.367-1.488c0.175-0.537,0.611-0.905,1.17-0.986l3.788-0.553
	c0.962-0.138,1.793-0.741,2.222-1.612l1.697-3.435c0.25-0.507,0.735-0.809,1.3-0.809c0.563,0,1.05,0.303,1.3,0.81l1.695,3.436
	c0.432,0.871,1.263,1.473,2.222,1.61l3.791,0.554c0.558,0.081,0.994,0.45,1.169,0.986c0.175,0.537,0.038,1.093-0.366,1.488
	L339.84,88.338z M336.893,84.544c0.293,0.292,0.293,0.767,0,1.06l-5.056,5.058c-0.141,0.141-0.332,0.221-0.53,0.221
	c-0.199,0-0.391-0.08-0.531-0.221l-2.126-2.127c-0.292-0.293-0.292-0.77,0.001-1.061c0.293-0.293,0.768-0.293,1.061,0l1.596,1.596
	l4.525-4.526C336.125,84.25,336.6,84.25,336.893,84.544z"/>
</svg>
