<?xml version="1.0" encoding="utf-8"?>
<!-- Generator: Adobe Illustrator 26.3.1, SVG Export Plug-In . SVG Version: 6.00 Build 0)  -->
<svg version="1.1" id="Layer_1" xmlns="http://www.w3.org/2000/svg" xmlns:xlink="http://www.w3.org/1999/xlink" x="0px" y="0px"
	 width="20px" height="20px" viewBox="0 0 20 20" enable-background="new 0 0 20 20" xml:space="preserve">
<path fill="#666666" d="M19.75,10c0-5.384-4.365-9.75-9.75-9.75c-5.384,0-9.75,4.366-9.75,9.75c0,5.385,4.365,9.75,9.75,9.75
	C15.385,19.75,19.75,15.385,19.75,10z M7.8,14.251H5.911V8.184H7.8V14.251z M6.856,7.356c-0.605,0-1.095-0.491-1.095-1.094
	c0-0.603,0.49-1.093,1.095-1.093c0.604,0,1.093,0.49,1.093,1.093C7.949,6.865,7.46,7.356,6.856,7.356z M14.863,14.25h-1.884v-2.949
	c0-0.704-0.014-1.608-0.98-1.608c-0.981,0-1.131,0.766-1.131,1.557v3.001H8.983V8.184h1.808v0.83h0.025
	c0.253-0.477,0.867-0.98,1.786-0.98c1.909,0,2.261,1.256,2.261,2.89V14.25z"/>
</svg>
