<svg width="634" height="202" viewBox="0 0 634 202" fill="none" xmlns="http://www.w3.org/2000/svg">
<path d="M121.46 36.363C121.15 46.119 120.85 55.874 120.54 65.631C120.47 67.99 116.28 67.858 116.359 65.5C116.66 55.744 116.969 45.988 117.269 36.232C117.35 33.873 121.53 34.003 121.46 36.363ZM109.37 35.984C109.06 45.739 108.76 55.495 108.45 65.251C108.38 67.61 112.56 67.74 112.63 65.382C112.94 55.627 113.24 45.87 113.55 36.113C113.62 33.756 109.439 33.625 109.37 35.984ZM162.52 47.986C161.59 48.019 160.68 48.047 159.781 48.072C160.311 49.355 160.581 50.76 160.541 52.232C160.511 53.147 160.351 54.025 160.091 54.862C172.601 54.504 185.751 53.63 198.281 50.549C208.51 48.035 217.491 43.21 227.001 38.102C228.36 37.372 229.721 36.64 231.091 35.915C243.261 29.461 254.341 24.129 266.691 24.268C268.952 24.294 271.221 24.601 273.431 25.183C277.232 26.181 280.702 27.962 283.482 30.331C287.482 33.745 289.792 38.366 292.032 42.836C292.332 43.427 292.622 44.017 292.922 44.605C295.912 50.456 299.262 56.666 303.483 62.433C307.802 68.319 312.932 74.08 318.733 79.558C329.663 89.876 343.623 97.715 360.222 102.861C361.932 103.388 363.692 103.894 365.483 104.363C371.073 105.834 688.783 196.133 694.432 196.989L693.362 201.058C687.722 200.193 370.012 109.885 364.413 108.411C362.573 107.927 360.743 107.404 358.983 106.859C341.772 101.523 327.262 93.364 315.862 82.605C309.873 76.952 304.573 70.998 300.112 64.91C295.713 58.903 292.262 52.517 289.203 46.509C288.893 45.914 288.593 45.314 288.293 44.714C286.144 40.427 284.112 36.379 280.763 33.515C278.463 31.552 275.564 30.071 272.373 29.232C270.493 28.738 268.563 28.477 266.644 28.455C255.284 28.328 244.704 33.434 233.053 39.615C231.693 40.336 230.333 41.064 228.984 41.792C219.664 46.798 210.023 51.974 199.284 54.615C185.473 58.01 171.084 58.795 157.554 59.117C155.624 61.048 152.944 62.218 150.004 62.125L129.134 61.471L128.794 72.56C128.574 79.476 122.773 84.926 115.854 84.709L103.575 84.325L103.345 91.684C103.195 96.385 99.7947 100.11 95.7647 99.983C92.7357 99.887 90.1948 97.649 89.1848 94.546L43.6648 93.12C39.6348 92.994 36.4547 89.609 36.5747 85.574L36.6837 82.228L10.6237 81.413C4.80374 81.232 0.493757 78.275 0.612757 74.541C0.733757 70.805 5.21378 68.127 11.0338 68.309L37.0937 69.125L38.3947 27.653L12.3337 26.837C6.5037 26.654 2.20369 23.702 2.32369 19.965C2.44269 16.229 6.92374 13.55 12.7437 13.734L38.8037 14.549L38.9047 11.203C39.0347 7.168 42.4247 3.989 46.4547 4.115L91.9647 5.539C93.1747 2.508 95.8447 0.430001 98.8747 0.525001C102.915 0.652001 106.075 4.58 105.925 9.282L105.695 16.642L117.975 17.027C124.896 17.245 130.345 23.047 130.125 29.964L129.774 41.05L150.645 41.704C152.955 41.775 155.054 42.62 156.724 43.967C156.745 43.966 156.764 43.963 156.785 43.962C158.545 43.922 160.444 43.874 162.364 43.806C174.245 43.378 187.985 42.575 200.774 38.428C208.104 36.05 215.075 32.221 221.825 28.518C225.295 26.611 228.885 24.638 232.505 22.87C244.005 17.26 257.675 11.789 271.896 13.749C273.385 13.955 274.875 14.254 276.335 14.638C282.005 16.129 287.175 18.886 291.295 22.611C296.005 26.872 298.935 32.228 301.765 37.801C304.615 43.421 307.855 49.791 311.925 55.453C315.905 60.997 320.816 66.494 326.495 71.789C337.015 81.589 350.864 89.015 366.545 93.263C366.875 93.351 367.185 93.443 367.524 93.525C373.384 95.068 691.354 185.412 697.254 186.292L696.184 190.364C690.294 189.472 372.334 99.115 366.464 97.571C366.134 97.476 365.794 97.392 365.454 97.301C349.113 92.876 334.664 85.113 323.644 74.851C317.763 69.368 312.673 63.663 308.523 57.895C304.263 51.971 300.954 45.448 298.034 39.694C295.394 34.484 292.674 29.494 288.494 25.713C284.874 22.436 280.294 20.004 275.273 18.683C273.973 18.341 272.644 18.075 271.324 17.893C258.214 16.087 245.273 21.296 234.344 26.63C230.815 28.355 227.264 30.302 223.834 32.185C216.924 35.982 209.773 39.91 202.064 42.408C188.76 46.722 174.68 47.55 162.52 47.986ZM36.9597 73.307L10.8997 72.49C7.21874 72.376 4.81976 73.858 4.78976 74.673C4.76876 75.486 7.06972 77.117 10.7497 77.234L36.8108 78.049L36.9597 73.307ZM38.6698 18.731L12.6087 17.915C8.92873 17.8 6.52972 19.283 6.49972 20.096C6.47972 20.91 8.77968 22.541 12.4597 22.656L38.5197 23.472L38.6698 18.731ZM41.7998 52.44L64.9807 53.165L65.2197 45.326L42.0398 44.601L41.7998 52.44ZM91.2597 9.707L46.3197 8.3C44.5897 8.246 43.1397 9.608 43.0797 11.336L42.1698 40.42L69.5398 41.277L69.0297 57.478L41.6698 56.62L40.7597 85.704C40.6997 87.433 42.0708 88.885 43.7898 88.939L88.7397 90.347L91.2597 9.707ZM101.74 9.153C101.82 6.795 100.439 4.76 98.7397 4.708C97.0397 4.655 95.5397 6.6 95.4687 8.957L92.8897 91.355C92.8197 93.712 94.1887 95.747 95.8897 95.8C97.5887 95.853 99.0888 93.907 99.1598 91.551L101.74 9.153ZM125.939 29.835C126.089 25.223 122.45 21.355 117.839 21.211L105.56 20.826L103.709 80.142L115.98 80.525C120.589 80.671 124.459 77.037 124.609 72.426L125.939 29.835ZM156.35 52.101C156.46 48.779 153.84 45.988 150.51 45.885L129.641 45.231L129.27 57.29L150.141 57.942C153.46 58.047 156.25 55.428 156.35 52.101Z" fill="url(#paint0_linear_311_1259)"/>
<defs>
<linearGradient id="paint0_linear_311_1259" x1="-843.887" y1="191.175" x2="1286.78" y2="35.6329" gradientUnits="userSpaceOnUse">
<stop stop-color="#39ABDF"/>
<stop offset="1" stop-color="#63BC5E"/>
</linearGradient>
</defs>
</svg>
