<svg width="636" height="180" viewBox="0 0 636 180" fill="none" xmlns="http://www.w3.org/2000/svg">
<path d="M634.934 164.057L616.467 83.714C615.414 79.128 611.356 76.134 607.422 77.037C604.467 77.718 602.41 80.406 602.016 83.645L562.733 92.675C556.613 94.08 552.567 99.77 553.031 105.85L540.92 108.634C534.176 110.185 529.951 116.932 531.501 123.676L533.986 134.485L513.637 139.164C510.938 139.784 508.754 141.439 507.362 143.602C506.006 144.125 439.985 169.17 410.707 147.046C399.928 138.9 395.371 125.075 397.164 105.954C399.761 78.254 394.753 58.265 381.402 43.047C371.093 31.297 355.925 22.451 335.032 16.005C312.663 9.103 284.286 5.099 248.279 3.765C248.23 3.763 248.182 3.764 248.133 3.765C195.938 5.358 152.231 15.601 113.668 24.639C38.7086 42.206 -20.4974 56.082 -100.922 1.33C-101.904 0.661 -103.239 0.915 -103.906 1.896C-104.574 2.877 -104.32 4.213 -103.34 4.88C-65.7144 30.496 -30.2214 43.043 8.35458 44.366C43.2086 45.561 77.9126 37.43 114.648 28.821C152.994 19.834 196.458 9.648 248.19 8.061C315.523 10.564 358.042 22.934 378.172 45.88C390.689 60.148 395.365 79.11 392.886 105.553C390.946 126.258 396.071 141.373 408.12 150.477C418.002 157.944 431.389 160.524 445.184 160.524C470.424 160.524 497.013 151.884 505.921 148.712C505.713 150.771 505.899 153.166 507.221 155.152C493.671 159.874 435.545 178.192 404.459 156.999C391.169 147.937 384.382 132.572 384.285 111.329C384.271 108.404 384.385 105.372 384.504 102.161C385.106 85.984 385.787 67.649 370.868 51.827C353.952 33.885 319.854 23.048 266.626 18.7C266.583 18.696 266.541 18.694 266.499 18.693C220.058 17.661 175.322 27.162 132.052 36.353C52.3426 53.285 -22.9454 69.279 -98.2124 18.037C-99.1944 17.369 -100.528 17.624 -101.195 18.604C-101.863 19.585 -101.609 20.921 -100.629 21.588C-61.4564 48.257 -22.4544 57.109 17.0716 57.108C55.0186 57.106 93.4496 48.945 132.945 40.555C175.954 31.419 220.423 21.972 266.34 22.986C382.796 32.515 381.364 71.042 380.213 102.002C380.092 105.258 379.978 108.335 379.991 111.349C380.094 134.094 387.514 150.648 402.046 160.552C413.903 168.634 429.095 171.407 444.377 171.407C475.68 171.407 507.326 159.764 511.319 158.246C511.413 158.282 511.499 158.321 511.596 158.355C513.592 159.293 515.901 159.603 518.211 159.073L538.559 154.396L541.043 165.206C542.593 171.949 549.34 176.175 556.085 174.624L568.196 171.841C570.433 177.514 576.556 180.864 582.677 179.458L621.961 170.429C623.73 173.17 626.754 174.694 629.71 174.012C633.645 173.109 635.988 168.643 634.934 164.057ZM517.273 154.997C514.032 155.741 510.789 153.71 510.044 150.47C509.299 147.229 511.33 143.985 514.571 143.241L534.919 138.565L537.622 150.321L517.273 154.997ZM555.146 170.548C550.651 171.581 546.153 168.764 545.119 164.27L535.574 122.741C534.54 118.245 537.357 113.746 541.853 112.714L553.827 109.962L567.121 167.798L555.146 170.548ZM581.741 175.38C577.245 176.414 572.747 173.598 571.714 169.102L557.389 106.782C556.356 102.286 559.172 97.788 563.668 96.754L602.395 87.853L620.468 166.481L581.741 175.38ZM628.771 169.936C627.115 170.317 625.269 168.698 624.74 166.401L606.273 86.058C605.745 83.76 606.699 81.496 608.355 81.116C610.012 80.736 611.86 82.355 612.387 84.652L630.855 164.996C631.384 167.291 630.43 169.555 628.771 169.936ZM551.876 155.876C552.404 158.178 548.327 159.113 547.798 156.814C545.611 147.301 543.425 137.79 541.238 128.276C540.71 125.976 544.788 125.038 545.316 127.338C547.503 136.852 549.689 146.364 551.876 155.876ZM553.023 125.568C555.21 135.081 557.394 144.592 559.582 154.104C560.111 156.406 556.035 157.343 555.506 155.042C553.32 145.53 551.132 136.02 548.946 126.506C548.418 124.205 552.495 123.268 553.023 125.568Z" fill="url(#paint0_linear_311_1260)"/>
<defs>
<linearGradient id="paint0_linear_311_1260" x1="-1020.4" y1="90.3672" x2="1280.17" y2="90.3672" gradientUnits="userSpaceOnUse">
<stop stop-color="#63BC5E"/>
<stop offset="1" stop-color="#39ABDF"/>
</linearGradient>
</defs>
</svg>
