<?xml version="1.0" encoding="utf-8"?>
<!-- Generator: Adobe Illustrator 16.0.3, SVG Export Plug-In . SVG Version: 6.00 Build 0)  -->
<!DOCTYPE svg PUBLIC "-//W3C//DTD SVG 1.1//EN" "http://www.w3.org/Graphics/SVG/1.1/DTD/svg11.dtd">
<svg version="1.1" id="Layer_1" xmlns="http://www.w3.org/2000/svg" xmlns:xlink="http://www.w3.org/1999/xlink" x="0px" y="0px"
	 width="24px" height="24px" viewBox="320.771 74.603 24 24" enable-background="new 320.771 74.603 24 24" xml:space="preserve">
<linearGradient id="SVGID_1_" gradientUnits="userSpaceOnUse" x1="321.0215" y1="86.6025" x2="344.5215" y2="86.6025">
	<stop  offset="0" style="stop-color:#3AABDF"/>
	<stop  offset="1" style="stop-color:#63BD5E"/>
</linearGradient>
<path fill="url(#SVGID_1_)" d="M344.521,86.606c0,0,0-0.001,0-0.001c0-2.526-0.786-4.93-2.274-6.952c0,0,0-0.002-0.001-0.003
	c-0.039-0.053-0.085-0.098-0.125-0.15c-1.677-2.202-4.006-3.702-6.594-4.314c-0.039-0.01-0.079-0.014-0.118-0.023
	c-0.369-0.083-0.74-0.155-1.118-0.201c-0.305-0.04-0.612-0.055-0.921-0.071c-0.09-0.004-0.178-0.019-0.268-0.021
	c-0.221-0.026-0.517-0.021-0.587-0.005c-0.025,0-0.05,0.005-0.075,0.006c-0.001,0-0.001,0-0.001,0l0,0
	c-0.082,0.002-0.16,0.015-0.241,0.019c-0.318,0.016-0.636,0.032-0.949,0.073c-0.267,0.034-0.526,0.09-0.788,0.142
	c-0.162,0.033-0.325,0.055-0.484,0.094c-2.654,0.641-5.01,2.186-6.68,4.452c-1.488,2.023-2.275,4.428-2.275,6.955
	c0,0,0,0.001,0,0.002v0v0c0.001,2.525,0.787,4.93,2.275,6.951c2.179,2.969,5.539,4.713,9.144,4.779
	c0.11,0.014,0.221,0.016,0.331,0.016s0.221-0.002,0.255-0.01c0.025,0,0.05-0.004,0.075-0.006c0,0,0.001,0,0.002,0l0,0
	c0.894-0.023,1.768-0.141,2.609-0.355c2.601-0.66,4.899-2.197,6.533-4.424C343.733,91.537,344.521,89.133,344.521,86.606
	L344.521,86.606L344.521,86.606z M341.387,92.154c-1.023-0.492-2.252-0.887-3.624-1.168c0.206-1.154,0.326-2.369,0.36-3.629h4.869
	C342.869,89.076,342.32,90.711,341.387,92.154z M340.368,93.48c-0.106,0.119-0.22,0.229-0.331,0.342
	c-0.154,0.154-0.309,0.309-0.471,0.453c-0.121,0.105-0.246,0.207-0.371,0.309c-0.166,0.133-0.334,0.264-0.508,0.385
	c-0.132,0.094-0.266,0.184-0.402,0.271c-0.179,0.113-0.361,0.221-0.547,0.322c-0.141,0.078-0.281,0.154-0.426,0.225
	c-0.193,0.096-0.391,0.18-0.589,0.264c-0.146,0.061-0.292,0.121-0.441,0.176c-0.151,0.055-0.308,0.098-0.462,0.145
	c0.669-0.986,1.219-2.326,1.625-3.926c1.133,0.23,2.16,0.539,3.02,0.918C340.432,93.402,340.402,93.443,340.368,93.48z
	 M332.638,96.85c-0.005,0-0.012,0-0.017,0c-1.162-0.146-2.34-1.979-3.039-4.637c2.06-0.275,4.313-0.275,6.379,0
	c-0.7,2.66-1.878,4.492-3.04,4.637c-0.051,0.006-0.102,0.004-0.149,0.004C332.727,96.854,332.682,96.855,332.638,96.85z
	 M328.811,96.053c-0.201-0.084-0.4-0.172-0.595-0.268c-0.14-0.07-0.277-0.145-0.414-0.219c-0.188-0.105-0.372-0.215-0.554-0.33
	c-0.133-0.084-0.264-0.174-0.394-0.264c-0.175-0.125-0.344-0.256-0.511-0.391c-0.124-0.1-0.248-0.201-0.367-0.307
	c-0.162-0.145-0.316-0.297-0.47-0.453c-0.112-0.113-0.227-0.225-0.334-0.344c-0.033-0.037-0.063-0.078-0.095-0.115
	c0.859-0.379,1.885-0.688,3.02-0.918c0.406,1.604,0.958,2.947,1.629,3.934c-0.164-0.051-0.329-0.098-0.49-0.154
	C329.093,96.172,328.952,96.111,328.811,96.053z M324.154,81.057c1.021,0.495,2.249,0.893,3.626,1.175
	c-0.206,1.156-0.326,2.369-0.36,3.625h-4.869C322.674,84.136,323.222,82.5,324.154,81.057z M325.168,79.739
	c0.13-0.144,0.269-0.279,0.406-0.415c0.122-0.121,0.244-0.242,0.372-0.357c0.173-0.154,0.353-0.299,0.536-0.441
	c0.102-0.08,0.205-0.16,0.311-0.236c0.203-0.146,0.412-0.282,0.625-0.413c0.102-0.062,0.203-0.124,0.308-0.182
	c0.211-0.119,0.426-0.23,0.645-0.334c0.132-0.063,0.266-0.122,0.4-0.178c0.19-0.081,0.384-0.158,0.579-0.227
	c0.12-0.042,0.243-0.077,0.365-0.115c-0.669,0.988-1.217,2.33-1.619,3.931c-1.137-0.231-2.163-0.542-3.019-0.923
	C325.108,79.813,325.137,79.774,325.168,79.739z M336.879,77.225c0.076,0.033,0.152,0.066,0.228,0.102
	c0.261,0.122,0.516,0.254,0.766,0.397c0.068,0.039,0.137,0.08,0.204,0.121c0.238,0.144,0.471,0.297,0.697,0.46
	c0.089,0.064,0.175,0.132,0.262,0.2c0.194,0.149,0.384,0.304,0.566,0.467c0.126,0.112,0.246,0.231,0.366,0.351
	c0.137,0.136,0.274,0.27,0.404,0.413c0.033,0.036,0.062,0.077,0.094,0.113c-0.855,0.382-1.881,0.691-3.019,0.923
	c-0.402-1.605-0.952-2.95-1.623-3.938c0.101,0.031,0.2,0.061,0.299,0.095C336.379,77.018,336.631,77.116,336.879,77.225z
	 M336.282,90.742c-2.268-0.314-4.761-0.314-7.021,0c-0.19-1.07-0.306-2.215-0.341-3.385h7.703
	C336.588,88.527,336.473,89.672,336.282,90.742z M332.936,76.363c1.166,0.159,2.336,1.988,3.027,4.643
	c-2.066,0.276-4.313,0.276-6.383,0c0.691-2.655,1.863-4.485,3.027-4.643c0.055,0,0.109-0.009,0.164-0.009
	S332.881,76.363,332.936,76.363z M328.92,85.857c0.033-1.173,0.147-2.304,0.34-3.379c1.131,0.157,2.3,0.257,3.512,0.257
	c1.213,0,2.383-0.1,3.512-0.257c0.192,1.074,0.307,2.205,0.34,3.379H328.92z M327.42,87.357c0.034,1.26,0.154,2.473,0.36,3.629
	c-1.373,0.281-2.601,0.676-3.624,1.168c-0.933-1.441-1.482-3.078-1.605-4.797H327.42z M338.123,85.857
	c-0.034-1.258-0.154-2.471-0.36-3.625c1.378-0.282,2.606-0.68,3.626-1.174c0.933,1.442,1.481,3.078,1.604,4.799H338.123z"/>
</svg>
