<?xml version="1.0" encoding="utf-8"?>
<!-- Generator: Adobe Illustrator 16.0.3, SVG Export Plug-In . SVG Version: 6.00 Build 0)  -->
<!DOCTYPE svg PUBLIC "-//W3C//DTD SVG 1.1//EN" "http://www.w3.org/Graphics/SVG/1.1/DTD/svg11.dtd">
<svg version="1.1" id="Layer_1" xmlns="http://www.w3.org/2000/svg" xmlns:xlink="http://www.w3.org/1999/xlink" x="0px" y="0px"
	 width="24px" height="24px" viewBox="320.771 74.603 24 24" enable-background="new 320.771 74.603 24 24" xml:space="preserve">
<linearGradient id="SVGID_1_" gradientUnits="userSpaceOnUse" x1="321.0215" y1="86.6025" x2="344.5215" y2="86.6025">
	<stop  offset="0" style="stop-color:#3AABDF"/>
	<stop  offset="1" style="stop-color:#63BD5E"/>
</linearGradient>
<path fill="url(#SVGID_1_)" d="M333.664,76.889c-7.97,0.865-12.643,4.403-12.643,4.403c9.688,6.263,15.212,15.272,15.212,15.272
	s2.806-4.668,4.955-9.451c2.149-4.784,3.333-9.866,3.333-9.866S339.721,76.168,333.664,76.889z M341.132,81.696
	c0,0-1.638,0.037-2.888,0.122c-1.25,0.084-2.195,0.227-2.195,0.227s0.436,2.073,0.794,3.869c0.357,1.799,0.715,4.594,0.715,4.594
	l-1.27,2.615c0,0-0.841-1.123-1.17-1.539c-0.329-0.418-0.587-0.682-0.587-0.682s-0.353-2.76-0.696-4.642
	c-0.369-2.021-0.935-3.844-0.935-3.844s-1.611,0.263-2.596,0.514c-0.965,0.246-2.682,0.747-2.682,0.747s-1.936-1.718-2.955-2.378
	c0,0,3.233-1.728,9.381-2.519c4.961-0.639,7.933-0.245,7.933-0.245s-0.129,0.66-0.368,1.546
	C341.373,80.967,341.132,81.696,341.132,81.696z"/>
</svg>
