<?xml version="1.0" encoding="utf-8"?>
<!-- Generator: Adobe Illustrator 26.0.3, SVG Export Plug-In . SVG Version: 6.00 Build 0)  -->
<svg version="1.1" id="Layer_1" xmlns="http://www.w3.org/2000/svg" xmlns:xlink="http://www.w3.org/1999/xlink" x="0px" y="0px"
	 width="24px" height="24px" viewBox="289 74.603 24 24" enable-background="new 289 74.603 24 24" xml:space="preserve">
<g>
	<path fill="#FFFFFF" d="M312,85.853c-0.414,0-0.75,0.336-0.75,0.75c0,0.435-0.027,0.874-0.082,1.307
		c-0.65,5.099-5.021,8.943-10.168,8.943c-5.652,0-10.25-4.598-10.25-10.25c0-5.652,4.598-10.25,10.25-10.25
		c1.37,0,2.7,0.266,3.954,0.79c0.382,0.159,0.82-0.02,0.981-0.402c0.159-0.382-0.02-0.822-0.403-0.981
		c-1.438-0.602-2.963-0.906-4.532-0.906c-6.478,0-11.75,5.271-11.75,11.75c0,6.479,5.272,11.75,11.75,11.75
		c5.9,0,10.912-4.408,11.656-10.255c0.062-0.496,0.094-0.999,0.094-1.495C312.75,86.188,312.414,85.853,312,85.853z"/>
	<path fill="#FFFFFF" d="M296.277,91.836c0,0.99,0.803,1.794,1.793,1.794c0.99,0,1.793-0.804,1.793-1.794
		c0-0.991-0.803-1.793-1.793-1.793C297.08,90.043,296.277,90.845,296.277,91.836z"/>
	<path fill="#FFFFFF" d="M302.614,91.836c0,0.99,0.803,1.794,1.793,1.794s1.794-0.804,1.794-1.794c0-0.991-0.804-1.793-1.794-1.793
		S302.614,90.845,302.614,91.836z"/>
	<path fill="#FFFFFF" d="M296.064,81.186l-1.184,6.733c-0.039,0.219,0.022,0.442,0.164,0.612c0.143,0.17,0.353,0.268,0.574,0.268
		h11.617c0.327,0,0.616-0.212,0.715-0.523l3.329-10.512c0.125-0.395-0.094-0.816-0.488-0.941c-0.394-0.125-0.816,0.094-0.941,0.488
		l-3.163,9.988h-10.175l0.92-5.233h9.249c0.414,0,0.75-0.336,0.75-0.75c0-0.414-0.336-0.75-0.75-0.75h-9.879
		C296.439,80.565,296.127,80.827,296.064,81.186z"/>
</g>
</svg>
