<?xml version="1.0" encoding="utf-8"?>
<!-- Generator: Adobe Illustrator 16.0.3, SVG Export Plug-In . SVG Version: 6.00 Build 0)  -->
<!DOCTYPE svg PUBLIC "-//W3C//DTD SVG 1.1//EN" "http://www.w3.org/Graphics/SVG/1.1/DTD/svg11.dtd">
<svg version="1.1" id="Layer_1" xmlns="http://www.w3.org/2000/svg" xmlns:xlink="http://www.w3.org/1999/xlink" x="0px" y="0px"
	 width="24px" height="24px" viewBox="289 74.603 24 24" enable-background="new 289 74.603 24 24" xml:space="preserve">
<path fill="#FFFFFF" d="M311.857,86.738c0.811-0.791,1.096-1.95,0.746-3.025c-0.35-1.075-1.262-1.844-2.38-2.006l-3.792-0.554
	c-0.472-0.068-0.881-0.364-1.092-0.791l-1.694-3.435c-0.501-1.015-1.515-1.646-2.646-1.646c-1.131,0-2.145,0.631-2.645,1.646
	l-1.697,3.435c-0.21,0.427-0.618,0.723-1.092,0.791l-3.79,0.554c-1.118,0.162-2.03,0.931-2.38,2.006
	c-0.35,1.076-0.064,2.235,0.746,3.026l2.742,2.674c0.342,0.332,0.498,0.812,0.418,1.282l-0.648,3.773
	c-0.15,0.874,0.079,1.724,0.645,2.395c0.88,1.044,2.409,1.36,3.637,0.718l3.389-1.784c0.415-0.219,0.934-0.221,1.348,0l3.393,1.784
	c0.434,0.228,0.895,0.343,1.371,0.343c0.87,0,1.695-0.387,2.265-1.062c0.564-0.67,0.793-1.521,0.644-2.394l-0.647-3.772
	c-0.08-0.471,0.076-0.951,0.418-1.284L311.857,86.738z M308.068,88.337c-0.695,0.678-1.014,1.653-0.85,2.611l0.647,3.773
	c0.074,0.43-0.037,0.847-0.313,1.173c-0.431,0.512-1.183,0.677-1.79,0.357l-3.391-1.783c-0.421-0.223-0.896-0.341-1.374-0.341
	c-0.477,0-0.952,0.118-1.374,0.34l-3.388,1.784c-0.608,0.319-1.359,0.155-1.792-0.357c-0.275-0.326-0.386-0.743-0.313-1.173
	l0.648-3.775c0.163-0.958-0.155-1.934-0.85-2.609l-2.741-2.672c-0.405-0.395-0.542-0.951-0.367-1.488
	c0.174-0.537,0.611-0.905,1.169-0.986l3.788-0.553c0.962-0.138,1.793-0.741,2.222-1.612l1.697-3.435
	c0.25-0.507,0.735-0.809,1.299-0.809c0.563,0,1.05,0.303,1.3,0.81l1.695,3.436c0.432,0.871,1.263,1.473,2.222,1.61l3.791,0.554
	c0.558,0.081,0.994,0.45,1.169,0.986c0.175,0.537,0.038,1.093-0.366,1.488L308.068,88.337z M305.121,84.543
	c0.293,0.292,0.293,0.768,0,1.061l-5.056,5.059c-0.141,0.141-0.332,0.22-0.53,0.22c-0.199,0-0.39-0.079-0.531-0.22l-2.126-2.128
	c-0.292-0.293-0.292-0.769,0-1.061c0.293-0.293,0.768-0.293,1.061,0l1.595,1.597l4.525-4.527
	C304.354,84.25,304.828,84.249,305.121,84.543z"/>
</svg>
