<?xml version="1.0" encoding="utf-8"?>
<!-- Generator: Adobe Illustrator 16.0.3, SVG Export Plug-In . SVG Version: 6.00 Build 0)  -->
<!DOCTYPE svg PUBLIC "-//W3C//DTD SVG 1.1//EN" "http://www.w3.org/Graphics/SVG/1.1/DTD/svg11.dtd">
<svg version="1.1" id="Layer_1" xmlns="http://www.w3.org/2000/svg" xmlns:xlink="http://www.w3.org/1999/xlink" x="0px" y="0px"
	 width="24px" height="24px" viewBox="289 74.603 24 24" enable-background="new 289 74.603 24 24" xml:space="preserve">
<path fill="#FFFFFF" d="M312,74.853h-10.964c-6.499,0-11.786,5.288-11.786,11.787c0,6.458,5.287,11.713,11.786,11.713
	c6.459,0,11.714-5.255,11.714-11.713V75.603C312.75,75.188,312.414,74.853,312,74.853z M311.25,86.639
	c0,5.631-4.582,10.213-10.214,10.213c-5.671,0-10.286-4.582-10.286-10.213c0-5.672,4.614-10.287,10.286-10.287h10.214V86.639z
	 M299.146,90.617l2.259-8.418c0.108-0.399,0.515-0.636,0.919-0.53c0.4,0.107,0.638,0.519,0.53,0.919l-2.259,8.418
	c-0.09,0.335-0.393,0.556-0.724,0.556c-0.064,0-0.13-0.008-0.195-0.025C299.277,91.429,299.04,91.018,299.146,90.617z
	 M304.195,88.518l2.058-2.057l-2.058-2.058c-0.293-0.293-0.293-0.768,0-1.061s0.768-0.293,1.061,0l2.588,2.588
	c0.146,0.146,0.22,0.338,0.22,0.53c0,0.192-0.073,0.384-0.22,0.53l-2.588,2.587c-0.146,0.146-0.339,0.22-0.53,0.22
	c-0.192,0-0.384-0.073-0.53-0.22C303.902,89.285,303.902,88.811,304.195,88.518z M297.807,84.403l-2.059,2.058l2.059,2.057
	c0.293,0.292,0.293,0.768,0.001,1.061c-0.146,0.146-0.339,0.22-0.531,0.22s-0.384-0.073-0.53-0.22l-2.589-2.586c0,0,0,0,0,0l0,0
	c-0.035-0.035-0.052-0.078-0.078-0.117c-0.029-0.044-0.067-0.083-0.086-0.131c-0.014-0.035-0.013-0.073-0.021-0.11
	c-0.014-0.057-0.034-0.114-0.034-0.172c0-0.055,0.02-0.108,0.031-0.162c0.009-0.041,0.008-0.082,0.023-0.121
	c0.008-0.02,0.027-0.036,0.037-0.056c0.035-0.067,0.071-0.136,0.127-0.192c0,0,0.001,0,0.001,0l2.589-2.588
	c0.293-0.293,0.768-0.293,1.061,0S298.1,84.11,297.807,84.403z"/>
</svg>
