<?xml version="1.0" encoding="utf-8"?>
<!-- Generator: Adobe Illustrator 16.0.3, SVG Export Plug-In . SVG Version: 6.00 Build 0)  -->
<!DOCTYPE svg PUBLIC "-//W3C//DTD SVG 1.1//EN" "http://www.w3.org/Graphics/SVG/1.1/DTD/svg11.dtd">
<svg version="1.1" id="Layer_1" xmlns="http://www.w3.org/2000/svg" xmlns:xlink="http://www.w3.org/1999/xlink" x="0px" y="0px"
	 width="24px" height="24px" viewBox="320.771 74.603 24 24" enable-background="new 320.771 74.603 24 24" xml:space="preserve">
<linearGradient id="SVGID_1_" gradientUnits="userSpaceOnUse" x1="321.0215" y1="86.8525" x2="344.5215" y2="86.8525">
	<stop  offset="0" style="stop-color:#3AABDF"/>
	<stop  offset="1" style="stop-color:#63BD5E"/>
</linearGradient>
<path fill="url(#SVGID_1_)" d="M343.771,75.103h-10.965c-6.498,0-11.785,5.288-11.785,11.787c0,6.458,5.287,11.713,11.785,11.713
	c6.46,0,11.715-5.255,11.715-11.713V75.853C344.521,75.438,344.186,75.103,343.771,75.103z M343.021,86.889
	c0,5.631-4.582,10.213-10.215,10.213c-5.671,0-10.285-4.582-10.285-10.213c0-5.672,4.614-10.287,10.285-10.287h10.215V86.889z
	 M330.918,90.867l2.259-8.418c0.108-0.399,0.515-0.636,0.919-0.53c0.4,0.107,0.638,0.519,0.53,0.919l-2.259,8.418
	c-0.09,0.335-0.393,0.556-0.725,0.556c-0.064,0-0.129-0.008-0.194-0.025C331.049,91.679,330.811,91.268,330.918,90.867z
	 M335.967,88.768l2.058-2.057l-2.058-2.058c-0.293-0.293-0.293-0.768,0-1.061s0.768-0.293,1.061,0l2.588,2.588
	c0.146,0.146,0.22,0.338,0.22,0.53c0,0.192-0.073,0.384-0.22,0.53l-2.588,2.587c-0.146,0.146-0.339,0.22-0.53,0.22
	c-0.192,0-0.384-0.073-0.53-0.22C335.674,89.535,335.674,89.061,335.967,88.768z M329.578,84.653l-2.059,2.058l2.059,2.057
	c0.293,0.292,0.293,0.768,0,1.061c-0.146,0.146-0.338,0.22-0.53,0.22s-0.384-0.073-0.53-0.22l-2.59-2.586v-0.001l0,0
	c-0.035-0.034-0.052-0.078-0.078-0.117c-0.029-0.044-0.067-0.083-0.086-0.131c-0.015-0.035-0.014-0.073-0.021-0.11
	c-0.014-0.057-0.034-0.114-0.034-0.172c0-0.055,0.02-0.108,0.031-0.162c0.009-0.041,0.008-0.082,0.023-0.121
	c0.009-0.02,0.026-0.036,0.037-0.056c0.034-0.067,0.071-0.136,0.128-0.192c0,0,0,0,0.001-0.001l2.589-2.587
	c0.293-0.293,0.768-0.293,1.061,0S329.871,84.36,329.578,84.653z"/>
</svg>
