<?xml version="1.0" encoding="utf-8"?>
<!-- Generator: Adobe Illustrator 16.0.3, SVG Export Plug-In . SVG Version: 6.00 Build 0)  -->
<!DOCTYPE svg PUBLIC "-//W3C//DTD SVG 1.1//EN" "http://www.w3.org/Graphics/SVG/1.1/DTD/svg11.dtd">
<svg version="1.1" id="Layer_1" xmlns="http://www.w3.org/2000/svg" xmlns:xlink="http://www.w3.org/1999/xlink" x="0px" y="0px"
	 width="24px" height="24px" viewBox="289 74.603 24 24" enable-background="new 289 74.603 24 24" xml:space="preserve">
<path fill="#FFFFFF" d="M312.75,86.606c0,0,0-0.001,0-0.001c0-2.526-0.786-4.93-2.274-6.952c0,0,0-0.002-0.001-0.003
	c-0.039-0.053-0.085-0.098-0.125-0.15c-1.677-2.202-4.006-3.702-6.594-4.314c-0.039-0.01-0.079-0.014-0.118-0.023
	c-0.369-0.083-0.74-0.155-1.118-0.201c-0.305-0.04-0.612-0.055-0.921-0.071c-0.09-0.004-0.178-0.019-0.268-0.021
	c-0.221-0.026-0.517-0.021-0.586-0.005c-0.026,0-0.05,0.005-0.076,0.006h-0.001l0,0c-0.082,0.002-0.16,0.015-0.241,0.019
	c-0.318,0.016-0.636,0.032-0.949,0.073c-0.267,0.034-0.526,0.09-0.788,0.142c-0.162,0.033-0.325,0.055-0.484,0.094
	c-2.654,0.641-5.009,2.186-6.679,4.452c-1.489,2.023-2.276,4.428-2.276,6.955c0,0,0,0.001,0,0.002v0v0
	c0.001,2.525,0.788,4.93,2.275,6.951c2.179,2.969,5.539,4.713,9.144,4.779c0.11,0.014,0.221,0.016,0.331,0.016
	s0.221-0.002,0.255-0.01c0.025,0,0.049-0.004,0.075-0.006c0,0,0.001,0,0.002,0c0,0,0,0,0,0c0.893-0.023,1.767-0.141,2.609-0.355
	c2.601-0.66,4.899-2.197,6.533-4.424C311.962,91.537,312.749,89.133,312.75,86.606L312.75,86.606L312.75,86.606z M309.615,92.154
	c-1.023-0.492-2.252-0.887-3.624-1.168c0.206-1.154,0.326-2.369,0.36-3.629h4.869C311.098,89.076,310.549,90.711,309.615,92.154z
	 M308.597,93.48c-0.106,0.119-0.22,0.229-0.331,0.342c-0.154,0.154-0.309,0.309-0.471,0.453c-0.121,0.105-0.246,0.207-0.371,0.309
	c-0.166,0.133-0.334,0.264-0.508,0.385c-0.132,0.094-0.266,0.184-0.402,0.271c-0.179,0.113-0.361,0.221-0.547,0.322
	c-0.141,0.078-0.281,0.154-0.426,0.225c-0.193,0.096-0.391,0.18-0.589,0.264c-0.146,0.061-0.292,0.121-0.441,0.176
	c-0.151,0.055-0.308,0.098-0.462,0.145c0.669-0.986,1.219-2.326,1.625-3.926c1.133,0.23,2.16,0.539,3.02,0.918
	C308.66,93.402,308.631,93.443,308.597,93.48z M300.866,96.85c-0.005,0-0.012,0-0.017,0c-1.162-0.146-2.339-1.979-3.039-4.637
	c2.06-0.275,4.313-0.275,6.379,0c-0.7,2.66-1.878,4.492-3.04,4.637c-0.051,0.006-0.102,0.004-0.149,0.004
	C300.955,96.854,300.91,96.855,300.866,96.85z M297.04,96.053c-0.201-0.084-0.4-0.172-0.595-0.268
	c-0.14-0.07-0.277-0.145-0.414-0.219c-0.188-0.105-0.372-0.215-0.553-0.33c-0.133-0.084-0.264-0.174-0.394-0.264
	c-0.174-0.125-0.344-0.256-0.511-0.391c-0.124-0.1-0.248-0.201-0.367-0.307c-0.162-0.145-0.316-0.297-0.47-0.453
	c-0.112-0.113-0.227-0.225-0.334-0.344c-0.033-0.037-0.063-0.078-0.095-0.115c0.859-0.379,1.885-0.688,3.02-0.918
	c0.406,1.604,0.958,2.947,1.628,3.934c-0.164-0.051-0.329-0.098-0.49-0.154C297.321,96.172,297.181,96.111,297.04,96.053z
	 M292.383,81.057c1.021,0.495,2.249,0.893,3.626,1.175c-0.206,1.156-0.326,2.369-0.36,3.625h-4.869
	C290.902,84.136,291.45,82.5,292.383,81.057z M293.396,79.739c0.13-0.144,0.269-0.279,0.406-0.415
	c0.123-0.121,0.245-0.242,0.373-0.357c0.173-0.154,0.353-0.299,0.536-0.441c0.103-0.08,0.205-0.16,0.311-0.236
	c0.203-0.146,0.412-0.282,0.625-0.413c0.102-0.062,0.204-0.124,0.308-0.182c0.211-0.119,0.426-0.23,0.645-0.334
	c0.132-0.063,0.266-0.122,0.4-0.178c0.191-0.081,0.384-0.158,0.579-0.227c0.12-0.042,0.243-0.077,0.365-0.115
	c-0.669,0.988-1.217,2.33-1.619,3.931c-1.137-0.231-2.164-0.542-3.019-0.923C293.337,79.813,293.365,79.774,293.396,79.739z
	 M305.107,77.225c0.076,0.033,0.152,0.066,0.228,0.102c0.261,0.122,0.516,0.254,0.766,0.397c0.068,0.039,0.137,0.08,0.204,0.121
	c0.238,0.144,0.471,0.297,0.697,0.46c0.089,0.064,0.175,0.132,0.262,0.2c0.194,0.149,0.384,0.304,0.566,0.467
	c0.126,0.112,0.246,0.231,0.366,0.351c0.137,0.136,0.274,0.27,0.404,0.413c0.033,0.036,0.062,0.077,0.094,0.113
	c-0.855,0.382-1.881,0.691-3.019,0.923c-0.402-1.605-0.952-2.95-1.623-3.938c0.101,0.031,0.2,0.061,0.299,0.095
	C304.607,77.018,304.859,77.116,305.107,77.225z M304.511,90.742c-2.268-0.314-4.761-0.314-7.021,0
	c-0.19-1.07-0.306-2.215-0.341-3.385h7.703C304.816,88.527,304.701,89.672,304.511,90.742z M301.164,76.363
	c1.166,0.159,2.336,1.988,3.027,4.643c-2.066,0.276-4.312,0.276-6.383,0c0.691-2.655,1.863-4.485,3.028-4.643
	c0.055,0,0.109-0.009,0.164-0.009C301.055,76.354,301.109,76.363,301.164,76.363z M297.148,85.857
	c0.034-1.173,0.148-2.304,0.341-3.379c1.13,0.157,2.299,0.257,3.511,0.257c1.213,0,2.383-0.1,3.512-0.257
	c0.192,1.074,0.307,2.205,0.34,3.379H297.148z M295.648,87.357c0.034,1.26,0.155,2.473,0.36,3.629
	c-1.373,0.281-2.601,0.676-3.624,1.168c-0.933-1.441-1.482-3.078-1.605-4.797H295.648z M306.352,85.857
	c-0.034-1.258-0.154-2.471-0.36-3.625c1.378-0.282,2.606-0.68,3.626-1.174c0.933,1.442,1.481,3.078,1.604,4.799H306.352z"/>
</svg>
