<?xml version="1.0" encoding="utf-8"?>
<!-- Generator: Adobe Illustrator 16.0.3, SVG Export Plug-In . SVG Version: 6.00 Build 0)  -->
<!DOCTYPE svg PUBLIC "-//W3C//DTD SVG 1.1//EN" "http://www.w3.org/Graphics/SVG/1.1/DTD/svg11.dtd">
<svg version="1.1" id="Layer_1" xmlns="http://www.w3.org/2000/svg" xmlns:xlink="http://www.w3.org/1999/xlink" x="0px" y="0px"
	 width="24px" height="24px" viewBox="289 74.603 24 24" enable-background="new 289 74.603 24 24" xml:space="preserve">
<path fill="#FFFFFF" d="M301.893,76.888c-7.97,0.866-12.643,4.403-12.643,4.403c9.688,6.263,15.212,15.273,15.212,15.273
	s2.806-4.668,4.955-9.451c2.149-4.785,3.333-9.866,3.333-9.866S307.949,76.167,301.893,76.888z M309.36,81.696
	c0,0-1.638,0.038-2.888,0.122s-2.195,0.227-2.195,0.227s0.436,2.073,0.794,3.87c0.357,1.799,0.715,4.594,0.715,4.594l-1.27,2.615
	c0,0-0.841-1.123-1.17-1.539c-0.329-0.418-0.587-0.682-0.587-0.682s-0.353-2.76-0.696-4.642c-0.369-2.021-0.935-3.844-0.935-3.844
	s-1.612,0.262-2.595,0.513c-0.965,0.247-2.682,0.748-2.682,0.748s-1.936-1.718-2.956-2.378c0,0,3.233-1.727,9.381-2.518
	c4.961-0.639,7.933-0.245,7.933-0.245s-0.129,0.66-0.368,1.546C309.602,80.966,309.36,81.696,309.36,81.696z"/>
</svg>
